<svg width="115" height="89" viewBox="0 0 115 89" fill="none" xmlns="http://www.w3.org/2000/svg">
<g clip-path="url(#clip0_32_534)">
<path d="M19.6866 85.0103L21.4191 85.5551L24.0539 78.0549L21.4966 77.2508L19.6866 85.0103Z" fill="#FFB6B6"/>
<path d="M19.136 87.0897L24.4641 88.7652L24.4824 88.687C24.6313 88.0484 24.5557 87.3673 24.2722 86.7934C23.9886 86.2195 23.5203 85.8 22.9703 85.6269L22.9702 85.6269L22.197 84.4635L20.1811 84.7498L19.7159 84.6035L19.136 87.0897Z" fill="#2F2E41"/>
<path d="M31.65 86.7559L33.445 86.7557L34.299 78.7166L31.6496 78.7168L31.65 86.7559Z" fill="#FFB6B6"/>
<path d="M31.5867 88.93L37.1068 88.9297V88.8487C37.1068 88.1871 36.8804 87.5526 36.4775 87.0848C36.0746 86.617 35.5281 86.3541 34.9582 86.3541H34.9581L33.9498 85.4659L32.0685 86.3542L31.5866 86.3543L31.5867 88.93Z" fill="#2F2E41"/>
<path d="M32.4164 40.4005L34.8253 80.0156L30.9459 80.4147L25.5337 51.0552L26.1335 68.0424L23.9854 81.403L20.7017 79.5594L20.7563 65.6477L16.4451 43.1666L17.5926 40.4005H32.4164Z" fill="#2F2E41"/>
<path d="M16.9953 45.3294L16.9712 45.2902C15.6855 43.2004 17.6192 38.1785 17.9108 37.4505C17.5645 37.3201 17.2678 37.0542 17.0714 36.6983C16.8749 36.3424 16.7908 35.9184 16.8333 35.4986L16.959 34.2578L17.0901 33.0407L16.1513 31.9507L16.1486 31.9235L15.6083 26.4347L14.8228 22.7891C14.5268 21.4109 14.552 19.9661 14.8959 18.603C15.2397 17.2399 15.8898 16.0076 16.7794 15.0326L18.5952 14.6978L20.802 12.2291H24.3606L25.5808 13.5827C27.8586 14.0465 28.2499 13.895 30.2065 16.6211L29.3175 25.0964L29.0957 26.2624L29.0963 27.8438L29.6602 28.5714C29.8633 28.8334 30.0109 29.147 30.0912 29.487C30.1715 29.827 30.1823 30.1841 30.1228 30.5298L30.0486 30.9603C30.6302 31.2496 31.1851 36.392 31.3177 37.1103L31.5157 38.1832C31.6852 38.4428 32.8035 40.1741 32.8035 40.6474C32.8035 40.7185 32.7583 40.7872 32.6614 40.8634C31.8992 41.4626 28.8607 45.7131 26.9963 44.8469C25.0103 43.9249 17.1158 45.308 17.0363 45.3221L16.9953 45.3294Z" fill="#3F3D56"/>
<path d="M16.5172 35.474C16.5172 35.474 17.431 29.4775 16.5104 27.2224L12.858 27.5252L13.4139 36.08L16.6067 45.5783C16.5579 45.871 16.5768 46.1734 16.6612 46.4548C16.7457 46.7363 16.8928 46.9868 17.0876 47.1809C17.2824 47.375 17.518 47.5058 17.7705 47.56C18.0229 47.6143 18.2832 47.59 18.5249 47.4896C18.7667 47.3893 18.9812 47.2165 19.1468 46.9887C19.3125 46.761 19.4232 46.4864 19.4679 46.1929C19.5126 45.8994 19.4896 45.5974 19.4012 45.3175C19.3128 45.0377 19.1623 44.79 18.9648 44.5995L16.5172 35.474Z" fill="#FFB6B6"/>
<path d="M12.858 24.042L13.0841 21.184C13.1691 20.1084 13.4365 19.0629 13.8709 18.1076C14.3052 17.1524 14.898 16.3063 15.615 15.6181C16.0605 15.1936 16.5993 14.9222 17.1707 14.8346C17.7421 14.7471 18.3231 14.8468 18.8482 15.1225C19.5579 15.5018 20.117 16.1799 20.4125 17.0196C20.7081 17.8592 20.718 18.7979 20.4402 19.6457C19.5961 22.2161 19.9009 24.9344 18.2549 25.2658L18.4337 26.2536L16.8153 32.3857L12.2058 31.7658L12.858 24.042Z" fill="#3F3D56"/>
<path d="M30.9604 43.6067C30.7989 43.8384 30.6931 44.1156 30.6536 44.4101C30.6142 44.7046 30.6426 45.006 30.736 45.2837C30.8293 45.5613 30.9843 45.8054 31.1851 45.991C31.3859 46.1767 31.6255 46.2973 31.8795 46.3407C32.1335 46.3841 32.3928 46.3487 32.6312 46.2381C32.8696 46.1275 33.0786 45.9456 33.2368 45.711C33.3951 45.4763 33.4971 45.1972 33.5324 44.902C33.5678 44.6067 33.5352 44.3059 33.438 44.03L34.9659 33.9894L34.0671 25.4741L30.4345 26.008C29.9123 28.4289 31.8205 34.1012 31.8205 34.1012L30.9604 43.6067Z" fill="#FFB6B6"/>
<path d="M35.4224 29.484L31.0069 31.1406L29.3069 28.0615L29.3155 27.0521C27.6455 27.1016 26.5637 21.8008 25.3021 19.4723C24.8867 18.7041 24.7379 17.7814 24.886 16.8908C25.0341 16.0001 25.468 15.208 26.0998 14.6746C26.5682 14.2847 27.1212 14.0548 27.6963 14.0106C28.2713 13.9665 28.8456 14.11 29.3541 14.4249C30.1733 14.9368 30.8974 15.6316 31.4845 16.4695C32.0716 17.3074 32.5103 18.2718 32.7753 19.3072L33.4793 22.0583L35.4224 29.484Z" fill="#3F3D56"/>
<path d="M22.3412 11.0365C24.5239 11.0365 26.2934 8.98212 26.2934 6.44789C26.2934 3.91366 24.5239 1.85925 22.3412 1.85925C20.1585 1.85925 18.389 3.91366 18.389 6.44789C18.389 8.98212 20.1585 11.0365 22.3412 11.0365Z" fill="#FFB6B6"/>
<path d="M19.473 9.6822C19.4385 9.64707 19.406 9.60956 19.3723 9.57346C19.371 9.57716 19.3709 9.58095 19.3696 9.58465L19.473 9.6822Z" fill="#2F2E41"/>
<path d="M25.58 1.60231C25.3836 1.23529 25.1116 0.930828 24.7886 0.716383C24.5678 0.592039 24.3357 0.496588 24.0967 0.431787L23.4713 0.23365C23.1508 0.118517 22.8211 0.0414395 22.4872 0.00360306C22.0236 -0.022952 21.5626 0.0989307 21.1546 0.355936C20.7466 0.612941 20.4072 0.995186 20.1736 1.46092C19.9846 1.85007 19.8331 2.335 19.4683 2.47738C19.1743 2.59218 18.8534 2.43024 18.5443 2.46166C18.3632 2.49213 18.1914 2.574 18.0441 2.70001C17.8967 2.82602 17.7784 2.99228 17.6997 3.18406C17.5456 3.57 17.4698 3.99178 17.4781 4.41703C17.4659 5.38249 17.6282 6.34018 17.9545 7.22834C18.2807 8.1165 18.7637 8.91539 19.3722 9.57349C19.4743 9.26131 19.3062 8.92427 19.1734 8.62564C19.039 8.32348 18.956 7.90221 19.1811 7.68458C19.4315 7.44242 19.8328 7.67725 20.129 7.51933C20.2237 7.45613 20.3035 7.36667 20.3612 7.25894C20.419 7.15121 20.4528 7.02856 20.4598 6.90194C20.4884 6.65103 20.4585 6.39599 20.4721 6.14338C20.4854 5.89441 20.5409 5.65095 20.6353 5.42688C20.7297 5.20281 20.8612 5.00252 21.0223 4.83745C21.1834 4.67238 21.3709 4.54576 21.5741 4.46483C21.7773 4.38389 21.9923 4.35022 22.2067 4.36574C22.2116 4.3661 22.2165 4.36648 22.2215 4.36689C22.8957 4.4228 23.5499 4.95768 24.1987 4.73763C24.5032 4.63435 24.763 4.37136 25.078 4.32713C25.4268 4.27813 25.7549 4.5067 26.0511 4.72617C26.1587 4.19555 26.1725 3.64509 26.0915 3.10813C26.0105 2.57117 25.8365 2.05889 25.58 1.60231Z" fill="#2F2E41"/>
<path d="M46.2322 86.352L45.2265 84.4755L45.0256 85.5478C44.9904 85.7356 44.9552 85.9264 44.9225 86.1157C44.6369 85.8325 44.333 85.5705 44.0356 85.3191C43.1225 84.5497 42.2098 83.7794 41.2976 83.008L41.5833 84.9314C41.7594 86.1157 41.9433 87.3243 42.379 88.4071C42.4272 88.5298 42.4794 88.6509 42.5355 88.7691H46.78C46.8142 88.6593 46.8378 88.5456 46.8505 88.4298C46.8515 88.4223 46.8519 88.4147 46.8517 88.4071C46.9183 87.6726 46.5687 86.9805 46.2322 86.352Z" fill="#F0F0F0"/>
<path d="M51.1707 88.9535L10.0355 89C9.9944 88.9998 9.95509 88.9807 9.92614 88.9469C9.89718 88.9131 9.88092 88.8673 9.88092 88.8197C9.88092 88.772 9.89718 88.7263 9.92614 88.6925C9.95509 88.6587 9.9944 88.6396 10.0355 88.6393L51.1707 88.5928C51.2118 88.593 51.2511 88.6122 51.28 88.6459C51.309 88.6797 51.3252 88.7255 51.3252 88.7731C51.3252 88.8208 51.309 88.8665 51.28 88.9003C51.2511 88.9341 51.2118 88.9532 51.1707 88.9535Z" fill="#CACACA"/>
<path d="M93.6903 29.2892C93.6813 34.5907 91.9646 39.6965 88.8776 43.6029C85.7907 47.5093 81.5568 49.9337 77.0083 50.3994C72.4598 50.8652 67.9258 49.3386 64.2976 46.1198C60.6694 42.901 58.2095 38.2228 57.4015 33.005C56.5935 27.7872 57.4958 22.4071 59.9311 17.9226C62.3664 13.438 66.1584 10.1734 70.5618 8.77041C74.9651 7.36746 79.6612 7.9277 83.7268 10.341C87.7924 12.7543 90.9335 16.8461 92.5324 21.8119C92.5723 21.9366 92.6111 22.0613 92.649 22.1872V22.1884C92.8178 22.7418 92.9664 23.3055 93.095 23.8796C93.4915 25.6459 93.6916 27.4639 93.6903 29.2892Z" fill="#151515"/>
<path d="M73.2639 14.8662C72.4365 14.3467 71.5178 14.0535 70.5779 14.0088C69.638 13.9642 68.7018 14.1693 67.8406 14.6086C67.0823 14.9918 66.2838 15.6791 66.0309 16.9203C67.054 16.2193 68.3783 17.3269 68.6416 19.1037L68.5801 19.1234C68.4411 20.3541 68.7515 21.694 69.3524 22.4571C69.3971 22.1128 69.5073 21.7843 69.675 21.4956C69.8426 21.2069 70.0636 20.9652 70.3218 20.788C70.7633 20.451 71.2518 20.2062 71.5888 19.6269C71.9883 18.9402 72.0898 17.9366 72.2485 17.021C72.4072 16.1054 72.7083 15.1214 73.2639 14.8662Z" fill="#FFA85B"/>
<path d="M67.5371 25.3391C67.2538 25.8332 66.8753 26.1432 66.5357 26.5291C66.1437 26.9432 65.8865 27.5014 65.8074 28.1099C65.7645 28.5398 65.8309 28.9768 65.8217 29.4115C65.8125 29.8461 65.6877 30.3355 65.433 30.4435C65.031 30.6122 64.7242 29.7452 64.3109 29.6846C63.9826 29.6371 63.687 30.2369 63.7821 30.7571C63.8772 31.2772 64.3242 31.5076 64.581 31.168C64.8132 31.6205 64.6495 32.4411 64.3007 32.5801C64.2639 32.8651 64.2271 33.1489 64.1912 33.434C63.3095 32.7178 62.4186 31.9898 61.6688 30.9411C60.8349 29.7847 60.3177 28.3654 60.1836 26.8652C60.0864 25.6598 60.2306 24.281 59.754 23.3535C59.3724 22.6112 58.7178 22.4473 58.1286 22.4936C58.0212 22.5019 57.9128 22.5162 57.8054 22.5316C58.1528 21.3199 58.5941 20.1473 59.1238 19.0281C59.2437 18.9684 59.3551 18.8879 59.4542 18.7894C60.0025 18.249 60.246 17.1552 60.6909 16.3987C60.7196 16.35 60.7492 16.3025 60.7799 16.2562C61.2351 15.5662 61.8447 15.2111 62.4339 14.8809C63.7381 14.1458 65.0801 13.4012 66.4569 13.5033L66.0652 13.5472C65.6079 15.0341 65.1504 16.5211 64.6924 18.008C64.6229 18.236 64.5526 18.4644 64.4817 18.6932C64.2219 19.5388 63.9539 20.439 63.9938 21.3855C64.0173 21.9461 64.1851 22.5447 64.5042 22.7371C64.8019 22.9152 65.1272 22.6967 65.4146 22.4805C65.5363 22.3903 65.657 22.3 65.7787 22.2086C66.2155 21.882 66.6993 21.5471 67.1607 21.7656C67.5831 21.9651 67.8951 22.6314 67.9544 23.3499C68.0088 24.0483 67.8621 24.748 67.5371 25.3391Z" fill="#FFA85B"/>
<path d="M70.1348 35.4906C68.8592 34.5786 67.5835 33.6667 66.3079 32.7548L66.3295 32.6901C65.5364 33.0408 65.2071 34.6777 65.3382 36.0163C65.4692 37.3549 65.9137 38.5516 66.1382 39.8559C66.441 41.6408 66.3267 43.4873 65.8073 45.2037C67.4847 43.0184 68.9692 40.6434 70.2385 38.1143C70.4158 37.7956 70.5509 37.4477 70.6393 37.0824C70.7329 36.6931 70.6995 36.2774 70.5456 35.9149C70.4411 35.736 70.3 35.5902 70.1348 35.4906Z" fill="#FFA85B"/>
<path d="M65.1003 18.9001C64.9505 19.2735 64.9274 19.6987 65.0357 20.0911C65.1615 20.4071 65.3899 20.6527 65.6709 20.7742L66.3758 21.1798C66.6103 21.3148 66.863 21.4511 67.1021 21.34C67.3904 21.2061 67.5903 20.6813 67.5386 20.1941C67.4835 19.6757 67.2021 19.319 66.9418 19.0154C66.5775 18.5904 66.2132 18.1654 65.8489 17.7404L65.6436 18.0323C65.4215 18.2838 65.2378 18.5772 65.1003 18.9001Z" fill="#FFA85B"/>
<path d="M89.9117 24.4425C90.2288 24.5292 90.5459 24.6159 90.863 24.7026C90.8078 25.946 90.2769 27.0968 89.565 27.5137C89.2684 27.6871 88.938 27.7512 88.6925 28.0754C88.4705 28.3699 88.358 28.8284 88.2547 29.2666C88.0736 30.0314 87.8926 30.7962 87.7115 31.5611C87.5172 32.3853 87.2676 33.3009 86.7623 33.5978C86.3286 33.8532 85.8325 33.5408 85.499 33.0171C85.1655 32.4934 84.962 31.7891 84.7646 31.1027C84.7768 31.8508 84.4771 32.5848 84.0526 32.8449C83.6271 33.105 83.1095 32.8698 82.8252 32.2891C82.6206 31.8722 82.5357 31.3223 82.3352 30.8996C82.1347 30.4768 81.7143 30.2345 81.4954 30.6312C81.3512 30.8948 81.3696 31.2986 81.298 31.6335C81.2619 31.8559 81.1671 32.0596 81.0267 32.2165C80.8863 32.3734 80.7072 32.4755 80.5145 32.5088C80.3372 32.5041 80.1627 32.4575 80.0014 32.372C79.8401 32.2864 79.6956 32.1637 79.5765 32.0112C78.9501 31.2672 78.5423 30.3124 78.4114 29.2832C78.3227 28.7898 78.3339 28.2791 78.4442 27.7916C78.57 27.3296 78.8738 26.9733 79.1755 27.0612C79.3739 26.5742 78.9822 25.9282 78.6293 25.9852C78.2754 26.0422 77.9982 26.4828 77.7077 26.8213C77.4182 27.1597 77.0131 27.4056 76.7216 27.0695C76.7281 27.1924 76.6923 27.3133 76.6221 27.4056C76.5518 27.4979 76.4528 27.554 76.347 27.5615C76.3365 27.5623 76.326 27.5626 76.3155 27.5623C76.1217 27.4977 75.9416 27.3869 75.7867 27.2369C75.1187 26.7536 74.2708 27.0742 73.7961 27.9887C74.0928 26.5232 74.5275 24.8415 75.4389 24.4971C75.8112 24.3558 76.2173 24.4721 76.5692 24.2275C77.1921 23.794 77.318 22.1563 76.7799 21.4805C76.8484 22.1195 76.8352 22.8653 76.5446 23.3024C76.2541 23.7394 75.6445 23.4544 75.6813 22.8083C75.6731 22.8992 75.6402 22.9847 75.5876 23.0526C75.5349 23.1204 75.465 23.1672 75.3881 23.1862C75.3111 23.2052 75.2309 23.1954 75.159 23.1582C75.0871 23.1211 75.0272 23.0584 74.9878 22.9793C74.7945 22.6373 74.8109 22.0779 74.9479 21.6694C75.0892 21.2994 75.2919 20.9652 75.5443 20.686C76.0301 20.0816 76.5232 19.4699 77.0858 19.0899C77.6494 18.7098 78.2999 18.5816 78.8646 18.9593C79.1623 19.1588 79.4241 19.4913 79.7279 19.6671C79.7993 19.7185 79.8787 19.7531 79.9616 19.7689C80.0445 19.7847 80.1293 19.7814 80.2111 19.7591C80.2929 19.7369 80.3701 19.6962 80.4384 19.6393C80.5066 19.5824 80.5645 19.5104 80.6088 19.4275C80.6122 19.4211 80.6156 19.4147 80.6188 19.4082C80.8449 18.9474 80.7385 18.2633 80.8224 17.6873C80.9727 16.6695 81.8494 16.1933 82.3352 16.8655C81.9721 16.7574 81.5967 17.2562 81.5517 17.8607C81.5057 18.4652 81.7686 19.0756 82.1204 19.2585C82.7117 19.5625 83.2906 18.7977 83.7376 18.0899C84.204 17.3488 84.6712 16.6082 85.139 15.8679C85.2137 15.7418 85.2975 15.6234 85.3896 15.514C85.5361 15.3482 85.7314 15.2532 85.936 15.2484C86.1405 15.2435 86.339 15.3291 86.4912 15.4878C86.9638 15.9356 87.1858 16.8536 87.5734 17.4854C88.136 18.4034 88.9779 18.6267 89.7614 18.8049C90.3454 18.9367 90.9299 19.0693 91.5146 19.2027C91.9044 20.0447 92.2445 20.9164 92.5324 21.8119C91.4601 22.3796 90.5506 23.2926 89.9117 24.4425Z" fill="#FFA85B"/>
<path d="M93.095 23.8796C92.9752 24.2897 92.9096 24.7185 92.9006 25.1515C92.3994 24.4413 92.3196 23.11 92.649 22.1884C92.8178 22.7418 92.9664 23.3055 93.095 23.8796Z" fill="#FFA85B"/>
<path d="M91.8001 38.7319C91.3618 39.7651 90.8521 40.7552 90.2759 41.6927C89.9077 41.5098 89.5118 41.8363 89.1671 42.1428C88.8071 42.4634 88.3744 42.7758 88.0051 42.4836C87.6277 42.1843 87.506 41.3471 87.6256 40.6832C87.7632 40.0707 88.0038 39.496 88.3335 38.992C88.6403 38.4599 88.9687 37.9077 89.3952 37.701C89.8228 37.4944 90.3721 37.7865 90.4969 38.492L90.7997 38.4801C90.6299 38.2094 90.7189 37.6488 90.947 37.5502C91.2098 37.435 91.438 37.8542 91.5934 38.2248C91.663 38.3923 91.7335 38.5609 91.8001 38.7319Z" fill="#FFA85B"/>
<path d="M80.204 33.7155C79.5532 33.763 79.0377 32.8328 78.6951 31.9177C78.3526 31.0026 78.04 29.9562 77.4528 29.4904C77.1173 29.2242 76.7347 29.1877 76.3708 29.0587C76.1644 28.9982 75.9734 28.8814 75.8136 28.7181C75.6538 28.5547 75.5298 28.3495 75.452 28.1195L75.0391 27.9258C74.4617 28.261 73.9328 28.6988 73.4717 29.2234C72.9448 29.8733 72.6166 30.7063 72.5378 31.5941C72.4589 32.5535 72.7501 33.6232 73.2942 33.9836C73.7242 34.2684 74.2248 34.0889 74.6603 34.3496C75.2044 34.6753 75.5274 35.6215 75.6497 36.5558C75.772 37.49 75.741 38.4609 75.8285 39.4057C75.916 40.3506 76.1571 41.3337 76.6561 41.8179C77.2805 42.4238 78.1968 41.9203 78.477 40.8174C78.6144 40.2763 78.6097 39.6659 78.7124 39.1043C78.8934 38.1152 79.3819 37.3815 79.7693 36.5702C80.1567 35.7589 80.4616 34.657 80.204 33.7155Z" fill="#FFA85B"/>
<path d="M73.7731 23.9971C73.8338 24.0619 73.8905 24.1317 73.9426 24.2059C73.9966 24.314 74.0241 24.4371 74.0223 24.562C74.0205 24.6868 73.9893 24.8088 73.9322 24.9146C74.0106 24.9094 74.0872 24.8854 74.1572 24.8441C74.2272 24.8028 74.2891 24.7451 74.3389 24.6746C74.4577 24.5176 74.5621 24.3467 74.6507 24.1647C74.6923 24.1024 74.722 24.0305 74.7379 23.9538C74.7537 23.8771 74.7553 23.7973 74.7426 23.7199C74.7119 23.618 74.6392 23.5745 74.5882 23.4979C74.5175 23.3481 74.4693 23.1855 74.4456 23.017C74.4173 22.859 74.3517 22.7133 74.256 22.5963C74.1604 22.4792 74.0385 22.3955 73.9041 22.3544L73.9367 22.3617C73.8812 22.3999 73.8374 22.4574 73.8114 22.526C73.7854 22.5946 73.7786 22.6709 73.7918 22.7443C73.8116 22.8925 73.8936 23.0155 73.8854 23.1667C73.8737 23.384 73.6866 23.486 73.6751 23.7034C73.6732 23.8124 73.7085 23.9179 73.7731 23.9971Z" fill="#FFA85B"/>
<path d="M72.6581 20.3035L72.661 20.3029C72.6811 20.2817 72.6996 20.2587 72.7166 20.2342L72.6581 20.3035Z" fill="#6C63FF"/>
<path d="M72.8533 21.3237C72.9315 21.2441 72.9893 21.1411 73.0204 21.0259C73.0516 20.9107 73.0549 20.7877 73.03 20.6705C72.9827 20.4234 72.8154 20.2572 72.661 20.3029C72.6163 20.3556 72.5607 20.3942 72.4995 20.4151C72.4383 20.436 72.3736 20.4385 72.3114 20.4224C72.216 20.3939 72.1112 20.3204 72.0284 20.4039C71.9811 20.4662 71.948 20.5413 71.9321 20.6224C71.9014 20.7316 71.8708 20.8407 71.8402 20.9499C71.8256 20.989 71.8218 21.0323 71.8293 21.074C71.8352 21.0907 71.8446 21.1054 71.8568 21.1166C71.869 21.1278 71.8834 21.1352 71.8987 21.1381C72.0825 21.201 72.2663 21.2639 72.4501 21.3268C72.5134 21.3607 72.5823 21.3779 72.652 21.3774C72.7217 21.3769 72.7904 21.3585 72.8533 21.3237Z" fill="#FFA85B"/>
<path d="M86.7279 35.4088C86.643 35.2473 86.558 35.0858 86.4731 34.9243C86.3896 34.7373 86.2755 34.571 86.1372 34.4347C86.1073 34.4056 86.0727 34.3836 86.0354 34.3699C85.9981 34.3563 85.9589 34.3514 85.9199 34.3554C85.881 34.3594 85.8431 34.3722 85.8085 34.3932C85.7738 34.4142 85.7431 34.4429 85.718 34.4777L85.7136 34.484L85.7239 34.5762C85.9514 34.8594 86.1064 35.2105 86.1716 35.5903C86.1909 35.7553 86.1842 35.9261 86.2012 36.0919C86.203 36.1687 86.2178 36.2444 86.2448 36.3146C86.2718 36.3848 86.3105 36.4482 86.3586 36.501C86.4923 36.6048 86.6494 36.4518 86.7446 36.2651C86.8297 36.1118 86.8679 35.9296 86.853 35.748C86.8318 35.6262 86.7892 35.5107 86.7279 35.4088Z" fill="#FFA85B"/>
<path d="M88.0607 35.619C88.0769 35.4678 88.0663 35.3143 88.0296 35.1681C88.0235 34.9702 88.0687 34.7747 88.1593 34.6069C88.2493 34.4487 88.3175 34.2751 88.3614 34.0924C88.3799 34.0092 88.3766 33.9214 88.3517 33.8405C88.3236 33.7671 88.2555 33.7337 88.2164 33.7917L88.3 33.8543C88.1872 33.8309 88.0712 33.8374 87.9607 33.8733C87.8977 33.9013 87.8415 33.9465 87.7967 34.0051C87.752 34.0637 87.72 34.134 87.7036 34.2099C87.6898 34.3283 87.6672 34.4452 87.6362 34.5591C87.5863 34.6782 87.4897 34.7177 87.4291 34.8222C87.3877 34.9148 87.3668 35.0179 87.3683 35.1222C87.3698 35.2266 87.3936 35.3288 87.4376 35.4198C87.5138 35.5686 87.6349 35.6791 87.7774 35.73C87.8795 35.7726 88.014 35.7748 88.0607 35.619Z" fill="#FFA85B"/>
<path d="M90.434 36.4503C90.4709 36.5618 90.5204 36.6672 90.5811 36.7637C90.6947 36.8966 90.8491 36.8149 90.9869 36.7826C91.112 36.7597 91.2401 36.7765 91.3577 36.8312C91.4752 36.886 91.5778 36.9766 91.6545 37.0935C91.6011 36.784 91.4844 36.4939 91.3144 36.2475C91.1443 36.0012 90.9258 35.8058 90.6772 35.6779C90.3542 35.5481 90.0139 35.4863 89.6721 35.4954L89.6138 35.5128C89.7625 36.0154 90.2296 36.0042 90.434 36.4503Z" fill="#FFA85B"/>
<path d="M80.382 37.4785L80.3829 37.4807L80.3999 37.4427L80.382 37.4785Z" fill="#6C63FF"/>
<path d="M80.022 38.2876C79.9435 38.4531 79.8759 38.6254 79.82 38.8028C79.7459 39.0902 79.6969 39.3855 79.6736 39.6843C79.6553 39.8542 79.6497 40.0712 79.7413 40.154C79.7677 40.1743 79.7994 40.1827 79.8308 40.1778C79.8621 40.1728 79.8907 40.1548 79.9115 40.1271C79.9624 40.0646 80.0041 39.9927 80.0348 39.9143C80.215 39.554 80.3549 39.1685 80.4511 38.7672C80.5515 38.3414 80.5275 37.889 80.3829 37.4807C80.2626 37.7497 80.1423 38.0187 80.022 38.2876Z" fill="#FFA85B"/>
<path d="M76.5486 16.7305C76.6058 16.7954 76.6781 16.8394 76.7566 16.8572C76.8351 16.875 76.9163 16.8657 76.9904 16.8306C77.1436 16.7528 77.2842 16.6449 77.406 16.5118C77.5069 16.4251 77.5924 16.3168 77.658 16.1926C77.6941 16.1184 77.7173 16.0367 77.7261 15.9521C77.735 15.8675 77.7293 15.7817 77.7095 15.6996C77.6814 15.6209 77.6364 15.5519 77.5789 15.4991C77.5213 15.4463 77.4532 15.4113 77.3808 15.3976C77.1768 15.3274 76.9728 15.2571 76.7688 15.1869L76.9163 15.0325C76.7645 14.9379 76.5965 15.1135 76.5016 15.3308C76.4408 15.4728 76.3984 15.6244 76.3758 15.7808C76.3435 15.9441 76.3422 16.1137 76.3721 16.2777C76.4019 16.4417 76.4622 16.5962 76.5486 16.7305Z" fill="#FFA85B"/>
<path d="M80.1501 15.3266C80.2076 15.4002 80.2871 15.4457 80.3724 15.4537C80.4577 15.4618 80.5424 15.4319 80.6094 15.37C80.6671 15.3198 80.715 15.2559 80.75 15.1827C80.785 15.1095 80.8063 15.0286 80.8126 14.9452C80.827 14.7589 80.7477 14.5518 80.6344 14.5357L80.6603 14.3613C80.442 14.3155 80.1734 14.3064 80.0564 14.6141C80.017 14.732 80.0048 14.8599 80.0213 14.9849C80.0377 15.11 80.0822 15.2278 80.1501 15.3266Z" fill="#FFA85B"/>
<g opacity="0.35">
<path d="M114.685 30.3424C115.889 29.7325 113.446 29.3775 110.675 29.2608C107.903 29.1441 104.55 29.1505 102.778 28.8185C101.065 28.4974 101.192 27.9265 101.047 27.4092C100.903 26.892 100.245 26.3616 97.5717 26.2466C94.2406 26.1033 88.7475 26.6549 86.2329 26.3237C83.8864 26.0147 85.2812 25.0455 81.8595 25.0084C79.9056 24.9872 77.3884 25.3067 75.2143 25.3839C73.6732 25.4615 72.1293 25.368 70.6035 25.1047C69.5438 24.9032 68.8058 24.6476 67.6131 24.4696C64.482 24.0021 58.356 24.1592 52.8883 24.7583C47.4206 25.3574 42.7338 26.3393 40.0905 27.3117C37.4473 28.2842 36.7171 29.2416 37.3328 30.0535C37.7259 30.572 38.732 31.0568 41.1725 31.2651C45.7374 31.6548 53.8647 30.984 58.5817 31.3386C61.2107 31.5362 62.377 32.0261 64.6836 32.2941C67.1618 32.5821 70.7895 32.5974 74.3538 32.5906C81.775 32.5763 89.386 32.4878 97.147 32.3255C100.389 32.2576 103.785 32.1695 107.235 31.8463C110.684 31.5232 114.202 30.8996 114.93 30.3151" fill="white"/>
</g>
<path d="M93.7409 57.2777C92.0566 57.2777 90.2106 57.2038 88.2028 57.056C77.818 56.2903 64.3665 53.6283 50.3262 49.5606C36.2859 45.4928 23.3342 40.505 13.857 35.5162C9.24043 33.086 5.69721 30.7856 3.32592 28.6788C0.815327 26.4484 -0.28284 24.5043 0.0617918 22.9007C0.733291 19.7765 6.67915 19.093 11.5489 19.0698L11.5505 19.5241C4.86311 19.556 0.917873 20.7942 0.441524 23.0107C-0.165264 25.8337 4.78343 30.2409 14.0186 35.1024C23.475 40.0802 36.4028 45.0584 50.4209 49.1198C64.439 53.1811 77.8657 55.8385 88.2277 56.6026C98.347 57.3488 104.499 56.1577 105.106 53.3346C105.61 50.9907 102.289 47.5379 95.7547 43.612L95.9346 43.2085C100.682 46.0612 106.193 50.1526 105.486 53.4447C105.141 55.0483 103.385 56.1654 100.266 56.7648C98.4882 57.1064 96.3046 57.2777 93.7409 57.2777Z" fill="#F0C135"/>
<path d="M29.479 57.8693C24.8354 57.8694 20.5185 57.6844 16.6538 57.3111C11.6023 56.8231 7.59939 56.0385 4.75633 54.9794C1.74621 53.8579 0.14927 52.4552 0.00984906 50.8103C-0.261858 47.606 5.14058 44.6427 9.7205 42.7211L9.85349 43.1485C3.56409 45.7873 0.206534 48.4924 0.39926 50.7659C0.644726 53.6615 6.58109 55.882 16.6862 56.8583C27.0334 57.8579 40.6503 57.5037 55.0287 55.8603C69.4071 54.2173 82.8223 51.4825 92.803 48.1598C102.55 44.915 108 41.3932 107.754 38.4977C107.551 36.0936 103.424 34.1371 96.1333 32.9882L96.1859 32.538C101.483 33.3728 107.858 35.0765 108.144 38.4532C108.283 40.0981 106.953 41.8353 104.189 43.6166C101.578 45.299 97.7835 46.9746 92.9109 48.5966C82.9081 51.9266 69.4683 54.6667 55.0671 56.3125C46.0329 57.3448 37.2953 57.8693 29.479 57.8693Z" fill="#F0C135"/>
<path d="M57.1129 67.4658C58.3724 67.4658 59.3934 66.2804 59.3934 64.818C59.3934 63.3557 58.3724 62.1703 57.1129 62.1703C55.8534 62.1703 54.8324 63.3557 54.8324 64.818C54.8324 66.2804 55.8534 67.4658 57.1129 67.4658Z" fill="#F06D35"/>
<path d="M12.2058 51.8336C13.4653 51.8336 14.4863 50.6481 14.4863 49.1858C14.4863 47.7235 13.4653 46.5381 12.2058 46.5381C10.9464 46.5381 9.92535 47.7235 9.92535 49.1858C9.92535 50.6481 10.9464 51.8336 12.2058 51.8336Z" fill="#E6E6E6"/>
<path d="M54.0769 11.2487C54.8479 11.2487 55.4729 10.523 55.4729 9.62782C55.4729 8.73266 54.8479 8.00699 54.0769 8.00699C53.3059 8.00699 52.6809 8.73266 52.6809 9.62782C52.6809 10.523 53.3059 11.2487 54.0769 11.2487Z" fill="#FF6584"/>
<path d="M45.6305 23.4841C46.8899 23.4841 47.911 22.2987 47.911 20.8364C47.911 19.374 46.8899 18.1886 45.6305 18.1886C44.371 18.1886 43.35 19.374 43.35 20.8364C43.35 22.2987 44.371 23.4841 45.6305 23.4841Z" fill="#E6E6E6"/>
</g>
<defs>
<clipPath id="clip0_32_534">
<rect width="115" height="89" fill="white"/>
</clipPath>
</defs>
</svg>
