<svg width="180" height="130" viewBox="0 0 180 130" fill="none" xmlns="http://www.w3.org/2000/svg">
<g clip-path="url(#clip0_41_189)">
<path d="M17.7794 120.465C17.8571 123.497 18.3429 126.502 19.2225 129.392C19.242 129.459 19.2637 129.525 19.2847 129.592H24.6697C24.6641 129.532 24.6582 129.465 24.6526 129.392C24.2935 125.077 26.3447 99.1242 28.8199 94.6326C28.603 94.9969 17.3619 106.752 17.7794 120.465Z" fill="#E6E6E6"/>
<path d="M18.1835 129.392C18.2286 129.459 18.2754 129.526 18.3233 129.592H22.3633C22.3327 129.535 22.2972 129.468 22.256 129.392C21.5887 128.133 19.6134 124.368 17.7798 120.465C15.8102 116.27 14.0016 111.917 14.1539 110.341C14.1067 110.696 12.7431 121.53 18.1835 129.392Z" fill="#E6E6E6"/>
<path d="M83.6657 124.955C83.7052 126.495 83.952 128.022 84.3989 129.491C84.4088 129.525 84.4198 129.558 84.4305 129.592H87.1664C87.1636 129.562 87.1606 129.528 87.1577 129.491C86.9753 127.298 88.0174 114.113 89.275 111.831C89.1648 112.016 83.4536 117.988 83.6657 124.955Z" fill="#E6E6E6"/>
<path d="M83.871 129.491C83.8939 129.525 83.9177 129.559 83.9421 129.592H85.9946C85.9791 129.563 85.961 129.529 85.9401 129.491C85.6011 128.851 84.5975 126.938 83.6659 124.955C82.6652 122.824 81.7464 120.612 81.8237 119.812C81.7998 119.992 81.107 125.496 83.871 129.491Z" fill="#E6E6E6"/>
<path d="M67.4686 37.1396L60.5046 42.3184L64.8378 42.8037L70.8736 37.4638L67.4686 37.1396Z" fill="#3F3D56"/>
<path d="M40.2227 125.564L44.4113 125.563L46.4039 108.672L40.2219 108.673L40.2227 125.564Z" fill="#9F616A"/>
<path d="M39.1542 124.134L47.403 124.133H47.4034C48.7975 124.134 50.1345 124.713 51.1204 125.743C52.1062 126.774 52.6601 128.172 52.6602 129.629V129.808L39.1544 129.808L39.1542 124.134Z" fill="#2F2E41"/>
<path d="M37.5893 65.233C37.5893 65.233 35.774 67.3783 38.7799 75.7411L38.2504 121.596L47.9915 121.397L50.1327 99.0297L54.0311 66.3889L37.5893 65.233Z" fill="#2F2E41"/>
<path d="M27.8637 57.9943C27.2882 57.9927 26.736 57.7567 26.3242 57.3363C25.9124 56.916 25.6735 56.3444 25.6582 55.7429L25.201 37.7318L33.0229 22.2174C33.2005 21.8681 33.4604 21.5718 33.778 21.3567C34.0955 21.1415 34.4604 21.0146 34.8379 20.9879L40.7989 20.5878L40.2841 56.8932L28.0576 57.9857C27.9927 57.9915 27.9281 57.9944 27.8637 57.9943Z" fill="#F0A835"/>
<path d="M57.3721 71.5727L57.2654 71.5557C44.8039 69.5687 35.4002 67.6638 35.3067 67.6448L35.1899 67.6211L38.4566 59.3142C38.4308 58.4462 37.7236 34.0712 39.0773 27.0681C40.3877 20.2886 46.5647 19.1775 47.2686 19.073L47.9753 16.6247L56.9046 21.4824L58.462 27.0861L58.7783 42.4443L57.3721 71.5727Z" fill="#3F3D56"/>
<path d="M45.101 48.3215C39.3481 48.3215 34.6677 41.7818 34.6677 33.7435C34.6677 25.7051 39.3481 19.1655 45.101 19.1655C50.854 19.1655 55.5344 25.7051 55.5344 33.7435C55.5344 41.7818 50.854 48.3215 45.101 48.3215ZM45.101 20.5927C40.1008 20.5927 36.0328 26.4921 36.0328 33.7435C36.0328 40.9949 40.1008 46.8943 45.101 46.8943C50.1013 46.8943 54.1693 40.9949 54.1693 33.7435C54.1693 26.4921 50.1013 20.5927 45.101 20.5927Z" fill="#F0A835"/>
<path d="M62.75 39.9621C62.3479 39.962 61.9501 40.0489 61.5817 40.2174C61.2133 40.3858 60.8822 40.6322 60.6093 40.9409H45.6007L40.1031 42.1644L41.0057 49.4429L60.5622 45.0457C60.886 45.428 61.2962 45.7194 61.7554 45.8933C62.2146 46.0672 62.7082 46.1181 63.191 46.0413C63.6739 45.9645 64.1306 45.7625 64.5196 45.4537C64.9086 45.1449 65.2174 44.7391 65.4178 44.2735C65.6182 43.8078 65.7038 43.2971 65.6669 42.7879C65.63 42.2787 65.4716 41.7874 65.2063 41.3586C64.941 40.9299 64.5772 40.5775 64.1482 40.3335C63.7191 40.0896 63.2384 39.9619 62.75 39.9621Z" fill="#9F616A"/>
<path d="M61.648 15.5933C64.4728 12.64 64.4728 7.85171 61.648 4.8984C58.8232 1.9451 54.2433 1.9451 51.4185 4.89841C48.5937 7.85171 48.5937 12.64 51.4185 15.5933C54.2433 18.5466 58.8232 18.5466 61.648 15.5933Z" fill="#9F616A"/>
<path d="M49.7302 4.20007L49.3796 3.46218L51.144 2.54562C51.144 2.54562 53.0905 -0.765634 56.6128 0.164901C60.1351 1.09544 61.7198 1.65234 61.7198 1.65234L63.4798 2.57821L62.5965 3.49709L64.1812 4.05402L63.1225 4.60395L64.3543 5.34417L63.6912 9.13883C63.6912 9.13883 62.5898 6.26073 60.4724 7.36059C58.3551 8.46044 54.4821 6.79203 54.4821 6.79203L51.1173 13.6001C51.1173 13.6001 50.4232 11.2136 49.1856 11.8499C49.1856 11.8499 46.0237 6.58544 49.7302 4.20007Z" fill="#2F2E41"/>
<path d="M112.582 50.7576L112.272 44.6953L109.152 42.0447L107.344 47.6585L97.2343 61.756C96.7563 61.8361 96.3103 62.0576 95.9489 62.3944C95.5876 62.7312 95.3261 63.1692 95.1954 63.6565C95.0647 64.1438 95.0702 64.66 95.2113 65.1441C95.3525 65.6283 95.6233 66.06 95.9917 66.3882C96.3602 66.7165 96.8109 66.9275 97.2905 66.9964C97.7701 67.0652 98.2585 66.989 98.6979 66.7767C99.1374 66.5645 99.5095 66.225 99.7702 65.7986C100.031 65.3722 100.169 64.8766 100.169 64.3705C100.169 64.3348 100.165 64.3001 100.164 64.2648L112.582 50.7576Z" fill="#FFB7B7"/>
<path d="M118.59 127.162L116.199 127.162L115.062 117.521L118.59 117.521L118.59 127.162Z" fill="#FFB7B7"/>
<path d="M119.2 129.585L111.491 129.585V129.483C111.491 128.651 111.807 127.853 112.37 127.265C112.932 126.677 113.695 126.346 114.491 126.346L119.2 126.346L119.2 129.585Z" fill="#2F2E41"/>
<path d="M129.706 127.162L127.315 127.162L126.178 117.521L129.706 117.521L129.706 127.162Z" fill="#FFB7B7"/>
<path d="M130.316 129.585L122.607 129.585V129.483C122.607 128.651 122.923 127.853 123.485 127.265C124.048 126.677 124.811 126.346 125.607 126.346L130.316 126.346L130.316 129.585Z" fill="#2F2E41"/>
<path d="M127.179 25.4322C128.191 21.0626 129.049 16.1342 127.14 12.1097C125.815 9.31738 120.915 8.37704 118.106 9.38302C115.297 10.389 113.267 13.1183 112.373 16.0941C111.48 19.0699 111.584 22.2765 111.973 25.37C117.139 25.2663 122.305 25.1625 127.179 25.4322Z" fill="#2F2E41"/>
<path d="M121.351 24.6592C124.27 22.9908 125.343 19.1641 123.747 16.112C122.151 13.06 118.491 11.9383 115.572 13.6067C112.652 15.2751 111.58 19.1018 113.175 22.1539C114.771 25.206 118.431 26.3277 121.351 24.6592Z" fill="#FFB8B8"/>
<path d="M125.826 17.8356C125.845 16.7756 125.66 15.7224 125.282 14.7386C124.904 13.7547 124.341 12.8603 123.626 12.1085C122.911 11.3567 122.059 10.7629 121.12 10.3622C120.181 9.96156 119.175 9.7623 118.161 9.77628C117.147 9.79025 116.146 10.0172 115.217 10.4436C114.289 10.87 113.452 11.4871 112.756 12.2583C112.06 13.0296 111.52 13.9392 111.167 14.9331C110.814 15.927 110.656 16.9849 110.702 18.044C115.858 18.0555 121.014 18.0669 125.826 17.8356Z" fill="#2F2E41"/>
<path d="M108.788 57.0774C108.788 57.0774 107.807 71.9636 108.339 76.5046C108.871 81.0455 114.664 120.745 114.664 120.745L119.033 120.737L120.33 73.9536L125.497 121.191L130.015 120.7L132.578 74.493C132.578 74.493 132.177 57.1938 128.91 55.4592L108.788 57.0774Z" fill="#2F2E41"/>
<path d="M115.641 71.8336C112.432 71.8325 109.269 71.0318 106.415 69.4978L106.352 69.4644L108.767 52.7106L108.611 32.7431C108.606 32.195 108.707 31.6515 108.905 31.1444C109.104 30.6372 109.398 30.1765 109.768 29.7892C110.139 29.4018 110.58 29.0956 111.065 28.8883C111.551 28.681 112.071 28.5768 112.595 28.5819L125.554 28.7062C126.128 28.7117 126.694 28.8406 127.218 29.0849C127.742 29.3291 128.213 29.6835 128.6 30.126C128.988 30.5684 129.284 31.0895 129.47 31.6568C129.657 32.2241 129.73 32.8255 129.684 33.4235L128.472 49.4308L132.482 62.4233L131.785 63.3922C129.906 66.0131 127.469 68.1404 124.666 69.6056C121.864 71.0708 118.774 71.8336 115.641 71.8336Z" fill="#3F3D56"/>
<path d="M107.309 45.8082L108.667 31.3215L109.103 30.6722C109.402 30.2275 109.782 29.8489 110.221 29.5582C110.661 29.2675 111.15 29.0703 111.663 28.978C112.175 28.8857 112.7 28.9001 113.207 29.0204C113.714 29.1407 114.193 29.3645 114.617 29.679L114.991 29.9564L114.622 44.6375L107.309 45.8082Z" fill="#3F3D56"/>
<path d="M162.952 116.584C166.462 115.571 167.96 121.144 164.459 122.19C160.948 123.204 159.45 117.631 162.952 116.584Z" fill="#3F3D56"/>
<path d="M143.488 123.758C146.998 122.744 148.496 128.317 144.994 129.364C141.484 130.378 139.986 124.804 143.488 123.758Z" fill="#3F3D56"/>
<path d="M135.61 64.9754L135.664 64.9594L144.707 90.6253L145.899 90.2749L136.792 64.425C136.772 64.0266 136.623 63.6472 136.368 63.3499C136.114 63.0525 135.77 62.8551 135.393 62.7903C130.871 62.0427 129.038 66.2395 129.038 66.2395L129.056 66.2674L138.301 92.5077L139.493 92.1573L130.521 66.6892C133.252 63.8645 135.61 64.9754 135.61 64.9754Z" fill="#3F3D56"/>
<path d="M145.973 125.202C144.683 125.19 143.43 124.748 142.397 123.94C141.364 123.132 140.605 122 140.23 120.709C138.504 114.804 134.432 100.654 133.893 96.8138C133.19 91.814 137.149 90.3921 137.237 90.3617C137.343 90.3242 138.935 89.8585 141.137 89.214C144.882 88.1185 150.54 86.4629 150.748 86.3651C151.624 86.0465 152.555 85.9206 153.48 85.9953C154.405 86.07 155.306 86.3438 156.126 86.7994C156.97 87.2639 157.716 87.9032 158.317 88.6783C158.918 89.4534 159.362 90.3482 159.621 91.3082L165.446 112.972C165.805 114.3 165.704 115.718 165.161 116.976C164.618 118.234 163.667 119.251 162.477 119.848C157.983 122.105 151.392 125.116 146.062 125.201C146.033 125.201 146.003 125.202 145.973 125.202Z" fill="#F0A835"/>
<path d="M134.649 64.0876L131.721 46.2071L131.394 40.1726L126.661 41.7935L130.653 65.2069C130.492 65.6626 130.453 66.1558 130.542 66.6326C130.631 67.1094 130.844 67.5515 131.157 67.9105C131.47 68.2695 131.871 68.5316 132.317 68.6682C132.763 68.8047 133.237 68.8104 133.685 68.6847C134.134 68.559 134.541 68.3067 134.862 67.9553C135.183 67.604 135.405 67.1672 135.505 66.6926C135.604 66.2181 135.577 65.7241 135.426 65.2646C135.275 64.8052 135.006 64.398 134.649 64.0876Z" fill="#FFB7B7"/>
<path d="M132.522 45.0856L125.134 44.6654L123.398 30.0918L123.567 29.9386C123.983 29.5613 124.466 29.2737 124.989 29.0922C125.511 28.9107 126.063 28.8388 126.612 28.8808C127.162 28.9228 127.697 29.0778 128.189 29.3369C128.681 29.596 129.119 29.9541 129.478 30.3907L129.82 30.8062L129.825 30.8325L132.522 45.0856Z" fill="#3F3D56"/>
<path d="M162.606 116.274L155.055 89.554L137.299 94.8002L137.193 94.408L155.32 89.052L155.375 89.2453L162.98 116.159L162.606 116.274Z" fill="#3F3D56"/>
<path d="M28.4273 56.0786L27.6233 37.7489L35.8592 20.9171L36.2063 21.1028L28.0178 37.8382L28.817 56.0599L28.4273 56.0786Z" fill="#3F3D56"/>
<path d="M179.805 130H0.195016C0.143295 130 0.0936914 129.979 0.0571188 129.94C0.0205461 129.902 0 129.85 0 129.796C0 129.742 0.0205461 129.69 0.0571188 129.652C0.0936914 129.614 0.143295 129.592 0.195016 129.592H179.805C179.857 129.592 179.906 129.614 179.943 129.652C179.979 129.69 180 129.742 180 129.796C180 129.85 179.979 129.902 179.943 129.94C179.906 129.979 179.857 130 179.805 130Z" fill="#CCCCCC"/>
<path d="M41.1018 50.8073L39.3854 45.4696L38.9703 27.6765L39.7016 25.152C39.9648 24.2434 40.4008 23.3997 40.9834 22.6715C41.566 21.9432 42.2832 21.3454 43.092 20.9139C43.9009 20.4825 44.7848 20.2261 45.6906 20.1603C46.5965 20.0945 47.5058 20.2206 48.364 20.531C49.2221 20.8414 50.0115 21.3298 50.6848 21.9668C51.3581 22.6038 51.9015 23.3764 52.2824 24.2382C52.6633 25.1 52.8738 26.0334 52.9014 26.9823C52.929 27.9313 52.773 28.8763 52.4429 29.7607L48.5231 40.2621L48.7224 40.6664L57.2146 40.5946L60.2311 46.2714L41.1018 50.8073Z" fill="#3F3D56"/>
<path d="M95.2004 88.7917L95.1943 88.7929L85.782 90.763L77.6851 94.1721C77.5804 94.2161 77.4684 94.2382 77.3556 94.237C77.2428 94.2359 77.1312 94.2115 77.0274 94.1653C76.9236 94.119 76.8295 94.0519 76.7505 93.9677C76.6715 93.8834 76.6091 93.7837 76.567 93.6743C76.5571 93.6485 76.5483 93.6224 76.5407 93.5958L70.6256 72.8884C70.5635 72.6739 70.5806 72.4428 70.6736 72.2409C70.7667 72.0389 70.9288 71.8809 71.128 71.798L79.373 68.3266L79.379 68.3253L88.7914 66.3553L96.8883 62.9462C97.0997 62.8572 97.3362 62.8596 97.5459 62.953C97.7556 63.0463 97.9212 63.223 98.0064 63.444C98.0163 63.4697 98.025 63.4959 98.0326 63.5225L103.948 84.2298C104.01 84.4443 103.993 84.6754 103.9 84.8774C103.807 85.0793 103.645 85.2374 103.445 85.3203L95.2004 88.7917Z" fill="#E5E5E5"/>
<path d="M85.1002 74.8823C82.9418 74.086 80.7109 73.3884 78.4699 72.8089L78.3574 72.7799L79.4952 76.7629L85.2918 74.953L85.1002 74.8823ZM79.584 76.5909L78.5504 72.9724C80.6834 73.5275 82.8058 74.1897 84.8644 74.9422L79.584 76.5909ZM96.4104 80.2666C95.4056 79.6726 94.3865 79.1038 93.3529 78.5602C93.0679 78.4101 92.782 78.2622 92.4952 78.1164C90.745 77.2262 88.968 76.4147 87.1642 75.6818L87.1432 75.6732L79.8357 77.9548L81.8312 84.9409L96.5457 80.3466L96.4104 80.2666ZM81.9201 84.7689L80.0002 78.0477L87.1376 75.8192C88.877 76.5264 90.5965 77.3097 92.2961 78.1692C92.5912 78.3184 92.8852 78.4697 93.1781 78.6234C94.2018 79.1592 95.2124 79.7204 96.2099 80.3072L81.9201 84.7689ZM96.4104 80.2666C95.4056 79.6726 94.3865 79.1038 93.3529 78.5602C93.0679 78.4101 92.782 78.2622 92.4952 78.1164C90.745 77.2262 88.968 76.4147 87.1642 75.6818L87.1432 75.6732L79.8357 77.9548L81.8312 84.9409L96.5457 80.3466L96.4104 80.2666ZM81.9201 84.7689L80.0002 78.0477L87.1376 75.8192C88.877 76.5264 90.5965 77.3097 92.2961 78.1692C92.5912 78.3184 92.8852 78.4697 93.1781 78.6234C94.2018 79.1592 95.2124 79.7204 96.2099 80.3072L81.9201 84.7689ZM85.1002 74.8823C82.9418 74.086 80.7109 73.3884 78.4699 72.8089L78.3574 72.7799L79.4952 76.7629L85.2918 74.953L85.1002 74.8823ZM79.584 76.5909L78.5504 72.9724C80.6834 73.5275 82.8058 74.1897 84.8644 74.9422L79.584 76.5909ZM85.1002 74.8823C82.9418 74.086 80.7109 73.3884 78.4699 72.8089L78.3574 72.7799L79.4952 76.7629L85.2918 74.953L85.1002 74.8823ZM79.584 76.5909L78.5504 72.9724C80.6834 73.5275 82.8058 74.1897 84.8644 74.9422L79.584 76.5909ZM96.4104 80.2666C95.4056 79.6726 94.3865 79.1038 93.3529 78.5602C93.0679 78.4101 92.782 78.2622 92.4952 78.1164C90.745 77.2262 88.968 76.4147 87.1642 75.6818L87.1432 75.6732L79.8357 77.9548L81.8312 84.9409L96.5457 80.3466L96.4104 80.2666ZM81.9201 84.7689L80.0002 78.0477L87.1376 75.8192C88.877 76.5264 90.5965 77.3097 92.2961 78.1692C92.5912 78.3184 92.8852 78.4697 93.1781 78.6234C94.2018 79.1592 95.2124 79.7204 96.2099 80.3072L81.9201 84.7689ZM75.902 88.0904L75.9398 88.2229L80.9428 86.6608L81.4913 88.5811L76.4883 90.1432L76.5262 90.2756L81.6558 88.674L81.0316 86.4888L75.902 88.0904ZM83.1364 89.5099L83.5197 90.8519L83.6429 90.8001L83.3009 89.6028L102.809 83.5119L102.771 83.3794L83.1364 89.5099ZM101.844 80.1347L101.806 80.0023L82.1717 86.1328L82.7959 88.318L102.43 82.1875L102.393 82.0551L82.8848 88.146L82.3362 86.2257L101.844 80.1347ZM87.2621 74.1936C84.272 72.9924 81.2006 72.0258 78.0732 71.3017L77.6901 69.9608L77.567 70.0126L77.953 71.3639L78.0825 71.4456C81.1978 72.1688 84.2573 73.1333 87.2357 74.3309L87.2568 74.3395L99.1297 70.6324L99.0918 70.5L87.2621 74.1936ZM78.1906 77.026L73.1876 78.5881L73.2255 78.7205L78.3551 77.1189L76.4585 70.4791L76.3353 70.5309L78.1906 77.026ZM99.4701 71.8243L89.0325 75.0833L89.2025 75.1579C90.8034 75.8621 92.4001 76.6407 93.9926 77.4935C94.219 77.6147 94.4452 77.7375 94.6711 77.8619C95.7953 78.4792 96.9108 79.1307 98.0176 79.8167L98.1404 79.8486L101.466 78.8104L101.428 78.6779L98.1106 79.7137C97.0156 79.0343 95.9104 78.3877 94.795 77.7738C94.5719 77.6509 94.3485 77.5294 94.1248 77.4093C92.566 76.5722 90.9987 75.8043 89.4231 75.1056L99.508 71.9568L99.4701 71.8243ZM76.8666 91.4676L76.9045 91.6L81.9075 90.0379L82.2881 91.3702L82.4112 91.3184L81.9963 89.8659L76.8666 91.4676ZM73.5659 79.9124L73.6038 80.0449L78.6068 78.4828L80.5267 85.204L75.5237 86.766L75.5615 86.8985L80.6912 85.2968L78.6956 78.3108L73.5659 79.9124ZM85.1002 74.8823C82.9418 74.086 80.7109 73.3884 78.4699 72.8089L78.3574 72.7799L79.4952 76.7629L85.2918 74.953L85.1002 74.8823ZM79.584 76.5909L78.5504 72.9724C80.6834 73.5275 82.8058 74.1897 84.8644 74.9422L79.584 76.5909ZM96.4104 80.2666C95.4056 79.6726 94.3865 79.1038 93.3529 78.5602C93.0679 78.4101 92.782 78.2622 92.4952 78.1164C90.745 77.2262 88.968 76.4147 87.1642 75.6818L87.1432 75.6732L79.8357 77.9548L81.8312 84.9409L96.5457 80.3466L96.4104 80.2666ZM81.9201 84.7689L80.0002 78.0477L87.1376 75.8192C88.877 76.5264 90.5965 77.3097 92.2961 78.1692C92.5912 78.3184 92.8852 78.4697 93.1781 78.6234C94.2018 79.1592 95.2124 79.7204 96.2099 80.3072L81.9201 84.7689ZM85.1002 74.8823C82.9418 74.086 80.7109 73.3884 78.4699 72.8089L78.3574 72.7799L79.4952 76.7629L85.2918 74.953L85.1002 74.8823ZM79.584 76.5909L78.5504 72.9724C80.6834 73.5275 82.8058 74.1897 84.8644 74.9422L79.584 76.5909ZM96.4104 80.2666C95.4056 79.6726 94.3865 79.1038 93.3529 78.5602C93.0679 78.4101 92.782 78.2622 92.4952 78.1164C90.745 77.2262 88.968 76.4147 87.1642 75.6818L87.1432 75.6732L79.8357 77.9548L81.8312 84.9409L96.5457 80.3466L96.4104 80.2666ZM81.9201 84.7689L80.0002 78.0477L87.1376 75.8192C88.877 76.5264 90.5965 77.3097 92.2961 78.1692C92.5912 78.3184 92.8852 78.4697 93.1781 78.6234C94.2018 79.1592 95.2124 79.7204 96.2099 80.3072L81.9201 84.7689Z" fill="white"/>
<path d="M86.7808 75.5061C87.2598 77.1831 85.4226 81.826 85.4226 81.826C85.4226 81.826 81.451 78.9968 80.9719 77.3198C80.7419 76.5144 80.8272 75.6465 81.2093 74.907C81.5913 74.1675 82.2386 73.6169 83.009 73.3764C83.7793 73.1358 84.6094 73.2251 85.3168 73.6245C86.0241 74.0239 86.5507 74.7007 86.7808 75.5061Z" fill="#F0A835"/>
<path d="M85.1664 75.8663C85.2449 76.1409 85.2437 76.4336 85.163 76.7074C85.0823 76.9812 84.9258 77.2239 84.7132 77.4047C84.5005 77.5856 84.2414 77.6964 83.9686 77.7233C83.6957 77.7501 83.4214 77.6918 83.1802 77.5556C82.9391 77.4195 82.742 77.2116 82.6138 76.9583C82.4857 76.705 82.4322 76.4177 82.4603 76.1327C82.4883 75.8477 82.5966 75.5777 82.7713 75.357C82.9461 75.1363 83.1796 74.9747 83.4422 74.8927C83.6165 74.8382 83.7995 74.8201 83.9805 74.8396C84.1616 74.859 84.3372 74.9155 84.4973 75.0059C84.6574 75.0964 84.799 75.2189 84.9138 75.3665C85.0286 75.5141 85.1144 75.684 85.1664 75.8663Z" fill="white"/>
<path d="M85.8148 84.0533C86.2661 84.0533 86.6319 83.6708 86.6319 83.199C86.6319 82.7272 86.2661 82.3448 85.8148 82.3448C85.3635 82.3448 84.9977 82.7272 84.9977 83.199C84.9977 83.6708 85.3635 84.0533 85.8148 84.0533Z" fill="#F0A835"/>
<path d="M94.7307 71.9668L89.0521 73.7399C89.045 73.7422 89.0377 73.7438 89.0303 73.7448L90.3268 68.0424C90.3345 68.007 90.3511 67.9744 90.3748 67.9479C90.3986 67.9214 90.4286 67.9019 90.4619 67.8915C90.4952 67.8811 90.5305 67.8802 90.5643 67.8887C90.5981 67.8973 90.6291 67.915 90.6541 67.9402L93.3889 70.6414L93.5199 70.7706L94.7307 71.9668Z" fill="white"/>
<path opacity="0.2" d="M94.7307 71.9668L92.7919 72.5721L93.3309 70.8297L93.3695 70.7041L93.389 70.6413L93.5199 70.7706L94.7307 71.9668Z" fill="black"/>
<path d="M97.8926 70.9796L92.981 72.5131L93.5199 70.7706L93.5587 70.6451L94.2609 68.3742C94.2746 68.3386 94.2953 68.3064 94.3217 68.2797C94.3481 68.253 94.3795 68.2324 94.414 68.2192C94.4486 68.2061 94.4853 68.2006 94.5219 68.2033C94.5586 68.2059 94.5943 68.2166 94.6267 68.2346C94.6352 68.24 94.6434 68.2459 94.6512 68.2524L97.8926 70.9796Z" fill="white"/>
</g>
<defs>
<clipPath id="clip0_41_189">
<rect width="180" height="130" fill="white"/>
</clipPath>
</defs>
</svg>
