<svg width="180" height="130" viewBox="0 0 180 130" fill="none" xmlns="http://www.w3.org/2000/svg">
<g clip-path="url(#clip0_41_67)">
<g opacity="0.1">
<path d="M132.342 128.083C134.263 128.083 135.82 125.547 135.82 122.42C135.82 119.293 134.263 116.758 132.342 116.758C130.42 116.758 128.863 119.293 128.863 122.42C128.863 125.547 130.42 128.083 132.342 128.083Z" fill="#3F3D56"/>
<path d="M135.094 98.1958C135.582 97.1438 135.835 95.949 135.827 94.7349C135.827 91.6011 134.269 89.0725 132.348 89.0725C130.427 89.0725 128.871 91.607 128.871 94.7349C128.861 95.9483 129.112 97.143 129.597 98.1958C129.121 99.2529 128.871 100.444 128.871 101.656C128.871 102.867 129.121 104.059 129.597 105.116C129.121 106.173 128.871 107.365 128.871 108.577C128.871 109.788 129.121 110.98 129.597 112.037C129.112 113.09 128.861 114.285 128.871 115.498C128.871 118.632 130.428 121.161 132.348 121.161C134.268 121.161 135.827 118.626 135.827 115.498C135.837 114.285 135.586 113.09 135.101 112.037C135.577 110.98 135.827 109.788 135.827 108.577C135.827 107.365 135.577 106.173 135.101 105.116C135.577 104.059 135.827 102.867 135.827 101.656C135.827 100.444 135.577 99.2529 135.101 98.1958H135.094Z" fill="#3F3D56"/>
<path d="M132.342 93.4775C134.263 93.4775 135.82 90.9423 135.82 87.8151C135.82 84.6878 134.263 82.1527 132.342 82.1527C130.42 82.1527 128.863 84.6878 128.863 87.8151C128.863 90.9423 130.42 93.4775 132.342 93.4775Z" fill="#3F3D56"/>
<path d="M132.342 86.5557C134.263 86.5557 135.82 84.0205 135.82 80.8933C135.82 77.766 134.263 75.2309 132.342 75.2309C130.42 75.2309 128.863 77.766 128.863 80.8933C128.863 84.0205 130.42 86.5557 132.342 86.5557Z" fill="#3F3D56"/>
<path d="M145.362 33.5296C145.837 32.7769 146.269 31.9843 146.657 31.1577L137.523 29.2911L147.408 29.3832C148.355 26.8172 148.872 24.0378 148.926 21.215C148.98 18.3922 148.571 15.5853 147.723 12.966L134.46 21.5174L146.693 10.3414C145.547 7.88078 144.005 5.73996 142.165 4.05221C140.324 2.36447 138.224 1.16593 135.995 0.5312C133.767 -0.103529 131.456 -0.160861 129.209 0.362775C126.962 0.88641 124.825 1.9798 122.932 3.57489C121.039 5.16998 119.43 7.23263 118.205 9.63443C116.981 12.0362 116.167 14.7258 115.815 17.5357C115.462 20.3455 115.578 23.2156 116.156 25.9672C116.734 28.7188 117.761 31.293 119.173 33.5296C118.433 34.7006 117.796 35.9673 117.274 37.3078L129.137 44.9739L116.488 39.6856C115.598 42.9498 115.377 46.4386 115.844 49.836C116.312 53.2335 117.453 56.4322 119.165 59.1426C117.232 62.1989 116.03 65.87 115.696 69.7362C115.361 73.6024 115.908 77.5076 117.274 81.0054C118.64 84.5031 120.77 87.4522 123.42 89.5155C126.07 91.5788 129.133 92.673 132.26 92.673C135.386 92.673 138.45 91.5788 141.1 89.5155C143.75 87.4522 145.88 84.5031 147.246 81.0054C148.611 77.5076 149.159 73.6024 148.824 69.7362C148.49 65.87 147.287 62.1989 145.354 59.1426C147.664 55.4905 148.92 50.9788 148.92 46.3322C148.92 41.6856 147.664 37.1739 145.354 33.5218L145.362 33.5296Z" fill="#F0A835"/>
<path opacity="0.1" d="M115.608 46.3411C115.602 50.9886 116.858 55.5022 119.173 59.1506C117.24 62.2069 116.038 65.878 115.703 69.7442C115.369 73.6104 115.916 77.5156 117.282 81.0133C118.648 84.5111 120.778 87.4602 123.428 89.5235C126.078 91.5868 129.141 92.681 132.268 92.681C135.394 92.681 138.457 91.5868 141.107 89.5235C143.758 87.4602 145.887 84.5111 147.253 81.0133C148.619 77.5156 149.166 73.6104 148.832 69.7442C148.497 65.878 147.295 62.2069 145.362 59.1506C147.595 55.625 115.608 44.0143 115.608 46.3411Z" fill="black"/>
</g>
<g opacity="0.1">
<path d="M34.7732 122.026C35.9422 122.026 36.8898 120.483 36.8898 118.579C36.8898 116.675 35.9422 115.132 34.7732 115.132C33.6043 115.132 32.6567 116.675 32.6567 118.579C32.6567 120.483 33.6043 122.026 34.7732 122.026Z" fill="#3F3D56"/>
<path d="M36.4567 103.833C36.7521 103.192 36.9049 102.464 36.8992 101.725C36.8992 99.8215 35.9543 98.2781 34.7811 98.2781C33.6079 98.2781 32.6646 99.8215 32.6646 101.725C32.6584 102.464 32.8106 103.191 33.1055 103.833C32.8164 104.477 32.6647 105.202 32.6647 105.939C32.6647 106.677 32.8164 107.402 33.1055 108.046C32.8164 108.69 32.6647 109.415 32.6647 110.152C32.6647 110.89 32.8164 111.615 33.1055 112.259C32.8104 112.899 32.6582 113.626 32.6646 114.364C32.6646 116.27 33.6094 117.813 34.7811 117.813C35.9528 117.813 36.8992 116.27 36.8992 114.364C36.9051 113.626 36.7524 112.899 36.4567 112.259C36.7466 111.615 36.8989 110.89 36.8989 110.152C36.8989 109.415 36.7466 108.689 36.4567 108.046C36.7466 107.402 36.8989 106.677 36.8989 105.939C36.8989 105.202 36.7466 104.476 36.4567 103.833Z" fill="#3F3D56"/>
<path d="M34.7732 100.959C35.9422 100.959 36.8898 99.4161 36.8898 97.5122C36.8898 95.6084 35.9422 94.0651 34.7732 94.0651C33.6043 94.0651 32.6567 95.6084 32.6567 97.5122C32.6567 99.4161 33.6043 100.959 34.7732 100.959Z" fill="#3F3D56"/>
<path d="M34.7732 96.7464C35.9422 96.7464 36.8898 95.2031 36.8898 93.2992C36.8898 91.3954 35.9422 89.8521 34.7732 89.8521C33.6043 89.8521 32.6567 91.3954 32.6567 93.2992C32.6567 95.2031 33.6043 96.7464 34.7732 96.7464Z" fill="#3F3D56"/>
<path d="M26.8504 64.4643C26.5613 64.0064 26.2982 63.5241 26.063 63.0208L31.6268 61.8848L25.6094 61.9416C25.0334 60.3803 24.7191 58.6893 24.6858 56.9719C24.6525 55.2545 24.9009 53.5467 25.4157 51.9526L33.4835 57.1645L26.0394 50.3485C26.7376 48.8515 27.676 47.5493 28.7962 46.5228C29.9165 45.4962 31.1945 44.7674 32.551 44.3816C33.9074 43.9958 35.3132 43.9613 36.6808 44.2802C38.0484 44.5991 39.3486 45.2646 40.5006 46.2353C41.6525 47.206 42.6315 48.4612 43.3767 49.9227C44.1219 51.3842 44.6173 53.0208 44.8321 54.7306C45.0469 56.4405 44.9765 58.187 44.6253 59.8615C44.274 61.5361 43.6495 63.1028 42.7906 64.4643C43.2411 65.1762 43.6287 65.9465 43.9465 66.7618L36.7244 71.4312L44.4252 68.217C44.966 70.2049 45.0998 72.3291 44.8144 74.3975C44.5289 76.4658 43.8334 78.413 42.7906 80.0628C43.9671 81.9234 44.699 84.1582 44.9025 86.5117C45.106 88.8652 44.7729 91.2425 43.9414 93.3716C43.1098 95.5008 41.8133 97.296 40.2001 98.552C38.5869 99.808 36.7221 100.474 34.8189 100.474C32.9157 100.474 31.0509 99.808 29.4377 98.552C27.8245 97.296 26.528 95.5008 25.6964 93.3716C24.8649 91.2425 24.5318 88.8652 24.7353 86.5117C24.9388 84.1582 25.6707 81.9234 26.8472 80.0628C25.4413 77.8391 24.677 75.0924 24.677 72.2636C24.677 69.4347 25.4413 66.688 26.8472 64.4643H26.8504Z" fill="#F0A835"/>
<path opacity="0.1" d="M44.9606 72.2636C44.964 75.0931 44.1994 77.8411 42.7906 80.0628C43.9671 81.9234 44.699 84.1582 44.9025 86.5117C45.106 88.8652 44.7729 91.2425 43.9414 93.3716C43.1098 95.5008 41.8133 97.296 40.2001 98.552C38.5869 99.808 36.7221 100.474 34.8189 100.474C32.9157 100.474 31.0509 99.808 29.4377 98.552C27.8245 97.296 26.528 95.5008 25.6964 93.3716C24.8649 91.2425 24.5318 88.8652 24.7353 86.5117C24.9388 84.1582 25.6707 81.9234 26.8473 80.0628C25.4882 77.926 44.9606 70.8475 44.9606 72.2636Z" fill="black"/>
</g>
<g opacity="0.1">
<path d="M82.4898 125.027C84.0544 125.027 85.3228 122.962 85.3228 120.414C85.3228 117.867 84.0544 115.802 82.4898 115.802C80.9251 115.802 79.6567 117.867 79.6567 120.414C79.6567 122.962 80.9251 125.027 82.4898 125.027Z" fill="#3F3D56"/>
<path d="M84.7323 100.679C85.1271 99.8211 85.331 98.8476 85.3228 97.8589C85.3228 95.3127 84.063 93.2463 82.4882 93.2463C80.9134 93.2463 79.6535 95.3127 79.6535 97.8589C79.6452 98.8479 79.8497 99.8217 80.2457 100.679C79.8575 101.541 79.6537 102.511 79.6537 103.499C79.6537 104.486 79.8575 105.457 80.2457 106.318C79.8575 107.179 79.6536 108.15 79.6536 109.137C79.6536 110.124 79.8575 111.094 80.2457 111.955C79.8497 112.813 79.6452 113.787 79.6535 114.776C79.6535 117.322 80.9228 119.388 82.4882 119.388C84.0535 119.388 85.3228 117.322 85.3228 114.776C85.331 113.787 85.1271 112.813 84.7323 111.955C85.1196 111.094 85.3229 110.124 85.3229 109.137C85.3229 108.15 85.1196 107.18 84.7323 106.318C85.1196 105.457 85.3229 104.486 85.3229 103.499C85.3229 102.512 85.1196 101.541 84.7323 100.679Z" fill="#3F3D56"/>
<path d="M82.4898 96.8345C84.0544 96.8345 85.3228 94.7694 85.3228 92.222C85.3228 89.6745 84.0544 87.6094 82.4898 87.6094C80.9251 87.6094 79.6567 89.6745 79.6567 92.222C79.6567 94.7694 80.9251 96.8345 82.4898 96.8345Z" fill="#3F3D56"/>
<path d="M82.4898 91.1957C84.0544 91.1957 85.3228 89.1306 85.3228 86.5831C85.3228 84.0357 84.0544 81.9705 82.4898 81.9705C80.9251 81.9705 79.6567 84.0357 79.6567 86.5831C79.6567 89.1306 80.9251 91.1957 82.4898 91.1957Z" fill="#3F3D56"/>
<path d="M71.8898 47.9981C71.5025 47.3856 71.15 46.7403 70.8346 46.0669L78.2787 44.547L70.2283 44.6215C69.4559 42.5312 69.0344 40.2669 68.9898 37.967C68.9451 35.6672 69.2781 33.3802 69.9685 31.246L80.7717 38.2148L70.8079 29.1072C71.7388 27.0952 72.9933 25.3436 74.493 23.9618C75.9928 22.5801 77.7055 21.5979 79.5242 21.0766C81.343 20.5553 83.2286 20.5061 85.0633 20.9321C86.8981 21.3581 88.6424 22.2502 90.1874 23.5525C91.7324 24.8548 93.0449 26.5395 94.0428 28.5012C95.0406 30.4628 95.7025 32.6594 95.987 34.9536C96.2715 37.2478 96.1725 39.5903 95.6962 41.8347C95.2199 44.0792 94.3766 46.1774 93.2189 47.9981C93.8217 48.9525 94.3402 49.9847 94.7654 51.0771L85.1024 57.3212L95.4063 53.0122C96.1301 55.6722 96.3092 58.5147 95.9272 61.2825C95.5453 64.0502 94.6144 66.6558 93.2189 68.8634C94.7933 71.3532 95.7727 74.3438 96.045 77.4933C96.3173 80.6427 95.8716 83.8239 94.7588 86.6732C93.646 89.5224 91.9111 91.9248 89.7523 93.6055C87.5935 95.2862 85.098 96.1775 82.5512 96.1775C80.0043 96.1775 77.5088 95.2862 75.3501 93.6055C73.1913 91.9248 71.4563 89.5224 70.3435 86.6732C69.2307 83.8239 68.785 80.6427 69.0573 77.4933C69.3296 74.3438 70.309 71.3532 71.8835 68.8634C70.0023 65.8877 68.9796 62.2122 68.9796 58.4268C68.9796 54.6415 70.0023 50.966 71.8835 47.9903L71.8898 47.9981Z" fill="#F0A835"/>
<path opacity="0.1" d="M96.1228 58.4357C96.1275 62.2217 95.1043 65.8988 93.2189 68.8712C94.7933 71.3611 95.7727 74.3517 96.045 77.5011C96.3173 80.6506 95.8716 83.8318 94.7588 86.681C93.646 89.5303 91.9111 91.9326 89.7523 93.6133C87.5935 95.2941 85.098 96.1854 82.5512 96.1854C80.0043 96.1854 77.5088 95.2941 75.3501 93.6133C73.1913 91.9326 71.4563 89.5303 70.3435 86.681C69.2307 83.8318 68.785 80.6506 69.0573 77.5011C69.3296 74.3517 70.309 71.3611 71.8835 68.8712C70.0646 65.9999 96.1228 56.5397 96.1228 58.4357Z" fill="black"/>
</g>
<path d="M180 124.612C180 125.957 172.091 127.187 159.016 128.137C156.638 128.308 154.09 128.47 151.387 128.623C149.053 128.754 146.605 128.877 144.046 128.993C141.566 129.103 138.991 129.205 136.321 129.299C127.89 129.598 118.569 129.814 108.666 129.922C106.263 129.949 103.828 129.97 101.361 129.984C98.7906 129.999 96.1911 130.005 93.5622 130.004C45.8236 130.004 7.12598 127.593 7.12598 124.618C7.12598 121.643 45.8236 119.231 93.5622 119.231C114.115 119.231 132.989 119.68 147.824 120.424L149.446 120.507H149.455C168.142 121.492 180 122.974 180 124.612Z" fill="#3F3D56"/>
<path opacity="0.15" d="M180 124.612C180 125.957 172.091 127.187 159.016 128.137C156.638 128.308 154.09 128.47 151.387 128.623C149.053 128.754 146.605 128.877 144.046 128.993C141.566 129.103 138.991 129.205 136.321 129.299C127.89 129.598 118.569 129.814 108.666 129.922C106.263 129.949 103.828 129.97 101.361 129.984C98.7906 129.999 96.1911 130.005 93.5622 130.004C45.8236 130.004 7.12598 127.593 7.12598 124.618C7.12598 121.643 45.8236 119.231 93.5622 119.231C114.115 119.231 132.989 119.68 147.824 120.424L149.446 120.507H149.455C168.142 121.492 180 122.974 180 124.612Z" fill="black"/>
<path d="M172.874 123.664C172.874 124.788 164.965 125.818 151.89 126.602C149.513 126.745 146.964 126.88 144.263 127.007C141.927 127.117 139.48 127.22 136.921 127.317C134.441 127.408 131.867 127.494 129.197 127.573C120.764 127.824 111.443 128.004 101.54 128.094C99.1391 128.116 96.7039 128.133 94.2347 128.145C91.6646 128.157 89.0656 128.163 86.4378 128.163C38.6992 128.163 0 126.147 0 123.658C0 121.169 38.6992 119.153 86.4378 119.153C106.989 119.153 125.863 119.527 140.698 120.15L142.32 120.219H142.331C161.024 121.055 172.874 122.287 172.874 123.664Z" fill="#3F3D56"/>
<path d="M22.3244 82.7422L20.1543 74.4788L72.1228 73.7717L74.252 81.9529L22.3244 82.7422Z" fill="#3F3D56"/>
<path opacity="0.15" d="M22.3244 82.7422L20.1543 74.4788L72.1228 73.7717L74.252 81.9529L22.3244 82.7422Z" fill="black"/>
<path d="M18.8598 82.7422L16.6898 74.4788L68.6583 73.7717L70.7874 81.9529L18.8598 82.7422Z" fill="#3F3D56"/>
<path d="M107.576 70.0444C102.203 70.0444 97.9685 67.3918 94.8724 62.0865C91.7764 56.7813 90.2283 50.3544 90.2283 42.8058C90.2283 35.2063 91.7254 28.7925 94.7197 23.5642C97.7139 18.336 101.938 15.7245 107.391 15.7297C113.173 15.7297 117.53 18.4842 120.461 23.9932C123.393 29.5022 124.859 35.8781 124.86 43.1211C124.86 50.3119 123.343 56.5978 120.309 61.9788C117.275 67.3598 113.03 70.0484 107.576 70.0444ZM107.734 64.0765C111.269 64.0765 113.911 62.1603 115.66 58.3279C117.409 54.4956 118.283 49.6643 118.283 43.8341C118.283 37.3445 117.388 32.0307 115.598 27.8928C113.808 23.7549 111.063 21.6853 107.362 21.684C100.328 21.684 96.811 28.6332 96.811 42.5316C96.811 56.8962 100.451 64.0778 107.731 64.0765H107.734ZM109.504 121.227H101.732L152.611 16.7933H160.236L109.504 121.227ZM154.515 122.299C149.061 122.299 144.809 119.622 141.759 114.268C138.709 108.915 137.178 102.487 137.165 94.9856C137.165 87.4371 138.652 81.0487 141.625 75.8204C144.598 70.5922 148.833 67.9807 154.328 67.9859C160.069 67.9859 164.396 70.7404 167.307 76.2494C170.218 81.7583 171.675 88.1337 171.676 95.3754C171.676 102.519 170.169 108.793 167.154 114.198C164.14 119.602 159.926 122.303 154.512 122.299H154.515ZM154.606 116.178C158.124 116.178 160.752 114.294 162.49 110.527C164.227 106.76 165.096 101.949 165.096 96.0922C165.096 89.8246 164.217 84.5683 162.458 80.3233C160.7 76.0783 157.96 73.9526 154.239 73.946C147.164 73.946 143.627 80.8952 143.627 94.7937C143.625 109.051 147.283 116.179 154.603 116.178H154.606Z" fill="#3F3D56"/>
<path d="M107.576 70.0444C102.203 70.0444 97.9685 67.3918 94.8724 62.0865C91.7764 56.7813 90.2283 50.3544 90.2283 42.8058C90.2283 35.2063 91.7254 28.7925 94.7197 23.5642C97.7139 18.336 101.938 15.7245 107.391 15.7297C113.173 15.7297 117.53 18.4842 120.461 23.9932C123.393 29.5022 124.859 35.8781 124.86 43.1211C124.86 50.3119 123.343 56.5978 120.309 61.9788C117.275 67.3598 113.03 70.0484 107.576 70.0444ZM107.734 64.0765C111.269 64.0765 113.911 62.1603 115.66 58.3279C117.409 54.4956 118.283 49.6643 118.283 43.8341C118.283 37.3445 117.388 32.0307 115.598 27.8928C113.808 23.7549 111.063 21.6853 107.362 21.684C100.328 21.684 96.811 28.6332 96.811 42.5316C96.811 56.8962 100.451 64.0778 107.731 64.0765H107.734ZM109.504 121.227H101.732L152.611 16.7933H160.236L109.504 121.227ZM154.515 122.299C149.061 122.299 144.809 119.622 141.759 114.268C138.709 108.915 137.178 102.487 137.165 94.9856C137.165 87.4371 138.652 81.0487 141.625 75.8204C144.598 70.5922 148.833 67.9807 154.328 67.9859C160.069 67.9859 164.396 70.7404 167.307 76.2494C170.218 81.7583 171.675 88.1337 171.676 95.3754C171.676 102.519 170.169 108.793 167.154 114.198C164.14 119.602 159.926 122.303 154.512 122.299H154.515ZM154.606 116.178C158.124 116.178 160.752 114.294 162.49 110.527C164.227 106.76 165.096 101.949 165.096 96.0922C165.096 89.8246 164.217 84.5683 162.458 80.3233C160.7 76.0783 157.96 73.9526 154.239 73.946C147.164 73.946 143.627 80.8952 143.627 94.7937C143.625 109.051 147.283 116.179 154.603 116.178H154.606Z" fill="#3F3D56"/>
<path opacity="0.15" d="M107.576 70.0444C102.203 70.0444 97.9685 67.3918 94.8724 62.0865C91.7764 56.7813 90.2283 50.3544 90.2283 42.8058C90.2283 35.2063 91.7254 28.7925 94.7197 23.5642C97.7139 18.336 101.938 15.7245 107.391 15.7297C113.173 15.7297 117.53 18.4842 120.461 23.9932C123.393 29.5022 124.859 35.8781 124.86 43.1211C124.86 50.3119 123.343 56.5978 120.309 61.9788C117.275 67.3598 113.03 70.0484 107.576 70.0444ZM107.734 64.0765C111.269 64.0765 113.911 62.1603 115.66 58.3279C117.409 54.4956 118.283 49.6643 118.283 43.8341C118.283 37.3445 117.388 32.0307 115.598 27.8928C113.808 23.7549 111.063 21.6853 107.362 21.684C100.328 21.684 96.811 28.6332 96.811 42.5316C96.811 56.8962 100.451 64.0778 107.731 64.0765H107.734ZM109.504 121.227H101.732L152.611 16.7933H160.236L109.504 121.227ZM154.515 122.299C149.061 122.299 144.809 119.622 141.759 114.268C138.709 108.915 137.178 102.487 137.165 94.9856C137.165 87.4371 138.652 81.0487 141.625 75.8204C144.598 70.5922 148.833 67.9807 154.328 67.9859C160.069 67.9859 164.396 70.7404 167.307 76.2494C170.218 81.7583 171.675 88.1337 171.676 95.3754C171.676 102.519 170.169 108.793 167.154 114.198C164.14 119.602 159.926 122.303 154.512 122.299H154.515ZM154.606 116.178C158.124 116.178 160.752 114.294 162.49 110.527C164.227 106.76 165.096 101.949 165.096 96.0922C165.096 89.8246 164.217 84.5683 162.458 80.3233C160.7 76.0783 157.96 73.9526 154.239 73.946C147.164 73.946 143.627 80.8952 143.627 94.7937C143.625 109.051 147.283 116.179 154.603 116.178H154.606Z" fill="black"/>
<path d="M102.694 70.0444C97.3213 70.0444 93.0866 67.3918 89.9906 62.0865C86.8945 56.7813 85.3465 50.3544 85.3465 42.8058C85.3465 35.2063 86.8436 28.7925 89.8378 23.5642C92.832 18.336 97.0556 15.7245 102.509 15.7297C108.291 15.7297 112.648 18.4842 115.58 23.9932C118.511 29.5022 119.977 35.8781 119.978 43.1211C119.978 50.3119 118.461 56.5978 115.427 61.9788C112.393 67.3598 108.149 70.0484 102.694 70.0444ZM102.852 64.0765C106.387 64.0765 109.029 62.1603 110.778 58.3279C112.527 54.4956 113.402 49.6643 113.402 43.8341C113.402 37.3445 112.507 32.0307 110.717 27.8928C108.927 23.7549 106.181 21.6853 102.48 21.684C95.4462 21.684 91.9291 28.6332 91.9291 42.5316C91.9291 56.8962 95.569 64.0778 102.849 64.0765H102.852ZM104.622 121.227H96.8504L147.729 16.7933H155.354L104.622 121.227ZM149.633 122.299C144.179 122.299 139.927 119.622 136.877 114.268C133.827 108.915 132.296 102.487 132.283 94.9856C132.283 87.4371 133.77 81.0487 136.743 75.8204C139.717 70.5922 143.951 67.9807 149.446 67.9859C155.187 67.9859 159.514 70.7404 162.425 76.2494C165.336 81.7583 166.793 88.1337 166.794 95.3754C166.794 102.519 165.287 108.793 162.272 114.198C159.258 119.602 155.044 122.303 149.63 122.299H149.633ZM149.724 116.178C153.243 116.178 155.87 114.294 157.608 110.527C159.345 106.76 160.214 101.949 160.214 96.0922C160.214 89.8246 159.335 84.5683 157.576 80.3233C155.818 76.0783 153.077 73.9526 149.354 73.946C142.279 73.946 138.742 80.8952 138.742 94.7937C138.742 109.051 142.402 116.179 149.721 116.178H149.724Z" fill="#3F3D56"/>
<path d="M119.696 123.848C120.345 122.352 119.608 120.518 118.761 119.182C117.913 117.847 116.88 116.46 116.902 114.758C116.934 112.316 119.019 110.872 120.682 109.575C121.919 108.614 123.059 107.474 124.08 106.179C124.508 105.68 124.861 105.091 125.124 104.44C125.469 103.484 125.458 102.397 125.439 101.351C125.367 97.8622 125.228 94.3784 125.024 90.8999" stroke="#3F3D56" stroke-width="4" stroke-miterlimit="10"/>
<path d="M128.192 90.708C128.168 90.0698 128.016 89.4492 127.749 88.9036C127.481 88.358 127.108 87.9048 126.663 87.5859L125.976 89.2742L125.997 87.2294C125.669 87.1104 125.328 87.0595 124.987 87.0786C124.382 87.1139 123.799 87.3717 123.311 87.8194C122.823 88.2671 122.453 88.8845 122.248 89.5937C122.042 90.3029 122.011 91.0719 122.156 91.8036C122.302 92.5352 122.619 93.1966 123.068 93.7041C123.516 94.2117 124.075 94.5425 124.674 94.6549C125.274 94.7672 125.886 94.656 126.435 94.3353C126.983 94.0146 127.443 93.4988 127.756 92.8531C128.069 92.2075 128.22 91.461 128.192 90.708Z" fill="#F0A835"/>
<path d="M122.728 116.511C122.406 117.288 121.879 117.904 121.236 118.255C120.593 118.607 119.872 118.673 119.194 118.442C118.516 118.21 117.923 117.697 117.514 116.986C117.105 116.276 116.905 115.412 116.947 114.54C116.989 113.667 117.271 112.839 117.745 112.195C118.22 111.55 118.858 111.128 119.553 111C120.248 110.871 120.958 111.043 121.562 111.488C122.167 111.933 122.631 112.622 122.876 113.442L120.961 115.379L123.071 114.768C123.07 115.375 122.952 115.972 122.728 116.511Z" fill="#F0A835"/>
<path d="M121.214 109.105C120.812 109.129 120.41 109.054 120.032 108.884C119.653 108.714 119.305 108.453 119.007 108.116C118.71 107.779 118.469 107.373 118.297 106.92C118.126 106.467 118.028 105.976 118.009 105.476C117.986 104.879 118.076 104.284 118.274 103.739C118.457 103.23 118.728 102.776 119.067 102.411C119.406 102.046 119.805 101.778 120.236 101.625L120.219 103.192L120.913 101.484C121.725 101.437 122.519 101.793 123.12 102.474C123.721 103.154 124.08 104.104 124.118 105.114C124.156 106.123 123.87 107.111 123.323 107.858C122.776 108.606 122.012 109.052 121.2 109.099L121.214 109.105Z" fill="#F0A835"/>
<path d="M128.654 102.949C128.247 102.983 127.839 102.915 127.453 102.75C127.068 102.585 126.712 102.327 126.408 101.989C126.104 101.651 125.857 101.241 125.682 100.784C125.507 100.326 125.407 99.8291 125.388 99.3226C125.369 98.8161 125.431 98.3099 125.571 97.8337C125.711 97.3576 125.926 96.9209 126.204 96.5494C126.481 96.1778 126.815 95.8788 127.187 95.6698C127.558 95.4608 127.959 95.3461 128.367 95.3323C128.94 95.2976 129.509 95.4653 130.008 95.8161L129.466 97.6611L130.581 96.3312C131.18 97.0096 131.537 97.9557 131.575 98.9616C131.589 99.3144 131.562 99.6679 131.496 100.011C131.344 100.819 130.984 101.543 130.471 102.073C129.958 102.603 129.32 102.911 128.654 102.949Z" fill="#F0A835"/>
<path opacity="0.1" d="M127.78 91.7245C127.072 91.8205 126.386 92.0947 125.676 92.1495C124.965 92.2044 124.186 91.9928 123.737 91.3054C123.494 90.9371 123.375 90.469 123.17 90.0655C122.977 89.6899 122.712 89.3797 122.398 89.1626C122.202 89.6457 122.09 90.1754 122.071 90.7165C122.052 91.2575 122.125 91.7974 122.287 92.3002C122.449 92.803 122.695 93.2572 123.009 93.6325C123.323 94.0077 123.697 94.2955 124.108 94.4766C124.518 94.6577 124.955 94.728 125.388 94.6828C125.822 94.6375 126.243 94.4778 126.624 94.2143C127.004 93.9507 127.335 93.5894 127.594 93.1543C127.854 92.7193 128.035 92.2205 128.128 91.6912C128.011 91.699 127.896 91.7088 127.78 91.7245Z" fill="black"/>
<path opacity="0.1" d="M128.654 102.949C128.125 102.979 127.6 102.839 127.128 102.542C126.657 102.245 126.255 101.802 125.962 101.255C125.668 100.708 125.494 100.076 125.455 99.4199C125.415 98.7642 125.513 98.1071 125.739 97.5122C125.981 97.7169 126.19 97.9775 126.354 98.28C126.573 98.6894 126.706 99.1634 126.962 99.5394C127.435 100.239 128.255 100.466 128.994 100.425C129.732 100.384 130.447 100.121 131.184 100.033C131.287 100.021 131.391 100.013 131.499 100.009C131.347 100.818 130.987 101.543 130.473 102.073C129.959 102.604 129.321 102.912 128.654 102.949Z" fill="black"/>
<path opacity="0.1" d="M121.214 109.105C120.812 109.129 120.41 109.054 120.032 108.884C119.653 108.714 119.305 108.453 119.007 108.116C118.71 107.779 118.469 107.373 118.297 106.92C118.126 106.467 118.028 105.976 118.009 105.476C117.986 104.879 118.076 104.284 118.274 103.739C118.527 103.948 118.746 104.214 118.921 104.522C119.159 104.939 119.309 105.421 119.587 105.807C120.104 106.522 120.973 106.775 121.756 106.751C122.539 106.728 123.246 106.5 124 106.428C123.813 107.176 123.445 107.834 122.947 108.313C122.448 108.793 121.843 109.069 121.214 109.105Z" fill="black"/>
<path opacity="0.1" d="M122.728 116.511C122.371 117.383 121.759 118.05 121.017 118.376C120.276 118.702 119.462 118.661 118.744 118.261C118.027 117.862 117.46 117.134 117.161 116.23C116.863 115.325 116.855 114.312 117.14 113.401C117.392 113.607 117.619 113.859 117.813 114.147C118.104 114.59 118.296 115.091 118.633 115.502C119.263 116.266 120.271 116.581 121.172 116.611C121.691 116.616 122.211 116.583 122.728 116.511Z" fill="black"/>
<path d="M167.098 123.652C167.746 122.156 167.009 120.322 166.162 118.987C165.315 117.651 164.282 116.264 164.304 114.562C164.335 112.12 166.42 110.676 168.083 109.38C169.32 108.419 170.461 107.279 171.482 105.983C171.909 105.484 172.263 104.896 172.526 104.244C172.871 103.288 172.86 102.201 172.841 101.155C172.769 97.6663 172.63 94.1826 172.425 90.704" stroke="#3F3D56" stroke-width="4" stroke-miterlimit="10"/>
<path d="M175.594 90.5121C175.57 89.8739 175.418 89.2534 175.15 88.7077C174.883 88.1621 174.51 87.709 174.065 87.39L173.378 89.0784L173.398 87.0336C173.071 86.9146 172.73 86.8636 172.389 86.8827C171.784 86.918 171.2 87.1758 170.712 87.6235C170.225 88.0712 169.855 88.6887 169.649 89.3978C169.444 90.107 169.412 90.876 169.558 91.6077C169.704 92.3393 170.021 93.0007 170.469 93.5083C170.917 94.0158 171.476 94.3466 172.076 94.459C172.675 94.5713 173.288 94.4601 173.836 94.1394C174.385 93.8187 174.845 93.3029 175.157 92.6573C175.47 92.0116 175.622 91.2651 175.594 90.5121Z" fill="#F0A835"/>
<path d="M170.129 116.315C169.808 117.092 169.281 117.708 168.638 118.06C167.994 118.411 167.273 118.477 166.596 118.246C165.918 118.015 165.325 117.501 164.916 116.79C164.506 116.08 164.306 115.216 164.348 114.344C164.39 113.471 164.672 112.643 165.147 111.999C165.621 111.354 166.26 110.932 166.955 110.804C167.65 110.675 168.359 110.848 168.964 111.292C169.569 111.737 170.033 112.427 170.277 113.246L168.362 115.183L170.472 114.572C170.472 115.179 170.354 115.776 170.129 116.315Z" fill="#F0A835"/>
<path d="M168.616 108.91C168.214 108.933 167.812 108.858 167.433 108.688C167.055 108.518 166.707 108.257 166.409 107.92C166.111 107.583 165.87 107.177 165.699 106.724C165.528 106.271 165.43 105.78 165.411 105.28C165.387 104.683 165.478 104.088 165.676 103.543C165.859 103.034 166.129 102.581 166.468 102.215C166.807 101.85 167.206 101.582 167.638 101.43L167.62 102.996L168.315 101.288H168.323C168.725 101.265 169.127 101.34 169.505 101.51C169.884 101.68 170.232 101.941 170.53 102.278C170.827 102.615 171.068 103.021 171.24 103.474C171.411 103.927 171.509 104.418 171.528 104.918C171.546 105.418 171.486 105.918 171.349 106.388C171.213 106.859 171.003 107.292 170.732 107.662C170.461 108.033 170.134 108.333 169.77 108.546C169.406 108.759 169.011 108.88 168.609 108.904L168.616 108.91Z" fill="#F0A835"/>
<path d="M176.055 102.754C175.648 102.787 175.24 102.719 174.855 102.555C174.469 102.39 174.114 102.131 173.81 101.793C173.506 101.455 173.259 101.046 173.084 100.588C172.908 100.13 172.808 99.6332 172.789 99.1267C172.77 98.6202 172.832 98.1141 172.973 97.6379C173.113 97.1617 173.328 96.7251 173.605 96.3535C173.883 95.982 174.217 95.6829 174.588 95.474C174.96 95.265 175.361 95.1502 175.769 95.1364C176.341 95.1017 176.91 95.2695 177.409 95.6202L176.868 97.4652L177.983 96.1353C178.581 96.8137 178.939 97.7598 178.976 98.7658C178.99 99.1186 178.964 99.4721 178.898 99.8156C178.745 100.623 178.385 101.347 177.872 101.877C177.359 102.407 176.721 102.715 176.055 102.754Z" fill="#F0A835"/>
<path opacity="0.1" d="M175.181 91.5286C174.474 91.6246 173.787 91.8988 173.077 91.9536C172.367 92.0085 171.587 91.797 171.139 91.1095C170.896 90.7413 170.776 90.2731 170.572 89.8697C170.378 89.4941 170.113 89.1839 169.8 88.9667C169.603 89.4499 169.492 89.9796 169.472 90.5206C169.453 91.0616 169.527 91.6015 169.689 92.1043C169.85 92.6071 170.096 93.0613 170.41 93.4366C170.724 93.8119 171.099 94.0996 171.509 94.2808C171.919 94.4619 172.356 94.5321 172.79 94.4869C173.224 94.4417 173.645 94.2819 174.025 94.0184C174.406 93.7548 174.737 93.3935 174.996 92.9584C175.255 92.5234 175.437 92.0246 175.529 91.4953C175.413 91.5032 175.298 91.513 175.181 91.5286Z" fill="black"/>
<path opacity="0.1" d="M176.055 102.754C175.527 102.783 175.002 102.643 174.53 102.346C174.058 102.049 173.656 101.606 173.363 101.059C173.07 100.512 172.895 99.8797 172.856 99.224C172.817 98.5683 172.915 97.9112 173.14 97.3164C173.383 97.521 173.592 97.7817 173.756 98.0842C173.975 98.4935 174.107 98.9675 174.364 99.3436C174.836 100.043 175.657 100.27 176.395 100.229C177.134 100.188 177.849 99.9253 178.586 99.8371C178.688 99.8254 178.792 99.8175 178.901 99.8136C178.749 100.622 178.388 101.347 177.875 101.877C177.361 102.408 176.722 102.716 176.055 102.754Z" fill="black"/>
<path opacity="0.1" d="M168.616 108.909C168.214 108.933 167.812 108.858 167.433 108.688C167.055 108.518 166.707 108.257 166.409 107.92C166.111 107.583 165.87 107.177 165.699 106.724C165.528 106.271 165.43 105.78 165.411 105.28C165.387 104.683 165.478 104.088 165.676 103.543C165.928 103.752 166.148 104.018 166.323 104.326C166.561 104.743 166.71 105.225 166.989 105.611C167.506 106.326 168.375 106.579 169.157 106.555C169.917 106.536 170.647 106.305 171.402 106.232C171.215 106.98 170.847 107.639 170.348 108.118C169.85 108.597 169.245 108.873 168.616 108.909Z" fill="black"/>
<path opacity="0.1" d="M170.129 116.315C169.773 117.187 169.16 117.855 168.419 118.18C167.677 118.506 166.864 118.465 166.146 118.065C165.428 117.666 164.861 116.939 164.563 116.034C164.264 115.129 164.257 114.116 164.542 113.205C164.794 113.411 165.021 113.663 165.214 113.951C165.506 114.394 165.698 114.895 166.035 115.306C166.665 116.07 167.672 116.386 168.573 116.415C169.093 116.42 169.613 116.387 170.129 116.315Z" fill="black"/>
<path d="M17.3118 121.106C16.663 119.609 17.4 117.776 18.2472 116.44C19.0945 115.105 20.1276 113.718 20.1055 112.016C20.074 109.573 17.989 108.13 16.326 106.833C15.0892 105.872 13.9484 104.732 12.9276 103.437C12.5001 102.938 12.1466 102.349 11.8835 101.698C11.5386 100.742 11.5496 99.655 11.5685 98.6091C11.6409 95.1201 11.7795 91.6364 11.9843 88.1578" stroke="#3F3D56" stroke-width="4" stroke-miterlimit="10"/>
<path d="M8.81575 87.9659C8.83943 87.3277 8.99192 86.7072 9.25916 86.1615C9.5264 85.6159 9.89978 85.1628 10.3449 84.8438L11.0315 86.5322L11.011 84.4874C11.3385 84.3684 11.6796 84.3174 12.0205 84.3365C12.6259 84.3718 13.2093 84.6296 13.697 85.0773C14.1846 85.525 14.5546 86.1425 14.76 86.8516C14.9655 87.5608 14.9973 88.3298 14.8514 89.0615C14.7055 89.7931 14.3884 90.4545 13.9403 90.9621C13.4921 91.4696 12.933 91.8004 12.3337 91.9128C11.7344 92.0251 11.1217 91.9139 10.5732 91.5932C10.0247 91.2725 9.56495 90.7567 9.25213 90.1111C8.93931 89.4654 8.78745 88.7189 8.81575 87.9659Z" fill="#F0A835"/>
<path d="M14.2803 113.769C14.6019 114.546 15.1285 115.162 15.7718 115.513C16.4151 115.865 17.1361 115.931 17.8137 115.699C18.4914 115.468 19.0846 114.955 19.4938 114.244C19.903 113.534 20.1033 112.67 20.0613 111.797C20.0192 110.925 19.7372 110.097 19.2627 109.453C18.7881 108.808 18.1498 108.386 17.4548 108.258C16.7598 108.129 16.0503 108.301 15.4454 108.746C14.8405 109.191 14.3768 109.88 14.1323 110.7L16.0472 112.637L13.937 112.026C13.9379 112.632 14.0556 113.23 14.2803 113.769Z" fill="#F0A835"/>
<path d="M15.7937 106.363C16.1957 106.387 16.5975 106.311 16.9762 106.142C17.3548 105.972 17.7029 105.711 18.0005 105.374C18.2981 105.037 18.5394 104.631 18.7106 104.178C18.8818 103.725 18.9796 103.234 18.9984 102.734C19.0223 102.137 18.9316 101.541 18.7339 100.997C18.5508 100.487 18.2802 100.034 17.9412 99.6693C17.6022 99.3042 17.203 99.0359 16.7717 98.8833L16.789 100.45L16.0945 98.7423C15.2825 98.695 14.4888 99.0508 13.8878 99.7314C13.2868 100.412 12.9278 101.362 12.8898 102.372C12.8518 103.381 13.1378 104.369 13.6851 105.116C14.2323 105.864 14.9959 106.31 15.8079 106.357L15.7937 106.363Z" fill="#F0A835"/>
<path d="M8.35433 100.207C8.76113 100.241 9.16923 100.173 9.55475 100.008C9.94028 99.8434 10.2955 99.5845 10.5996 99.2468C10.9037 98.9091 11.1506 98.4994 11.3259 98.0415C11.5011 97.5837 11.6012 97.087 11.6203 96.5805C11.6393 96.074 11.577 95.5679 11.4369 95.0917C11.2968 94.6155 11.0817 94.1789 10.8043 93.8073C10.5269 93.4357 10.1926 93.1367 9.82118 92.9277C9.44972 92.7188 9.04849 92.604 8.64094 92.5902C8.07085 92.5574 7.50485 92.7251 7.00787 93.074L7.5496 94.919L6.42677 93.595C5.82949 94.272 5.47218 95.2157 5.43307 96.2196C5.41912 96.5724 5.44563 96.9259 5.51181 97.2694C5.66421 98.077 6.02419 98.8007 6.53715 99.3309C7.05011 99.8611 7.68808 100.169 8.35433 100.207Z" fill="#F0A835"/>
<path opacity="0.1" d="M9.22835 88.9824C9.93543 89.0784 10.622 89.3526 11.3323 89.4074C12.0425 89.4623 12.822 89.2507 13.2709 88.5633C13.5134 88.195 13.6331 87.7269 13.8378 87.3235C14.0311 86.9479 14.2962 86.6377 14.6094 86.4205C14.8062 86.9037 14.9178 87.4334 14.9371 87.9744C14.9563 88.5154 14.8826 89.0553 14.7208 89.5581C14.5591 90.0609 14.3131 90.5151 13.9992 90.8904C13.6853 91.2657 13.3107 91.5534 12.9004 91.7346C12.49 91.9157 12.0534 91.9859 11.6195 91.9407C11.1856 91.8955 10.7644 91.7357 10.384 91.4722C10.0037 91.2086 9.6728 90.8473 9.41351 90.4122C9.15423 89.9772 8.97246 89.4784 8.88031 88.9491C8.99685 88.957 9.11181 88.9668 9.22835 88.9824Z" fill="black"/>
<path opacity="0.1" d="M8.35433 100.207C8.88243 100.237 9.40778 100.097 9.87944 99.8C10.3511 99.5031 10.7531 99.0596 11.0463 98.5125C11.3396 97.9655 11.5142 97.3335 11.5533 96.6778C11.5924 96.0221 11.4945 95.365 11.2693 94.7702C11.0265 94.9748 10.8175 95.2354 10.6535 95.5379C10.4346 95.9473 10.3024 96.4213 10.0457 96.7973C9.57323 97.4966 8.75275 97.7238 8.01417 97.6826C7.27559 97.6415 6.56063 97.379 5.82362 97.2909C5.72126 97.2792 5.61732 97.2713 5.50866 97.2674C5.66092 98.076 6.02123 98.8006 6.53485 99.3312C7.04847 99.8619 7.68732 100.169 8.35433 100.207Z" fill="black"/>
<path opacity="0.1" d="M15.7937 106.363C16.1957 106.387 16.5975 106.311 16.9762 106.142C17.3548 105.972 17.7029 105.711 18.0005 105.374C18.2981 105.037 18.5394 104.631 18.7106 104.178C18.8818 103.725 18.9796 103.234 18.9984 102.734C19.0223 102.137 18.9316 101.541 18.7339 100.997C18.4812 101.206 18.2617 101.472 18.0866 101.78C17.8488 102.197 17.6992 102.679 17.4205 103.065C16.9039 103.78 16.0346 104.033 15.252 104.009C14.4929 103.989 13.7622 103.758 13.0079 103.686C13.1948 104.434 13.5626 105.092 14.061 105.571C14.5595 106.05 15.1644 106.327 15.7937 106.363Z" fill="black"/>
<path opacity="0.1" d="M14.2803 113.769C14.6369 114.64 15.2493 115.308 15.9907 115.634C16.7321 115.96 17.5459 115.919 18.2636 115.519C18.9813 115.12 19.5481 114.392 19.8467 113.488C20.1453 112.583 20.1528 111.57 19.8677 110.659C19.6154 110.865 19.3889 111.116 19.1953 111.405C18.9039 111.847 18.7118 112.349 18.3748 112.76C17.7449 113.524 16.737 113.839 15.8362 113.869C15.3164 113.874 14.7969 113.841 14.2803 113.769Z" fill="black"/>
<path d="M106.063 102.752C106.066 102.277 105.979 101.808 105.81 101.382C105.641 100.956 105.395 100.585 105.09 100.299C105.052 98.5033 104.022 97.0363 102.698 96.8091C102.595 96.1989 102.366 95.6329 102.032 95.1681C101.698 94.7032 101.271 94.3559 100.795 94.161C100.679 94.1154 100.561 94.0807 100.441 94.0572H100.406L100.345 94.0474H100.293H100.241H100.173H100.132H100.02C98.6693 94.0474 97.5449 95.3323 97.3134 97.0265C96.4394 96.7758 95.6378 97.1009 95.4945 97.7884C95.4575 97.9706 95.4657 98.1625 95.5181 98.3388C95.6661 98.8715 96.148 99.3808 96.8016 99.6334L96.8866 99.6648C96.9291 99.6804 96.9717 99.6922 97.0142 99.7039H97.0425C96.8023 100.341 96.7682 101.069 96.9473 101.736C97.1264 102.404 97.505 102.96 98.0047 103.29C97.985 103.304 97.9661 103.319 97.948 103.335C97.8673 103.427 97.803 103.539 97.7591 103.664C97.6012 104.009 97.4784 104.377 97.3937 104.759C97.3307 105.086 97.3197 105.429 97.2362 105.752C97.0929 106.34 96.7244 106.855 96.6819 107.48C96.663 107.758 96.6992 108.085 96.5402 108.275C96.5006 108.317 96.4584 108.356 96.4142 108.39C96.3027 108.485 96.2083 108.608 96.137 108.751C96.0906 108.869 96.0283 108.976 95.9528 109.068C95.8095 109.203 95.5732 109.19 95.5024 109.397C95.4315 109.605 95.6142 109.85 95.5717 110.077C95.537 110.261 95.3748 110.345 95.2567 110.469C95.1246 110.647 95.0323 110.865 94.989 111.101C94.7537 111.158 94.5114 111.149 94.2792 111.075C94.047 111.002 93.8307 110.866 93.6457 110.676C93.7091 110.878 93.7556 111.087 93.7843 111.301C93.5969 111.052 93.2882 110.98 93.0598 110.85C92.7653 110.683 92.5024 110.44 92.2882 110.138L92.7008 110.067L90.874 106.62L90.3354 106.483L90.8189 107.636C90.7793 107.66 90.7446 107.694 90.7173 107.737C90.69 107.78 90.6709 107.83 90.6614 107.883C90.6354 108.011 90.629 108.144 90.6425 108.275C90.6681 108.584 90.7097 108.891 90.7669 109.193L90.9071 110.004C90.919 110.08 90.9342 110.156 90.9528 110.23C90.7701 110.221 90.5875 110.247 90.411 110.306C90.0489 110.139 89.6719 110.028 89.2882 109.975C89.2038 109.957 89.1172 109.962 89.0347 109.991C88.941 110.044 88.8598 110.127 88.7984 110.23C88.4834 110.682 88.204 111.172 87.9638 111.691C86.9827 113.814 85.6724 115.667 84.4457 117.586C83.5984 118.015 82.7449 118.423 81.8898 118.826L80.052 119.698C79.685 119.872 79.3039 120.05 78.9134 120.019C78.737 120.005 78.5228 119.972 78.4236 120.158C78.3753 120.25 78.3377 120.35 78.3118 120.456C78.2473 120.456 78.1827 120.475 78.1228 120.479H78.1118C77.9953 120.119 77.8945 119.733 77.6709 119.47C77.6259 119.479 77.5833 119.501 77.547 119.536C77.5107 119.57 77.4818 119.615 77.463 119.666C77.4189 119.768 77.3921 119.88 77.3417 119.974C77.2425 120.154 77.0709 120.242 76.948 120.395C76.8252 120.548 76.748 120.787 76.6158 120.935C76.4305 121.103 76.2134 121.208 75.9858 121.239C75.6449 121.339 75.3161 121.494 75.0079 121.701C74.8942 121.788 74.7726 121.858 74.6457 121.909C74.5061 121.942 74.3631 121.948 74.2221 121.927L73.2488 121.838C73.1622 121.824 73.0743 121.829 72.989 121.852C72.8887 121.898 72.8035 121.984 72.7465 122.096C72.6895 122.208 72.664 122.341 72.674 122.473C72.6859 122.604 72.7193 122.731 72.7721 122.846C72.8249 122.96 72.896 123.06 72.9811 123.139C73.1501 123.293 73.337 123.414 73.5354 123.497C74.3811 123.905 75.253 124.223 76.1417 124.447V124.692C76.7578 125.078 77.4378 125.279 78.1276 125.28C78.1784 125.285 78.2294 125.273 78.2756 125.246C78.3393 125.187 78.3836 125.101 78.4 125.004C78.6065 124.235 78.7371 123.439 78.789 122.632C78.9106 122.622 79.0297 122.584 79.1402 122.52C79.4756 122.406 79.8079 122.692 80.1528 122.739C80.578 122.796 80.9732 122.489 81.3748 122.299C81.4331 122.271 81.4913 122.248 81.5496 122.224C81.4351 122.409 81.2998 122.571 81.148 122.708C80.9811 122.857 80.7937 122.967 80.6299 123.121C80.4938 123.276 80.3479 123.417 80.1937 123.542C80.085 123.605 79.9729 123.659 79.8583 123.703C79.6921 123.778 79.5335 123.878 79.3858 123.999C79.2535 124.096 79.1414 124.23 79.0583 124.39C79.0164 124.465 78.9907 124.552 78.9836 124.643C78.9764 124.734 78.9881 124.826 79.0174 124.909C79.0468 124.993 79.0929 125.066 79.1513 125.121C79.2097 125.176 79.2785 125.212 79.3512 125.225C79.4827 125.254 79.617 125.259 79.7496 125.239C80.2756 125.19 80.8 125.129 81.3244 125.07C81.5464 125.052 81.767 125.012 81.9843 124.953C82.0992 124.917 82.2126 124.87 82.3276 124.833C82.5237 124.769 82.7249 124.731 82.9276 124.721C82.9864 124.716 83.0456 124.723 83.1024 124.743C83.2252 124.792 83.3118 124.939 83.4362 124.978C83.517 124.988 83.5985 124.974 83.674 124.937C84.0579 124.833 84.4497 124.781 84.8425 124.782C85.0142 124.77 85.2158 124.729 85.2961 124.532C85.3937 124.287 85.2299 124.012 85.1654 123.748C85.1325 123.58 85.1145 123.408 85.1118 123.235C85.0819 122.808 84.9833 122.393 84.8221 122.015C84.7363 121.838 84.6641 121.652 84.6063 121.458C85.3588 121.102 86.0789 120.648 86.7543 120.103C87.1417 119.803 87.5417 119.48 87.9795 119.371C88.4898 119.243 89.0158 119.412 89.5181 119.592C90.7147 120.022 91.8918 120.533 93.0441 121.122C93.5953 121.402 94.1465 121.699 94.7102 121.905C94.8751 122.182 95.0744 122.424 95.3008 122.622C95.6787 122.925 96.1402 123.014 96.5843 123.057C97.1842 123.125 97.7866 123.153 98.389 123.141C98.8488 123.131 99.3228 123.092 99.7339 122.831C99.8343 122.767 99.9288 122.69 100.016 122.6C100.331 122.671 100.654 122.461 100.901 122.193C101.228 121.847 101.464 121.386 101.578 120.871C101.723 120.164 101.611 119.339 101.961 118.761C102.054 118.607 102.175 118.481 102.266 118.325C102.379 118.115 102.434 117.866 102.424 117.614L102.439 117.584C102.518 117.357 102.572 117.117 102.597 116.871C102.638 116.679 102.691 116.492 102.754 116.309C102.932 115.763 103.086 115.205 103.217 114.638C103.308 114.263 103.38 113.88 103.431 113.493C103.469 113.183 103.491 112.872 103.512 112.56C103.537 112.073 103.613 111.592 103.739 111.129C104.049 110.024 104.225 108.867 104.26 107.697C104.26 107.674 104.26 107.652 104.26 107.629C104.717 107.566 105.139 107.294 105.443 106.865C105.748 106.436 105.913 105.882 105.906 105.31C105.906 104.965 105.848 104.624 105.735 104.309C105.953 103.834 106.066 103.297 106.063 102.752ZM97.1575 116.209C97.1843 116.329 97.2158 116.448 97.2473 116.568C97.1024 116.389 96.9591 116.205 96.8126 116.029C96.8709 116.051 96.9291 116.074 96.9858 116.1C97.0462 116.129 97.1042 116.166 97.1591 116.209H97.1575ZM96.452 115.622C95.5921 114.693 94.5969 113.973 93.7165 113.075C94.189 113.371 94.6614 113.714 95.1339 114.043C95.684 114.435 96.2404 114.81 96.8032 115.167C96.7108 115.342 96.5934 115.493 96.4567 115.614L96.452 115.622ZM96.8189 113.283L96.8598 113.23C96.8598 113.361 96.8598 113.485 96.8598 113.596C96.7827 113.565 96.7024 113.534 96.6284 113.499C96.6964 113.43 96.7605 113.355 96.8205 113.275L96.8189 113.283ZM89.2488 115.798C89.6029 115.3 89.9109 114.754 90.1669 114.17C90.5071 114.913 91.0614 115.447 91.5339 116.068C90.7748 115.935 90.0142 115.831 89.2504 115.79L89.2488 115.798Z" fill="url(#paint0_linear_41_67)"/>
<path d="M90.4772 106.769L91.0205 106.906L92.8709 110.306L92.0535 110.443L90.4772 106.769Z" fill="#2F2E41"/>
<path d="M77.3197 120.569C77.4662 121.172 77.6467 121.761 77.8598 122.332C78.473 122.172 79.0761 121.958 79.6646 121.692C79.5507 121.471 79.4255 121.26 79.2898 121.059C79.1451 120.859 78.9722 120.694 78.7795 120.571C78.5921 120.469 78.3606 120.546 78.1606 120.559C77.8803 120.572 77.6 120.576 77.3197 120.569Z" fill="#FBBEBE"/>
<path d="M78.7827 121.478C78.4772 121.359 78.2898 120.975 78.1654 120.604C78.0409 120.234 77.9402 119.831 77.7039 119.559C77.659 119.567 77.6165 119.59 77.5802 119.624C77.5439 119.658 77.515 119.703 77.4961 119.754C77.4504 119.852 77.4236 119.964 77.3717 120.058C77.274 120.234 77.1008 120.32 76.9764 120.471C76.852 120.622 76.7748 120.851 76.6409 121.002C76.4552 121.168 76.2383 121.272 76.011 121.304C75.6678 121.4 75.3363 121.553 75.0252 121.758C74.9101 121.841 74.7874 121.907 74.6598 121.954C74.5192 121.987 74.3752 121.993 74.2331 121.972L73.252 121.883C73.1648 121.87 73.0763 121.875 72.9906 121.899C72.8906 121.942 72.8052 122.026 72.7481 122.137C72.691 122.248 72.6655 122.379 72.6756 122.51C72.6886 122.641 72.7233 122.767 72.7776 122.879C72.8318 122.992 72.9043 123.09 72.9906 123.166C73.1611 123.318 73.3491 123.437 73.548 123.519C74.4028 123.919 75.2824 124.231 76.178 124.453V124.694C76.8004 125.077 77.485 125.278 78.1795 125.282C78.2335 125.288 78.2877 125.276 78.337 125.248C78.4008 125.19 78.4456 125.105 78.463 125.009C78.6984 124.154 78.8357 123.261 78.8709 122.357C78.8889 122.129 78.8751 121.898 78.8299 121.676C78.7764 121.456 78.9591 121.549 78.789 121.462" fill="#2F2E41"/>
<path d="M97.5921 116.879C94.6835 117.099 91.811 116.037 88.8976 115.923C88.5361 115.896 88.1731 115.925 87.8173 116.01C87.4464 116.133 87.0873 116.307 86.7465 116.527C85.1858 117.43 83.5701 118.178 81.9559 118.926L80.1039 119.784C79.7323 119.954 79.3496 120.129 78.9543 120.099C78.7779 120.085 78.5622 120.052 78.4614 120.236C78.1606 120.791 78.3039 121.607 78.5024 122.23C78.5669 122.426 78.6756 122.651 78.8488 122.675C78.9714 122.664 79.0914 122.626 79.2031 122.563C79.5402 122.451 79.8772 122.733 80.2236 122.779C80.6535 122.835 81.052 122.532 81.4567 122.346C82.1276 122.038 82.8614 122.048 83.5669 121.901C84.7512 121.656 85.8472 120.973 86.874 120.193C87.2646 119.897 87.6614 119.58 88.1087 119.472C88.6236 119.347 89.1543 119.512 89.6598 119.69C90.865 120.114 92.0514 120.617 93.2142 121.196C93.8194 121.523 94.4399 121.804 95.0724 122.038C96.451 122.49 97.9092 122.384 99.2362 121.737C99.7087 121.507 100.206 121.104 100.233 120.479C100.249 120.123 100.027 119.809 99.8787 119.5C99.7827 119.304 99.6882 119.108 99.5842 118.922C99.0835 118.013 98.4756 116.813 97.5921 116.879Z" fill="#2F2E41"/>
<path opacity="0.1" d="M97.5921 116.879C94.6835 117.099 91.811 116.037 88.8976 115.923C88.5361 115.896 88.1731 115.925 87.8173 116.01C87.4464 116.133 87.0873 116.307 86.7465 116.527C85.1858 117.43 83.5701 118.178 81.9559 118.926L80.1039 119.784C79.7323 119.954 79.3496 120.129 78.9543 120.099C78.7779 120.085 78.5622 120.052 78.4614 120.236C78.1606 120.791 78.3039 121.607 78.5024 122.23C78.5669 122.426 78.6756 122.651 78.8488 122.675C78.9714 122.664 79.0914 122.626 79.2031 122.563C79.5402 122.451 79.8772 122.733 80.2236 122.779C80.6535 122.835 81.052 122.532 81.4567 122.346C82.1276 122.038 82.8614 122.048 83.5669 121.901C84.7512 121.656 85.8472 120.973 86.874 120.193C87.2646 119.897 87.6614 119.58 88.1087 119.472C88.6236 119.347 89.1543 119.512 89.6598 119.69C90.865 120.114 92.0514 120.617 93.2142 121.196C93.8194 121.523 94.4399 121.804 95.0724 122.038C96.451 122.49 97.9092 122.384 99.2362 121.737C99.7087 121.507 100.206 121.104 100.233 120.479C100.249 120.123 100.027 119.809 99.8787 119.5C99.7827 119.304 99.6882 119.108 99.5842 118.922C99.0835 118.013 98.4756 116.813 97.5921 116.879Z" fill="black"/>
<path d="M82.9024 120.745C83.358 120.937 83.8168 121.115 84.2787 121.278C84.5386 120.747 85.0236 120.379 85.1339 119.774C85.1401 119.748 85.1401 119.72 85.1339 119.694C85.1218 119.668 85.1037 119.647 85.0819 119.635C84.7499 119.407 84.3815 119.273 84.0031 119.243C83.7039 119.22 83.5685 119.608 83.4331 119.88C83.3858 119.989 83.0236 120.796 82.9024 120.745Z" fill="#FBBEBE"/>
<path d="M83.5433 120.358C83.4073 120.33 83.2775 120.266 83.1623 120.172C83.0471 120.078 82.9489 119.955 82.874 119.811C82.8095 119.672 82.7417 119.484 82.6126 119.494C82.4835 119.504 82.4394 119.68 82.4126 119.827C82.3254 120.376 82.1995 120.914 82.0362 121.435C81.8716 121.958 81.5929 122.413 81.2315 122.749C81.063 122.894 80.8756 123.004 80.7102 123.157C80.5724 123.309 80.425 123.448 80.2693 123.572C80.1596 123.634 80.0465 123.687 79.9307 123.728C79.761 123.802 79.5988 123.9 79.4472 124.02C79.3144 124.117 79.2017 124.251 79.1181 124.412C79.0778 124.494 79.0542 124.586 79.0492 124.682C79.0443 124.777 79.0582 124.873 79.0898 124.96C79.1237 125.031 79.1693 125.093 79.2236 125.14C79.2779 125.188 79.3396 125.221 79.4047 125.237C79.5375 125.264 79.6727 125.268 79.8063 125.248C80.337 125.199 80.8661 125.141 81.3953 125.082C81.6193 125.065 81.842 125.027 82.0614 124.968C82.178 124.933 82.2914 124.886 82.4063 124.849C82.6048 124.786 82.808 124.749 83.0126 124.739C83.072 124.734 83.1316 124.741 83.189 124.761C83.3118 124.81 83.3984 124.957 83.5244 124.992C83.6056 125.002 83.6876 124.989 83.7638 124.953C84.1511 124.851 84.5459 124.799 84.9417 124.8C85.115 124.788 85.3197 124.747 85.3984 124.553C85.4976 124.312 85.3339 124.042 85.2677 123.783C85.2351 123.618 85.2166 123.448 85.2126 123.278C85.1828 122.857 85.0836 122.448 84.9213 122.077C84.7858 121.768 84.6063 121.427 84.6961 121.098C84.7443 120.995 84.7749 120.881 84.7858 120.763C84.7638 120.232 83.7827 120.428 83.5433 120.358Z" fill="#2F2E41"/>
<path d="M93.2315 111.078C92.7162 110.795 92.3034 110.285 92.0724 109.646C92.0252 109.509 91.9843 109.366 91.9386 109.227C91.7853 108.767 91.5481 108.358 91.2457 108.032C91.2133 107.988 91.1736 107.953 91.1293 107.929C91.0849 107.906 91.0371 107.895 90.989 107.897C90.9425 107.914 90.9004 107.946 90.8672 107.99C90.834 108.034 90.8108 108.089 90.8 108.148C90.773 108.275 90.7661 108.408 90.7795 108.539C90.8064 108.843 90.8485 109.145 90.9055 109.442L91.0473 110.241C91.0651 110.364 91.0947 110.484 91.1354 110.598C91.196 110.732 91.2761 110.851 91.3717 110.948C91.5008 111.097 91.6315 111.24 91.7638 111.379C91.8367 111.461 91.9164 111.534 92.0016 111.595C92.1413 111.677 92.2907 111.731 92.4441 111.755C93.0221 111.889 93.6095 112.081 94.0961 112.539C94.0961 112.539 94.0961 112.004 94.085 111.951C94.0791 111.796 94.0364 111.647 93.9622 111.522C93.7795 111.277 93.4646 111.205 93.2315 111.078Z" fill="#FBBEBE"/>
<path opacity="0.1" d="M93.2315 111.078C92.7162 110.795 92.3034 110.285 92.0724 109.646C92.0252 109.509 91.9843 109.366 91.9386 109.227C91.7853 108.767 91.5481 108.358 91.2457 108.032C91.2133 107.988 91.1736 107.953 91.1293 107.929C91.0849 107.906 91.0371 107.895 90.989 107.897C90.9425 107.914 90.9004 107.946 90.8672 107.99C90.834 108.034 90.8108 108.089 90.8 108.148C90.773 108.275 90.7661 108.408 90.7795 108.539C90.8064 108.843 90.8485 109.145 90.9055 109.442L91.0473 110.241C91.0651 110.364 91.0947 110.484 91.1354 110.598C91.196 110.732 91.2761 110.851 91.3717 110.948C91.5008 111.097 91.6315 111.24 91.7638 111.379C91.8367 111.461 91.9164 111.534 92.0016 111.595C92.1413 111.677 92.2907 111.731 92.4441 111.755C93.0221 111.889 93.6095 112.081 94.0961 112.539C94.0961 112.539 94.0961 112.004 94.085 111.951C94.0791 111.796 94.0364 111.647 93.9622 111.522C93.7795 111.277 93.4646 111.205 93.2315 111.078Z" fill="black"/>
<path d="M99.1528 104.967C99.5433 104.967 99.8598 104.57 99.8598 104.082C99.8598 103.593 99.5433 103.196 99.1528 103.196C98.7622 103.196 98.4457 103.593 98.4457 104.082C98.4457 104.57 98.7622 104.967 99.1528 104.967Z" fill="#2F2E41"/>
<path d="M98.715 103.547C98.5251 103.493 98.3259 103.529 98.1559 103.647C98.0742 103.737 98.0092 103.848 97.9654 103.972C97.8063 104.31 97.6825 104.672 97.5969 105.049C97.5339 105.372 97.5228 105.709 97.4394 106.028C97.2945 106.616 96.9228 107.115 96.8803 107.728C96.8614 108.003 96.8976 108.326 96.737 108.512C96.6971 108.553 96.6544 108.591 96.6094 108.624C96.4976 108.717 96.4026 108.838 96.3307 108.98C96.2826 109.107 96.2159 109.222 96.1339 109.319C95.989 109.452 95.7512 109.438 95.6803 109.644C95.6095 109.85 95.7921 110.089 95.7496 110.312C95.715 110.494 95.5512 110.578 95.4347 110.704C95.3019 110.878 95.209 111.094 95.1654 111.328C94.9288 111.384 94.6854 111.375 94.4519 111.302C94.2184 111.229 94.0003 111.095 93.8126 110.907C94.0095 111.513 94.0142 112.18 94.022 112.833C94.0448 113.041 94 113.253 93.8976 113.42C94.4614 113.436 95.0095 113.616 95.5591 113.779C95.7941 113.877 96.0484 113.877 96.2835 113.779C96.4091 113.694 96.5217 113.583 96.6158 113.45C96.915 113.072 97.2283 112.666 97.3008 112.139C97.32 111.843 97.3242 111.545 97.3134 111.248C97.3423 110.881 97.403 110.519 97.4945 110.169C97.6527 109.441 97.7581 108.697 97.8095 107.946C97.8425 107.482 98.1638 107.11 98.3339 106.694C98.6488 105.911 98.9795 105.098 99.0047 104.221C99.0268 103.935 98.948 103.584 98.715 103.547Z" fill="#2F2E41"/>
<path opacity="0.1" d="M98.715 103.547C98.5251 103.493 98.3259 103.529 98.1559 103.647C98.0742 103.737 98.0092 103.848 97.9654 103.972C97.8063 104.31 97.6825 104.672 97.5969 105.049C97.5339 105.372 97.5228 105.709 97.4394 106.028C97.2945 106.616 96.9228 107.115 96.8803 107.728C96.8614 108.003 96.8976 108.326 96.737 108.512C96.6971 108.553 96.6544 108.591 96.6094 108.624C96.4976 108.717 96.4026 108.838 96.3307 108.98C96.2826 109.107 96.2159 109.222 96.1339 109.319C95.989 109.452 95.7512 109.438 95.6803 109.644C95.6095 109.85 95.7921 110.089 95.7496 110.312C95.715 110.494 95.5512 110.578 95.4347 110.704C95.3019 110.878 95.209 111.094 95.1654 111.328C94.9288 111.384 94.6854 111.375 94.4519 111.302C94.2184 111.229 94.0003 111.095 93.8126 110.907C94.0095 111.513 94.0142 112.18 94.022 112.833C94.0448 113.041 94 113.253 93.8976 113.42C94.4614 113.436 95.0095 113.616 95.5591 113.779C95.7941 113.877 96.0484 113.877 96.2835 113.779C96.4091 113.694 96.5217 113.583 96.6158 113.45C96.915 113.072 97.2283 112.666 97.3008 112.139C97.32 111.843 97.3242 111.545 97.3134 111.248C97.3423 110.881 97.403 110.519 97.4945 110.169C97.6527 109.441 97.7581 108.697 97.8095 107.946C97.8425 107.482 98.1638 107.11 98.3339 106.694C98.6488 105.911 98.9795 105.098 99.0047 104.221C99.0268 103.935 98.948 103.584 98.715 103.547Z" fill="black"/>
<path d="M98.0535 117.641C97.4472 117.283 97.0047 116.615 96.515 116.043C95.5795 114.95 94.4362 114.178 93.4535 113.154C92.8032 112.476 92.2205 111.687 91.5039 111.119C90.8737 110.619 90.159 110.307 89.4157 110.208C89.3308 110.19 89.2437 110.195 89.1606 110.224C89.0668 110.276 88.985 110.357 88.9228 110.459C88.6053 110.904 88.3232 111.386 88.0803 111.898C86.8346 114.527 85.0661 116.738 83.6 119.184C83.553 119.242 83.5251 119.32 83.5219 119.402C83.5187 119.484 83.5404 119.564 83.5827 119.627L83.8803 120.354C84.0473 120.759 84.315 121.233 84.6677 121.153C84.8296 121.095 84.9745 120.98 85.085 120.822L86.4236 119.23L87.8268 117.561C88.6488 116.581 89.485 115.583 90.0221 114.333C90.441 115.236 91.1843 115.827 91.6945 116.656C91.8882 116.969 92.0457 117.316 92.2189 117.649C92.4976 118.184 92.8126 118.685 93.1276 119.184L94.7386 121.74C94.9418 122.105 95.1938 122.422 95.4835 122.681C95.8646 122.98 96.3291 123.061 96.778 123.11C97.3826 123.178 97.9898 123.206 98.5969 123.192C99.0598 123.182 99.5417 123.145 99.9512 122.888C100.361 122.632 100.709 122.105 100.687 121.531C100.662 121.23 100.582 120.94 100.455 120.683C99.8866 119.371 99.1339 118.274 98.0535 117.641Z" fill="#2F2E41"/>
<path d="M99.5874 105.374C99.8875 105.374 100.131 105.07 100.131 104.695C100.131 104.319 99.8875 104.015 99.5874 104.015C99.2873 104.015 99.0441 104.319 99.0441 104.695C99.0441 105.07 99.2873 105.374 99.5874 105.374Z" fill="#E8E8F0"/>
<path d="M99.4677 104.183C99.5905 104.487 99.612 104.839 99.5276 105.163C99.4436 105.481 99.326 105.784 99.178 106.064C99.0505 106.353 98.8979 106.623 98.7228 106.871C99.5622 106.922 100.376 106.512 101.117 106.015C101.713 105.623 102.309 105.123 102.627 104.377C102.532 104.405 102.434 104.408 102.338 104.387C102.242 104.365 102.151 104.318 102.071 104.25C101.911 104.111 101.767 103.945 101.644 103.756L101.224 103.169C101.124 103.04 101.037 102.897 100.964 102.744C100.872 102.535 100.833 102.297 100.852 102.06C100.685 102.278 100.498 102.471 100.294 102.636C99.9937 102.881 99.6646 103.057 99.3606 103.298C99.2535 103.384 99.0158 103.523 99.0772 103.69C99.1386 103.856 99.3827 103.995 99.4677 104.183Z" fill="#FBBEBE"/>
<path opacity="0.1" d="M99.4677 104.183C99.5905 104.487 99.612 104.839 99.5276 105.163C99.4436 105.481 99.326 105.784 99.178 106.064C99.0505 106.353 98.8979 106.623 98.7228 106.871C99.5622 106.922 100.376 106.512 101.117 106.015C101.713 105.623 102.309 105.123 102.627 104.377C102.532 104.405 102.434 104.408 102.338 104.387C102.242 104.365 102.151 104.318 102.071 104.25C101.911 104.111 101.767 103.945 101.644 103.756L101.224 103.169C101.124 103.04 101.037 102.897 100.964 102.744C100.872 102.535 100.833 102.297 100.852 102.06C100.685 102.278 100.498 102.471 100.294 102.636C99.9937 102.881 99.6646 103.057 99.3606 103.298C99.2535 103.384 99.0158 103.523 99.0772 103.69C99.1386 103.856 99.3827 103.995 99.4677 104.183Z" fill="black"/>
<path d="M99.4787 104.285C99.3939 104.434 99.3483 104.613 99.3483 104.795C99.3483 104.978 99.3939 105.156 99.4787 105.306C99.5024 105.343 99.5921 105.576 99.6362 105.578C99.6734 105.574 99.7078 105.552 99.7323 105.517C99.9225 105.27 100.1 105.008 100.265 104.734C100.431 104.456 100.671 104.26 100.942 104.181C101.271 104.117 101.587 104.334 101.876 104.542C101.999 104.618 102.107 104.73 102.191 104.867C102.251 105.003 102.287 105.154 102.296 105.31C102.379 106.243 102.41 107.183 102.391 108.122C102.406 108.799 102.37 109.477 102.283 110.145C102.23 110.49 102.15 110.827 102.112 111.176C102.084 111.483 102.073 111.791 102.079 112.1V113.393C102.072 113.63 102.086 113.867 102.12 114.1C102.185 114.378 102.261 114.652 102.348 114.921C102.425 115.24 102.477 115.568 102.506 115.9L102.647 117.238C102.693 117.661 102.726 118.121 102.52 118.46C102.428 118.614 102.306 118.736 102.205 118.889C101.85 119.449 101.969 120.262 101.811 120.957C101.695 121.467 101.456 121.921 101.128 122.259C100.877 122.524 100.553 122.733 100.228 122.651C99.7921 122.549 99.5291 121.983 99.4094 121.449C99.2898 120.914 99.252 120.33 98.989 119.882C98.778 119.512 98.452 119.28 98.1575 119.016C97.863 118.752 97.5732 118.413 97.5087 117.966C97.4803 117.77 97.4976 117.574 97.4819 117.379C97.4585 117.129 97.3815 116.892 97.259 116.692C97.1366 116.492 96.9731 116.337 96.7858 116.243C96.5622 116.135 96.285 116.096 96.1559 115.851C96.4765 115.6 96.7102 115.21 96.811 114.756C96.9088 114.309 96.9616 113.848 96.9685 113.385L97.0441 111.83C97.0772 111.134 97.0929 110.445 97.3386 109.82C97.4488 109.542 97.5858 109.28 97.6992 109.004C97.8511 108.616 97.9806 108.215 98.0866 107.805C98.2646 107.168 98.4441 106.53 98.6031 105.885C98.6668 105.573 98.762 105.273 98.8866 104.99C99.0331 104.696 99.2268 104.344 99.4787 104.285Z" fill="#E8E8F0"/>
<path d="M96.7024 114.39L97.0331 114.403L97.1039 113.783C97.1134 113.658 97.1367 113.536 97.1732 113.42C97.2281 113.298 97.2919 113.182 97.3638 113.074C97.6898 112.502 97.6661 111.742 97.7465 111.046C97.8535 110.12 98.1654 109.25 98.474 108.396L99.1165 106.616C99.1738 106.47 99.2196 106.317 99.2535 106.16C99.2816 105.986 99.2948 105.81 99.2929 105.633C99.2929 105.359 99.3654 104.358 99.3701 104.081C99.3701 103.98 99.1906 104.036 99.1528 103.946C99.0724 103.75 98.9622 104.283 98.811 104.401C98.6685 104.536 98.5647 104.725 98.515 104.939C98.3764 105.388 98.2913 105.86 98.1622 106.31C98.0489 106.772 97.8423 107.189 97.5622 107.523C97.4315 107.668 97.2787 107.781 97.1543 107.934C96.7543 108.426 96.7165 109.201 96.7024 109.893C96.6929 110.322 96.6283 114.39 96.7024 114.39Z" fill="#2F2E41"/>
<path d="M101.466 103.543C101.151 103.7 100.968 104.13 100.879 104.55C100.789 104.969 100.751 105.411 100.578 105.784C100.175 106.657 99.1464 106.912 98.8614 107.856C98.7888 108.175 98.7502 108.504 98.7464 108.835C98.696 109.511 98.5165 110.165 98.463 110.841C98.4352 111.366 98.4452 111.894 98.4929 112.417L98.8535 117.751C98.9235 118.536 98.8867 119.331 98.7449 120.101C99.1147 120.167 99.492 120.09 99.8252 119.88C100.164 119.684 100.472 119.425 100.797 119.202C101.356 118.81 101.973 118.546 102.461 118.027C102.55 117.941 102.626 117.837 102.687 117.719C102.765 117.495 102.818 117.259 102.844 117.016C102.886 116.828 102.938 116.643 103.002 116.464C103.182 115.926 103.34 115.377 103.474 114.819C103.566 114.448 103.638 114.071 103.69 113.689C103.729 113.385 103.75 113.077 103.772 112.772C103.797 112.291 103.874 111.817 104 111.362C104.312 110.275 104.489 109.136 104.524 107.983C104.535 107.816 104.526 107.649 104.498 107.486C104.443 107.288 104.37 107.098 104.28 106.921C104.131 106.571 104.041 106.185 103.899 105.831C103.584 105.027 103.019 104.418 102.428 103.907C102.126 103.658 101.794 103.388 101.466 103.543Z" fill="#2F2E41"/>
<path d="M93.948 112.245C93.6923 112.079 93.4607 111.86 93.263 111.599C93.1732 111.467 93.1055 111.321 93.0079 111.191C92.7766 110.885 92.4764 110.672 92.1465 110.58C91.8187 110.49 91.4835 110.45 91.148 110.461C90.9239 110.442 90.699 110.475 90.485 110.561C90.3776 110.604 90.2809 110.681 90.2038 110.784C90.1267 110.887 90.0717 111.012 90.0441 111.148C89.9953 111.481 90.1701 111.804 90.3795 112.016C90.5743 112.214 90.8034 112.353 91.0488 112.421C91.2489 112.464 91.4508 112.494 91.6535 112.509C92.8441 112.664 93.9071 113.469 94.9496 114.204C95.8661 114.847 96.8005 115.45 97.7528 116.011C97.7905 115.657 97.8063 115.3 97.8 114.942C97.8 114.676 97.7843 114.268 97.5811 114.112C97.3449 113.928 96.9512 113.886 96.6898 113.777C96.076 113.528 95.4767 113.227 94.8961 112.876C94.5669 112.678 94.252 112.468 93.948 112.245Z" fill="#FBBEBE"/>
<path d="M99.1528 103.88C100.324 103.88 101.274 102.692 101.274 101.226C101.274 99.7601 100.324 98.5719 99.1528 98.5719C97.9812 98.5719 97.0315 99.7601 97.0315 101.226C97.0315 102.692 97.9812 103.88 99.1528 103.88Z" fill="#FBBEBE"/>
<path d="M102.072 106.551C101.904 106.846 101.765 107.167 101.661 107.505C101.398 108.177 100.987 108.753 100.783 109.464C100.565 110.202 100.573 111.082 100.153 111.663C100.068 111.752 100.005 111.867 99.9685 111.996C99.9659 112.077 99.9585 112.158 99.9465 112.237C99.8866 112.449 99.6079 112.459 99.5559 112.674C99.5417 112.737 99.5559 112.805 99.5307 112.87C99.4882 113.009 99.3417 113.028 99.2425 113.113C99.0362 113.287 99.085 113.691 98.9276 113.941C98.8635 114.034 98.7809 114.105 98.688 114.145C98.5951 114.186 98.4952 114.195 98.3984 114.172C98.2054 114.122 98.0196 114.035 97.8472 113.916C97.7867 113.873 97.7196 113.847 97.6504 113.839C97.5682 113.842 97.4885 113.875 97.422 113.935C97.0299 114.245 96.8457 114.86 96.8488 115.44C96.8765 116.019 96.9869 116.588 97.1748 117.12C97.197 117.212 97.2339 117.297 97.2835 117.371C97.4126 117.541 97.6394 117.514 97.8126 117.418C97.9749 117.298 98.1477 117.202 98.3276 117.132C98.6551 117.057 98.9764 117.339 99.3087 117.316C99.5518 117.27 99.7806 117.144 99.9717 116.952C100.309 116.697 100.611 116.376 100.866 116.002C101.011 115.765 101.118 115.494 101.246 115.242C101.409 114.931 101.587 114.634 101.781 114.353L103.005 112.49C103.128 112.313 103.238 112.124 103.334 111.924C103.444 111.653 103.53 111.368 103.591 111.074C103.722 110.583 103.807 110.075 103.844 109.56C103.85 109.133 103.82 108.707 103.754 108.289C103.713 107.872 103.625 107.465 103.491 107.08C103.219 106.395 102.572 105.827 102.072 106.551Z" fill="#2F2E41"/>
<path d="M106.334 103.094C106.336 102.624 106.247 102.159 106.076 101.74C105.906 101.32 105.657 100.956 105.351 100.679C105.342 99.844 105.094 99.0399 104.653 98.4103C104.211 97.7808 103.604 97.3667 102.94 97.242C102.812 96.4507 102.463 95.7411 101.955 95.2384C101.447 94.7356 100.813 94.4719 100.164 94.4937C99.5156 94.5155 98.8938 94.8213 98.4085 95.3574C97.9233 95.8935 97.6057 96.6254 97.5118 97.4241C96.6299 97.1773 95.8236 97.4985 95.6772 98.1743C95.5197 98.8813 96.1496 99.7079 97.0819 100.021C97.374 100.124 97.6784 100.162 97.9811 100.133C98.1979 100.529 98.4788 100.864 98.8059 101.117C99.133 101.37 99.4989 101.535 99.8803 101.602C99.9923 102.241 100.246 102.828 100.611 103.298C100.977 103.767 101.441 104.1 101.951 104.26C102.092 104.684 102.311 105.061 102.591 105.36C102.591 105.443 102.58 105.527 102.58 105.613C102.569 105.914 102.608 106.215 102.694 106.497C102.78 106.779 102.91 107.036 103.078 107.253C103.246 107.471 103.447 107.644 103.67 107.762C103.893 107.881 104.133 107.941 104.375 107.941C104.617 107.941 104.857 107.881 105.08 107.762C105.303 107.644 105.504 107.471 105.672 107.253C105.839 107.036 105.97 106.779 106.056 106.497C106.141 106.215 106.18 105.914 106.17 105.613C106.17 105.275 106.112 104.941 105.998 104.634C106.22 104.168 106.336 103.636 106.334 103.094Z" fill="#F86D70"/>
<path opacity="0.1" d="M96.2756 98.3094C96.422 97.6337 97.2205 97.3124 98.1102 97.5592C98.2137 96.748 98.5443 96.0084 99.0437 95.4708C99.543 94.9333 100.179 94.6324 100.839 94.6213C100.901 94.6213 100.962 94.6213 101.022 94.6213C100.767 94.5245 100.501 94.4756 100.235 94.4764C99.5743 94.4874 98.9383 94.7883 98.439 95.3259C97.9396 95.8634 97.609 96.6031 97.5055 97.4143C96.6236 97.1675 95.8173 97.4887 95.6709 98.1645C95.5134 98.8715 96.1433 99.6981 97.0756 100.011C97.249 100.071 97.4268 100.109 97.6063 100.125C96.7212 99.8038 96.126 99.0008 96.2756 98.3094Z" fill="black"/>
<path opacity="0.1" d="M103.178 105.75C103.178 105.664 103.178 105.58 103.189 105.496C102.91 105.197 102.691 104.82 102.55 104.397C102.04 104.236 101.577 103.902 101.211 103.432C100.845 102.963 100.592 102.376 100.479 101.737C100.097 101.671 99.7312 101.506 99.4041 101.253C99.077 101 98.7961 100.664 98.5795 100.268C98.4031 100.285 98.2258 100.279 98.0504 100.25C98.2681 100.615 98.542 100.923 98.8562 101.155C99.1703 101.387 99.5185 101.539 99.8803 101.602C99.9923 102.241 100.246 102.828 100.611 103.298C100.977 103.767 101.441 104.1 101.951 104.26C102.092 104.684 102.311 105.061 102.591 105.36C102.591 105.443 102.58 105.527 102.58 105.613C102.571 106.214 102.755 106.794 103.089 107.227C103.424 107.66 103.883 107.91 104.365 107.924C104.013 107.755 103.711 107.457 103.498 107.068C103.286 106.68 103.174 106.22 103.178 105.75Z" fill="black"/>
<path d="M100.123 102.198C100.267 102.062 100.266 101.758 100.12 101.52C99.9745 101.281 99.7396 101.198 99.5955 101.334C99.4515 101.47 99.4528 101.774 99.5985 102.013C99.7443 102.251 99.9792 102.334 100.123 102.198Z" fill="#FBBEBE"/>
<path d="M49.4173 115.404L51.515 113.871C51.2315 113.268 50.869 112.729 50.4425 112.274L46.4866 113.804L49.5858 111.538C48.8184 111.015 47.9547 110.75 47.0799 110.769C46.205 110.787 45.3491 111.088 44.5963 111.643C43.8436 112.198 43.22 112.987 42.7868 113.933C42.3536 114.878 42.1259 115.948 42.126 117.036C42.126 120.497 44.3827 120.616 47.1654 120.616C49.948 120.616 52.2047 120.497 52.2047 117.036C52.2064 116.159 52.0588 115.291 51.7717 114.49L49.4173 115.404Z" fill="#F0A835"/>
<path opacity="0.1" d="M49.9512 118.769C49.7278 118.491 49.4782 118.247 49.2079 118.043C48.8283 117.727 48.4331 117.406 47.9843 117.3C47.5906 117.206 47.1843 117.287 46.7827 117.257C46.0854 117.204 45.429 116.83 44.9417 116.207C44.6551 115.839 44.4299 115.387 44.085 115.105C43.6996 114.82 43.2448 114.716 42.8031 114.813C42.6752 114.835 42.5484 114.867 42.4236 114.909C42.2262 115.591 42.1255 116.311 42.126 117.036C42.126 120.497 44.3827 120.616 47.1654 120.616C48.5165 120.616 49.7417 120.589 50.6472 120.164L50.4898 119.813C50.3467 119.438 50.1657 119.087 49.9512 118.769Z" fill="black"/>
</g>
<defs>
<linearGradient id="paint0_linear_41_67" x1="89.3701" y1="125.282" x2="89.3701" y2="94.0141" gradientUnits="userSpaceOnUse">
<stop stop-color="#808080" stop-opacity="0.25"/>
<stop offset="0.54" stop-color="#808080" stop-opacity="0.12"/>
<stop offset="1" stop-color="#808080" stop-opacity="0.1"/>
</linearGradient>
<clipPath id="clip0_41_67">
<rect width="180" height="130" fill="white"/>
</clipPath>
</defs>
</svg>
