<svg width="115" height="89" viewBox="0 0 115 89" fill="none" xmlns="http://www.w3.org/2000/svg">
<g clip-path="url(#clip0_32_492)">
<path d="M88.0346 81.0139C91.4165 81.0139 94.158 75.4203 94.158 68.5203C94.158 61.6203 91.4165 56.0268 88.0346 56.0268C84.6528 56.0268 81.9113 61.6203 81.9113 68.5203C81.9113 75.4203 84.6528 81.0139 88.0346 81.0139Z" fill="#3F3D56"/>
<path d="M87.4691 88.9703C89.9216 74.2566 87.4938 59.5961 87.469 59.4498L86.9919 59.5306C87.0166 59.6762 89.4305 74.2597 86.9918 88.8909L87.4691 88.9703Z" fill="#CACACA"/>
<path d="M82.6435 65.8339L82.4153 66.2606L87.9525 69.2222L88.1807 68.7955L82.6435 65.8339Z" fill="#CACACA"/>
<path d="M93.7964 67.3174L88.2599 70.2807L88.4883 70.7073L94.0248 67.7441L93.7964 67.3174Z" fill="#CACACA"/>
<path d="M102.747 73.1834C109.362 73.1834 114.724 62.2431 114.724 48.7475C114.724 35.2519 109.362 24.3116 102.747 24.3116C96.1327 24.3116 90.7706 35.2519 90.7706 48.7475C90.7706 62.2431 96.1327 73.1834 102.747 73.1834Z" fill="#E6E6E6"/>
<path d="M101.413 88.7072C106.204 59.967 101.462 31.3314 101.413 31.0455L100.936 31.1263C100.984 31.4115 105.712 59.97 100.936 88.6278L101.413 88.7072Z" fill="#CACACA"/>
<path d="M92.0937 43.6968L91.8655 44.1235L102.696 49.9162L102.924 49.4895L92.0937 43.6968Z" fill="#CACACA"/>
<path d="M114.126 46.5987L103.297 52.3943L103.525 52.821L114.354 47.0253L114.126 46.5987Z" fill="#CACACA"/>
<path d="M74.9317 88.784H11.2276C10.9933 88.7837 10.7687 88.6906 10.603 88.5249C10.4373 88.3592 10.3441 88.1346 10.3439 87.9003V47.6486C10.3441 47.4144 10.4373 47.1897 10.603 47.0241C10.7687 46.8584 10.9933 46.7652 11.2276 46.765H74.9317C75.166 46.7652 75.3906 46.8584 75.5563 47.0241C75.722 47.1897 75.8151 47.4144 75.8154 47.6486V87.9003C75.8151 88.1346 75.7219 88.3592 75.5563 88.5249C75.3906 88.6905 75.166 88.7837 74.9317 88.784Z" fill="#E4E4E4"/>
<path d="M17.086 51.6427C16.9856 51.6428 16.8893 51.6827 16.8183 51.7537C16.7473 51.8247 16.7074 51.921 16.7073 52.0214V83.5277C16.7074 83.6282 16.7473 83.7244 16.8183 83.7954C16.8893 83.8664 16.9856 83.9064 17.086 83.9065H69.0732C69.1737 83.9064 69.2699 83.8664 69.3409 83.7954C69.4119 83.7244 69.4519 83.6282 69.452 83.5277V52.0214C69.4519 51.921 69.4119 51.8247 69.3409 51.7537C69.2699 51.6827 69.1737 51.6428 69.0732 51.6427H17.086Z" fill="white"/>
<path d="M69.5782 59.7575V57.761H62.2264V51.5164H60.2298V57.761H47.141V51.5164H45.1445V57.761H24.9568V51.5164H22.9602V57.761H15.9794V59.7575H22.9602V67.5216H15.9794V69.5181H22.9602V77.8368H15.9794V79.8333H33.7196V84.0326H35.7162V79.8333H45.1445V84.0326H47.141V79.8333H69.5782V77.8368H47.141V69.5181H69.5782V67.5216H62.2264V59.7575H69.5782ZM45.1445 59.7575V62.1977H24.9568V59.7575H45.1445ZM24.9568 64.1941H45.1445V67.5216H24.9568V64.1941ZM24.9568 77.8368V69.5181H33.7196V77.8368H24.9568ZM45.1445 77.8368H35.7162V69.5181H45.1445V77.8368ZM60.2298 67.5216H47.141V59.7575H60.2298V67.5216Z" fill="#E6E6E6"/>
<path d="M46.1427 71.3235C47.5517 71.3235 48.6939 70.1813 48.6939 68.7724C48.6939 67.3635 47.5517 66.2213 46.1427 66.2213C44.7338 66.2213 43.5916 67.3635 43.5916 68.7724C43.5916 70.1813 44.7338 71.3235 46.1427 71.3235Z" fill="#F0C135"/>
<path d="M114.95 89H0V88.7245H115L114.95 89Z" fill="#CACACA"/>
<path d="M46.4485 53.6177C55.1401 53.6177 62.186 46.5721 62.186 37.881C62.186 29.1898 55.1401 22.1443 46.4485 22.1443C37.757 22.1443 30.7111 29.1898 30.7111 37.881C30.7111 46.5721 37.757 53.6177 46.4485 53.6177Z" fill="#F5DC3A"/>
<path d="M46.6025 63.4627L41.6306 54.9699L36.6587 46.4771L46.4999 46.4179L56.3412 46.3587L51.4718 54.9107L46.6025 63.4627Z" fill="#F5DC3A"/>
<path d="M46.5748 43.4281C49.6932 43.4281 52.2212 40.9003 52.2212 37.782C52.2212 34.6637 49.6932 32.1359 46.5748 32.1359C43.4564 32.1359 40.9285 34.6637 40.9285 37.782C40.9285 40.9003 43.4564 43.4281 46.5748 43.4281Z" fill="white"/>
<path d="M46.0845 0.0808608C46.0845 0.0808608 42.717 -0.867684 41.721 3.73275C40.725 8.33319 41.3576 7.75355 41.3576 7.75355L48.8751 6.87615C48.8751 6.87615 51.1357 1.47996 46.0845 0.0808608Z" fill="#2F2E41"/>
<path d="M41.1872 20.2631C41.1872 20.2631 36.1068 20.4983 36.9866 22.4924C37.0488 22.6333 37.1067 22.7654 37.1603 22.8886C37.7892 24.333 38.5131 25.7341 39.3272 27.0827L42.4497 32.2561L43.586 31.6249L40.3885 23.3135L43.2625 23.0789L41.1872 20.2631Z" fill="#FFB6B6"/>
<path d="M54.5825 22.3751L56.2248 25.9527C56.2248 25.9527 57.4565 27.1844 58.8056 32.111C60.1546 37.0376 60.4478 36.8617 60.4478 36.8617L59.1144 37.3057L53.6441 27.3603L50.946 23.9586L51.7672 22.1405L54.5825 22.3751Z" fill="#FFB6B6"/>
<path d="M52.5883 18.2695L54.9482 22.6617C54.9482 22.6617 60.2986 33.1747 59.7456 33.1398C59.124 33.1005 57.378 33.8251 56.8419 34.5284C56.5831 34.8679 52.802 26.5752 51.4738 24.7211L48.5998 22.4924C48.5998 22.4924 40.4397 23.8657 40.4297 23.4191C40.4248 23.2004 43.1313 28.4489 42.5759 28.2163C41.9431 27.9514 40.4546 29.2406 39.7984 28.9738C39.5277 28.8637 37.6147 24.2257 36.8403 22.3251C36.7431 22.0879 36.7381 21.8229 36.8261 21.5821C36.9141 21.3413 37.0889 21.1421 37.3162 21.0235C37.8982 20.7208 45.9846 18.8744 45.9846 18.8744L45.8432 18.1523L46.4297 16.9792L52.5883 18.2695Z" fill="#2F2E41"/>
<path d="M47.7491 5.32212C47.9515 4.07515 47.1046 2.90025 45.8576 2.6979C44.6105 2.49555 43.4356 3.34238 43.2332 4.58934C43.0309 5.8363 43.8777 7.01121 45.1248 7.21356C46.3718 7.41591 47.5467 6.56908 47.7491 5.32212Z" fill="#FFB6B6"/>
<path d="M52.8019 18.622C52.9283 19.0009 52.1102 19.2185 50.97 19.0056C49.9835 18.8215 48.9037 18.6027 48.052 18.4256C47.14 18.2356 46.4883 18.0936 46.4883 18.0936C46.4883 18.0936 46.2537 19.5599 45.4912 19.3839C44.8343 19.2326 42.8712 12.3758 42.3404 10.4808C42.3016 10.3425 42.3091 10.1952 42.3617 10.0615C42.4143 9.92775 42.5092 9.81489 42.6319 9.74006L45.3282 8.09374C45.3282 8.09374 47.1863 7.45563 47.8637 7.43745C48.5412 7.41927 49.7142 7.24332 49.7142 7.24332C49.7142 7.24332 51.0633 7.36062 51.2979 8.35767C51.5325 9.35472 52.5115 15.2663 52.5296 16.686C52.5494 18.2432 52.4232 17.4858 52.8019 18.622Z" fill="#CACACA"/>
<path d="M46.3465 2.0177C46.3465 2.0177 45.3979 4.53134 43.0739 5.57474L42.6945 3.34566L46.3465 2.0177Z" fill="#2F2E41"/>
<path d="M47.7201 4.69201C47.8982 4.69201 48.0426 4.4163 48.0426 4.07619C48.0426 3.73607 47.8982 3.46036 47.7201 3.46036C47.5419 3.46036 47.3975 3.73607 47.3975 4.07619C47.3975 4.4163 47.5419 4.69201 47.7201 4.69201Z" fill="#FFB6B6"/>
<path d="M44.5313 32.8426L39.9969 34.9271L39.9705 34.8698C39.7554 34.4017 39.7349 33.8674 39.9137 33.3842C40.0925 32.9011 40.4559 32.5088 40.924 32.2936L40.9241 32.2935L43.6936 31.0204L44.5313 32.8426Z" fill="#2F2E41"/>
<path d="M58.4384 37.0072L61.2198 35.7604C61.6899 35.5497 62.2246 35.5343 62.706 35.7177C63.1874 35.9011 63.5763 36.2683 63.787 36.7383L63.8128 36.7959L59.2588 38.8373L58.4384 37.0072Z" fill="#2F2E41"/>
<path opacity="0.2" d="M50.9082 13.1935L50.3772 19.0336L51.3211 19.0782L50.9082 13.1935Z" fill="black"/>
<path d="M47.2069 24.1036C47.3194 23.978 47.403 23.8293 47.4518 23.6679C47.5006 23.5065 47.5134 23.3364 47.4893 23.1695C47.4653 23.0026 47.4049 22.843 47.3125 22.702C47.2201 22.561 47.0979 22.4419 46.9545 22.3532L44.9144 12.0486L42.5718 12.9448L45.3137 22.7921C45.1806 23.0429 45.1442 23.3337 45.2113 23.6096C45.2784 23.8854 45.4444 24.1271 45.6777 24.2887C45.9111 24.4504 46.1956 24.5208 46.4775 24.4867C46.7593 24.4526 47.0188 24.3163 47.2069 24.1036Z" fill="#FFB6B6"/>
<path d="M45.4306 13.7853L42.8582 14.2384C42.785 14.2513 42.7099 14.2482 42.638 14.2295C42.5661 14.2107 42.4991 14.1767 42.4415 14.1297C42.3839 14.0827 42.3372 14.0238 42.3044 13.9572C42.2716 13.8905 42.2536 13.8175 42.2516 13.7432L42.1806 11.1403C42.1167 10.7654 42.2041 10.3805 42.4236 10.07C42.6431 9.75951 42.9767 9.54871 43.3514 9.48385C43.7261 9.41899 44.1112 9.50536 44.4223 9.72403C44.7334 9.94269 44.9451 10.2758 45.011 10.6503L45.8316 13.1127C45.855 13.1832 45.863 13.2579 45.855 13.3318C45.847 13.4057 45.8231 13.477 45.7851 13.5408C45.747 13.6046 45.6957 13.6595 45.6345 13.7017C45.5733 13.7439 45.5038 13.7724 45.4306 13.7853Z" fill="#CACACA"/>
<path d="M49.1791 23.9223C49.3259 23.8394 49.4528 23.7254 49.5508 23.5881C49.6488 23.4509 49.7155 23.2939 49.7462 23.1281C49.7769 22.9623 49.7709 22.7918 49.7286 22.6286C49.6863 22.4654 49.6087 22.3134 49.5013 22.1834L50.8735 11.7688L48.3671 11.8666L47.8064 22.073C47.6 22.2679 47.4722 22.5317 47.4473 22.8145C47.4224 23.0973 47.5021 23.3794 47.6713 23.6073C47.8405 23.8353 48.0875 23.9932 48.3654 24.0513C48.6432 24.1093 48.9328 24.0635 49.1791 23.9223Z" fill="#FFB6B6"/>
<path d="M50.8054 13.5793L48.2236 13.1836C48.1501 13.1724 48.08 13.1454 48.0179 13.1046C47.9558 13.0638 47.9032 13.01 47.8637 12.9471C47.8243 12.8841 47.7988 12.8134 47.7892 12.7397C47.7795 12.666 47.7859 12.5911 47.8077 12.5201L48.5752 10.0318C48.6349 9.65631 48.8411 9.31978 49.1486 9.09606C49.456 8.87233 49.8397 8.77966 50.2154 8.83836C50.5911 8.89707 50.9282 9.10236 51.1527 9.40923C51.3773 9.71609 51.471 10.0995 51.4133 10.4753L51.4009 13.0708C51.4005 13.1451 51.3841 13.2184 51.3528 13.2859C51.3215 13.3533 51.2761 13.4131 51.2196 13.4614C51.1631 13.5097 51.0968 13.5452 51.0253 13.5655C50.9539 13.5859 50.8788 13.5906 50.8054 13.5793Z" fill="#CACACA"/>
</g>
<defs>
<clipPath id="clip0_32_492">
<rect width="115" height="89" fill="white"/>
</clipPath>
</defs>
</svg>
