<?xml version="1.0" standalone="no"?>
<!DOCTYPE svg PUBLIC "-//W3C//DTD SVG 20010904//EN"
 "http://www.w3.org/TR/2001/REC-SVG-20010904/DTD/svg10.dtd">
<svg version="1.0" xmlns="http://www.w3.org/2000/svg"
 width="2048.000000pt" height="2048.000000pt" viewBox="0 0 2048.000000 2048.000000"
 preserveAspectRatio="xMidYMid meet">

<g transform="translate(0.000000,2048.000000) scale(0.100000,-0.100000)"
fill="#000000" stroke="none">
<path d="M11634 18795 c-104 -52 -311 -178 -510 -311 -78 -51 -149 -96 -158
-100 -31 -12 -35 -8 129 -110 50 -31 106 -65 125 -76 19 -11 42 -26 51 -34 8
-8 18 -14 21 -14 3 0 100 -57 214 -127 115 -69 292 -176 394 -236 102 -61 215
-129 252 -151 37 -23 178 -108 315 -190 136 -83 252 -153 256 -157 5 -3 -19
-26 -53 -50 -153 -110 -342 -251 -417 -310 -45 -35 -135 -104 -199 -154 -160
-124 -385 -306 -467 -378 l-68 -60 -197 -28 c-108 -16 -336 -42 -507 -59 -418
-40 -392 -36 -410 -69 -27 -53 -105 -295 -98 -302 9 -7 337 -173 723 -364 129
-64 238 -120 243 -124 4 -4 14 -34 23 -67 21 -82 156 -623 190 -766 24 -101
31 -118 48 -118 32 0 349 60 379 72 15 6 29 14 32 18 7 11 100 429 134 600 45
231 79 372 89 379 83 53 553 398 712 524 47 37 118 93 159 125 81 63 190 151
263 212 26 22 51 40 56 40 5 0 19 -73 31 -162 12 -90 35 -246 51 -348 15 -102
45 -304 64 -450 20 -146 52 -366 71 -490 19 -124 46 -304 60 -400 25 -171 42
-272 50 -298 5 -15 38 7 295 203 117 88 233 188 316 270 l132 130 6 205 c3
113 6 284 6 381 0 97 4 266 9 375 6 109 15 452 22 762 l13 562 45 27 c25 14
57 35 71 45 14 11 66 48 115 83 429 303 710 587 844 852 72 144 78 252 18 345
-60 94 -123 141 -257 189 -58 20 -82 23 -225 23 -180 0 -226 -9 -447 -88 -206
-74 -404 -168 -626 -298 -91 -53 -238 -154 -248 -169 -3 -6 -20 -7 -37 -3 -31
6 -202 66 -242 84 -11 5 -78 30 -150 54 -71 25 -242 83 -380 131 -137 47 -281
97 -320 110 -38 13 -155 54 -260 90 -311 109 -631 215 -647 215 -8 0 -55 -20
-104 -45z"/>
<path d="M3646 17278 c4 -13 88 -183 187 -378 349 -689 515 -1017 594 -1170
44 -85 164 -319 266 -520 263 -519 678 -1332 724 -1420 22 -41 131 -255 243
-475 111 -220 222 -436 245 -480 24 -44 143 -278 265 -520 122 -242 225 -444
230 -448 4 -5 40 38 80 95 85 120 99 139 292 398 178 238 225 299 246 325 10
11 47 59 84 106 203 264 608 742 883 1044 45 50 129 142 186 205 57 63 160
174 229 245 125 129 292 303 298 309 2 2 -42 93 -98 202 -56 110 -168 330
-250 489 -81 160 -188 369 -237 465 -50 96 -163 319 -253 495 -268 529 -409
803 -477 933 l-64 122 -1840 0 -1840 0 7 -22z"/>
<path d="M10640 15139 c-102 -4 -297 -12 -435 -18 -137 -6 -330 -14 -428 -18
l-179 -6 -415 -411 c-229 -226 -468 -467 -531 -536 -63 -69 -150 -161 -192
-205 -42 -44 -136 -147 -210 -230 -73 -82 -149 -168 -169 -190 -40 -45 -109
-125 -252 -290 -387 -450 -900 -1110 -1204 -1550 -138 -200 -398 -592 -445
-670 -26 -44 -100 -167 -164 -273 -284 -470 -619 -1111 -842 -1612 -39 -89
-58 -132 -106 -240 -11 -24 -45 -103 -75 -175 -29 -71 -58 -139 -62 -150 -28
-67 -64 -161 -87 -230 -15 -44 -30 -84 -34 -90 -19 -26 -254 -692 -310 -880
-10 -33 -39 -125 -64 -205 -78 -245 -172 -574 -230 -805 -31 -121 -65 -254
-76 -295 -21 -77 -77 -307 -90 -370 -4 -19 -28 -127 -53 -240 -25 -113 -55
-254 -66 -315 -11 -60 -34 -182 -51 -270 -64 -328 -90 -476 -124 -705 -92
-622 -114 -799 -156 -1255 -24 -258 -38 -396 -46 -455 -11 -86 5 -34 41 130
39 182 80 355 125 530 16 63 41 162 55 220 43 178 157 584 215 765 20 66 50
161 65 210 60 196 194 589 260 760 15 39 53 138 85 220 55 143 177 447 205
510 7 17 48 109 90 205 43 96 102 226 131 289 30 62 54 116 54 118 0 7 234
475 306 613 203 387 301 561 549 975 241 401 481 765 829 1254 45 62 99 139
120 170 155 221 631 822 921 1160 208 244 491 568 555 636 31 33 130 139 220
235 174 185 786 801 1055 1061 294 284 774 723 1212 1107 153 134 162 144 168
185 3 23 19 146 35 272 16 127 52 399 80 605 28 206 54 396 57 423 l6 47 -79
-2 c-43 0 -162 -5 -264 -9z"/>
<path d="M9247 11948 c-710 -709 -1305 -1362 -1734 -1901 -58 -73 -61 -79 -50
-105 13 -29 125 -250 387 -767 92 -181 282 -557 423 -835 247 -491 446 -882
754 -1490 83 -162 261 -515 398 -785 136 -269 321 -634 410 -810 253 -497 518
-1021 745 -1470 114 -225 257 -507 317 -625 61 -118 210 -411 331 -650 121
-239 270 -532 330 -650 l110 -215 1726 -3 c949 -1 1726 0 1726 1 0 8 -892
1771 -1190 2352 -59 116 -175 343 -258 505 -401 790 -472 930 -572 1125 -108
210 -267 523 -578 1135 -91 179 -209 411 -262 515 -53 105 -177 348 -275 540
-98 193 -207 406 -243 475 -36 69 -118 229 -182 355 -121 238 -356 700 -595
1170 -76 149 -156 304 -178 345 -22 41 -115 224 -207 405 -92 182 -210 413
-262 515 -52 102 -188 370 -303 595 -311 612 -342 669 -354 673 -6 2 -193
-178 -414 -400z"/>
</g>
</svg>
