<svg width="180" height="130" viewBox="0 0 180 130" fill="none" xmlns="http://www.w3.org/2000/svg">
<g clip-path="url(#clip0_41_155)">
<path d="M149.034 129.815L149.521 129.804C149.333 123.627 148.755 117.473 147.792 111.391C145.685 98.3682 142.183 89.8157 137.381 85.9708L137.101 86.4254C148.318 95.4071 149.028 129.471 149.034 129.815Z" fill="#2F2E41"/>
<path d="M142.945 129.682L143.432 129.671C143.421 129.056 143.117 114.556 138.112 110.548L137.832 111.003C142.635 114.849 142.942 129.534 142.945 129.682Z" fill="#2F2E41"/>
<path d="M134.33 86.4759C135.675 86.4759 136.765 85.2322 136.765 83.6981C136.765 82.1639 135.675 80.9203 134.33 80.9203C132.985 80.9203 131.894 82.1639 131.894 83.6981C131.894 85.2322 132.985 86.4759 134.33 86.4759Z" fill="#F0A835"/>
<path d="M135.536 110.365C136.881 110.365 137.972 109.121 137.972 107.587C137.972 106.053 136.881 104.809 135.536 104.809C134.191 104.809 133.1 106.053 133.1 107.587C133.1 109.121 134.191 110.365 135.536 110.365Z" fill="#F0A835"/>
<path d="M144.08 88.141C143.622 91.4755 144.815 94.4578 144.815 94.4578C144.815 94.4578 146.751 92.034 147.208 88.6996C147.666 85.3651 146.473 82.3827 146.473 82.3827C146.473 82.3827 144.538 84.8066 144.08 88.141Z" fill="#2F2E41"/>
<path d="M136.118 96.2393C138.918 97.3344 141.701 96.5142 141.701 96.5142C141.701 96.5142 139.945 93.9186 137.146 92.8236C134.346 91.7285 131.563 92.5487 131.563 92.5487C131.563 92.5487 133.319 95.1442 136.118 96.2393Z" fill="#2F2E41"/>
<path d="M136.028 117.395C137.295 117.849 138.645 117.915 139.941 117.588C139.118 116.393 138.009 115.494 136.748 115.001C135.488 114.508 134.129 114.441 132.836 114.808C133.683 115.975 134.784 116.867 136.028 117.395Z" fill="#2F2E41"/>
<path d="M79.1845 43.1103L63.4808 33.7976C63.4808 33.7976 58.2072 27.1745 54.8954 24.183C51.5835 21.1914 50.564 23.3891 50.564 23.3891L49.1718 26.0353L52.5363 31.3719L61.6245 40.1486L77.8634 47.4023C78.1173 47.8766 78.4841 48.2589 78.921 48.5049C79.358 48.7509 79.8471 48.8505 80.3317 48.7921C80.8163 48.7336 81.2764 48.5196 81.6585 48.1748C82.0407 47.8301 82.3292 47.3687 82.4907 46.8444C82.6521 46.32 82.6797 45.7542 82.5703 45.2127C82.461 44.6712 82.2192 44.1761 81.873 43.7851C81.5267 43.3941 81.0903 43.1231 80.6144 43.0036C80.1386 42.8842 79.6427 42.9212 79.1845 43.1103Z" fill="#9F616A"/>
<path d="M38.3376 35.0561L37.4078 28.5693L34.7826 27.8209C34.7826 27.8209 32.6991 27.089 32.2121 31.8751C31.7251 36.6611 32.1027 45.597 32.1027 45.597L26.7727 64.8457C26.3293 65.0809 25.9536 65.4549 25.6894 65.9241C25.4252 66.3933 25.2834 66.9385 25.2803 67.4962C25.2773 68.0538 25.4132 68.6009 25.6723 69.0739C25.9314 69.5468 26.3029 69.9261 26.7437 70.1675C27.1845 70.409 27.6763 70.5027 28.162 70.4377C28.6476 70.3727 29.1071 70.1517 29.4868 69.8004C29.8666 69.4491 30.1511 68.982 30.3071 68.4535C30.4631 67.925 30.4843 67.3569 30.3681 66.8152L37.3532 48.5909L38.3376 35.0561Z" fill="#9F616A"/>
<path d="M60.0516 126.087L63.4867 126.087L65.121 110.976L60.0508 110.977L60.0516 126.087Z" fill="#9F616A"/>
<path d="M59.1753 124.808L65.9405 124.808H65.9408C67.0842 124.808 68.1808 125.326 68.9893 126.248C69.7978 127.17 70.252 128.421 70.2521 129.725V129.885L59.1755 129.885L59.1753 124.808Z" fill="#2F2E41"/>
<path d="M22.5831 126.087L26.0184 126.087L27.6525 110.976L22.5826 110.977L22.5831 126.087Z" fill="#9F616A"/>
<path d="M21.7069 124.808L28.4721 124.808H28.4724C29.6158 124.808 30.7124 125.326 31.5209 126.248C32.3294 127.17 32.7837 128.421 32.7837 129.725V129.885L21.7071 129.885L21.7069 124.808Z" fill="#2F2E41"/>
<path d="M39.5423 22.0983L33.8444 27.6453L38.5205 44.5211L39.5756 48.2894C39.5756 48.2894 33.1331 55.0636 29.1468 73.9872C25.1606 92.9108 18.6396 118.056 18.6396 118.056L32.4043 122.549L43.6029 79.7422L56.7751 113.326L58.2959 123.259L70.0179 119.317L67.2528 94.4054L53.4275 51.2829L54.8636 39.8519C54.8636 39.8519 57.0202 34.1462 53.2737 28.1055L52.0985 22.4294L47.8888 21.2469L39.5423 22.0983Z" fill="#2F2E41"/>
<path d="M49.0081 19.0827H33.6032C33.2863 19.0823 32.9826 18.9385 32.7585 18.683C32.5344 18.4275 32.4084 18.081 32.408 17.7196V10.1471C32.408 7.45592 33.3454 4.87496 35.0141 2.972C36.6827 1.06904 38.9459 -3.05176e-05 41.3057 -3.05176e-05C43.6655 -3.05176e-05 45.9286 1.06904 47.5972 2.972C49.2659 4.87496 50.2033 7.45592 50.2033 10.1471V17.7196C50.2029 18.081 50.0769 18.4275 49.8528 18.683C49.6288 18.9385 49.325 19.0823 49.0081 19.0827Z" fill="#2F2E41"/>
<path d="M48.858 15.0353C50.5861 11.4301 49.4243 6.90983 46.263 4.93903C43.1018 2.96823 39.1381 4.29319 37.41 7.89843C35.6819 11.5037 36.8437 16.0239 40.005 17.9947C43.1663 19.9655 47.1299 18.6405 48.858 15.0353Z" fill="#9F616A"/>
<path d="M52.3083 10.9044H42.8886L42.792 9.36209L42.309 10.9044H40.8586L40.6672 7.84759L39.7099 10.9044H36.9034V10.7529C36.9055 8.62483 37.6477 6.58457 38.9672 5.07977C40.2867 3.57496 42.0757 2.7285 43.9418 2.7261H45.2698C47.1359 2.7285 48.9249 3.57495 50.2444 5.07976C51.5639 6.58456 52.3062 8.62483 52.3083 10.7529V10.9044Z" fill="#2F2E41"/>
<path d="M42.8115 20.4962C42.7406 20.4962 42.6698 20.489 42.5999 20.475L35.7024 19.0871V6.08662H43.2953L43.1073 6.33657C40.4919 9.81518 42.4623 15.4558 43.8696 18.5085C43.9733 18.732 44.0196 18.9845 44.003 19.2367C43.9865 19.489 43.9078 19.7308 43.776 19.9342C43.6657 20.1082 43.5207 20.2499 43.353 20.3476C43.1854 20.4453 42.9998 20.4962 42.8115 20.4962Z" fill="#2F2E41"/>
<path d="M99.8534 88.6516L39.4034 113.026C37.9088 113.626 36.2663 113.526 34.8364 112.747C33.4064 111.968 32.3058 110.574 31.7758 108.871L21.3914 75.3754C20.8648 73.6709 20.9527 71.7978 21.6356 70.167C22.3185 68.5363 23.5408 67.281 25.0342 66.6767L85.4843 42.3026C86.9789 41.7021 88.6213 41.8023 90.0513 42.5811C91.4812 43.36 92.5819 44.7539 93.1118 46.457L103.496 79.9529C104.023 81.6574 103.935 83.5305 103.252 85.1612C102.569 86.792 101.347 88.0472 99.8534 88.6516Z" fill="white"/>
<path d="M103.496 79.9529L103.551 80.1301C104.056 81.7579 103.972 83.5476 103.32 85.1054C102.667 86.6632 101.499 87.8615 100.071 88.4367L39.3189 112.933C37.8918 113.508 36.3228 113.413 34.957 112.669C33.5912 111.925 32.5404 110.593 32.0357 108.966L31.9808 108.789L103.496 79.9529Z" fill="#F2F2F2"/>
<path d="M35.631 74.4538C31.624 77.4606 26.4886 75.1977 24.6926 71.9017L24.9789 71.7161C28.3902 69.2912 33.4561 70.6422 35.631 74.4538Z" fill="#F0A835"/>
<path d="M85.8436 82.9847C84.8628 83.3801 83.9798 83.362 83.2186 82.9307C81.4983 81.956 80.6911 79.0657 80.0425 76.7432C79.8537 76.0676 79.6755 75.4293 79.494 74.9077L79.4914 74.8998C79.1756 73.865 79.2306 72.7299 79.6444 71.7411C80.0582 70.7523 80.7974 69.9896 81.7015 69.6188L89.8325 66.3403C90.812 65.9453 91.6941 65.9633 92.4546 66.3938C94.1745 67.3674 94.9824 70.2567 95.6316 72.5783C95.8209 73.2553 95.9997 73.8948 96.1818 74.4172C96.4994 75.453 96.4454 76.5899 96.0317 77.5805C95.618 78.5712 94.8779 79.3354 93.9726 79.7069L85.8436 82.9847ZM79.8321 74.7593C80.0177 75.2935 80.1974 75.9368 80.3876 76.6178C81.0155 78.866 81.7969 81.6639 83.3798 82.5608C84.0592 82.9457 84.8256 82.957 85.7228 82.5952L93.8514 79.3177C94.6656 78.9838 95.3315 78.2971 95.7043 77.4066C96.0771 76.5161 96.1268 75.4938 95.8426 74.5618C95.6584 74.034 95.4777 73.3879 95.2864 72.7038C94.658 70.4565 93.8759 67.6596 92.2935 66.7639C91.6148 66.3796 90.8492 66.3685 89.9533 66.7297L81.8227 70.0081C81.0094 70.3418 80.3443 71.0279 79.9716 71.9173C79.5989 72.8068 79.5488 73.828 79.8321 74.7593Z" fill="#3F3D56"/>
<path d="M33.9457 75.5365C32.5169 76.1015 30.9777 76.198 29.5032 75.815C27.3499 75.2757 25.3957 73.8095 24.4032 71.9887L24.3038 71.8062L24.7507 71.5165C28.2132 69.0569 33.4055 70.3903 35.6466 74.3171L35.7449 74.4893L35.5944 74.6023C35.0801 74.9887 34.5264 75.3024 33.9457 75.5365ZM24.8133 71.9511C25.7846 73.5968 27.5919 74.9133 29.5809 75.4115C31.5145 75.9265 33.5481 75.5522 35.2414 74.3697C33.0491 70.7533 28.192 69.5537 24.9393 71.8693L24.8133 71.9511Z" fill="#3F3D56"/>
<path d="M36.0694 99.5777C35.5618 99.8069 35.0091 99.874 34.4705 99.772C33.9319 99.6701 33.4279 99.4028 33.0124 98.9988C32.5262 98.5141 32.1575 97.8948 31.9421 97.2005C31.7266 96.5062 31.6715 95.7603 31.7822 95.0347C31.8851 94.4103 32.1374 93.8306 32.5114 93.3598C32.8854 92.889 33.3663 92.5454 33.901 92.3672L44.7349 87.9989C45.249 87.7559 45.812 87.6795 46.3618 87.7781C46.9116 87.8768 47.4269 88.1467 47.8507 88.558C48.3367 89.0429 48.7051 89.6623 48.9202 90.3566C49.1354 91.0509 49.1902 91.7967 49.0793 92.5222C48.8654 93.7971 48.1106 94.7364 46.9601 95.186L36.1261 99.5544C36.1072 99.5623 36.0883 99.5701 36.0694 99.5777ZM33.9684 92.7777C33.5061 92.9404 33.0915 93.2437 32.769 93.655C32.4465 94.0663 32.2284 94.5701 32.1381 95.1121C32.0384 95.7658 32.0879 96.4378 32.2821 97.0633C32.4762 97.6888 32.8083 98.2467 33.2464 98.6833C33.6219 99.0462 34.0783 99.2834 34.5648 99.3686C35.0513 99.4538 35.5491 99.3836 36.0028 99.1659L46.8419 94.7954C47.3152 94.6397 47.7415 94.3377 48.0736 93.9228C48.4057 93.5079 48.6307 92.9962 48.7235 92.4445C48.8235 91.7909 48.7741 91.119 48.5802 90.4935C48.3863 89.868 48.0545 89.31 47.6166 88.8732C47.2405 88.5107 46.7839 88.2735 46.2972 88.1877C45.8105 88.102 45.3125 88.1711 44.858 88.3874L34.0182 92.7581C34.0015 92.7645 33.9849 92.771 33.9684 92.7777Z" fill="#3F3D56"/>
<path d="M85.9161 73.1294L82.5008 74.5064C82.2743 74.5977 82.0254 74.5827 81.8086 74.4647C81.5919 74.3466 81.4252 74.1352 81.3451 73.877C81.265 73.6187 81.2782 73.3348 81.3817 73.0876C81.4852 72.8405 81.6706 72.6503 81.897 72.559L85.3123 71.1819C85.5387 71.0906 85.7877 71.1056 86.0044 71.2237C86.2212 71.3417 86.3879 71.5531 86.468 71.8114C86.548 72.0696 86.5349 72.3536 86.4314 72.6007C86.3279 72.8479 86.1425 73.0381 85.9161 73.1294Z" fill="#F0A835"/>
<path d="M86.882 76.2453L83.4668 77.6223C83.2403 77.7137 82.9913 77.6986 82.7746 77.5806C82.5579 77.4625 82.3911 77.2511 82.3111 76.9929C82.231 76.7346 82.2442 76.4507 82.3477 76.2035C82.4512 75.9564 82.6366 75.7662 82.863 75.6749L86.2783 74.2978C86.5047 74.2065 86.7537 74.2216 86.9704 74.3396C87.1872 74.4576 87.3539 74.669 87.434 74.9273C87.514 75.1855 87.5009 75.4695 87.3973 75.7166C87.2938 75.9638 87.1085 76.154 86.882 76.2453Z" fill="#F0A835"/>
<path d="M87.848 79.3612L84.4328 80.7382C84.3206 80.7835 84.2018 80.803 84.083 80.7959C83.9643 80.7887 83.8479 80.7549 83.7406 80.6965C83.6333 80.638 83.5371 80.556 83.4576 80.4552C83.3781 80.3544 83.3167 80.2367 83.2771 80.1088C83.2374 79.9809 83.2203 79.8454 83.2265 79.71C83.2328 79.5745 83.2624 79.4418 83.3137 79.3194C83.3649 79.197 83.4368 79.0874 83.5253 78.9967C83.6137 78.906 83.7169 78.836 83.829 78.7908L87.2443 77.4137C87.3564 77.3685 87.4752 77.349 87.594 77.3561C87.7127 77.3633 87.8291 77.3971 87.9364 77.4555C88.0438 77.514 88.1399 77.5959 88.2195 77.6968C88.299 77.7976 88.3603 77.9153 88.4 78.0432C88.4396 78.1711 88.4568 78.3066 88.4505 78.442C88.4442 78.5775 88.4146 78.7102 88.3633 78.8325C88.3121 78.9549 88.2402 79.0646 88.1518 79.1553C88.0634 79.246 87.9602 79.316 87.848 79.3612Z" fill="#F0A835"/>
<path d="M91.8927 70.7195L88.4775 72.0965C88.3654 72.1418 88.2465 72.1613 88.1278 72.1542C88.009 72.147 87.8926 72.1132 87.7853 72.0548C87.678 71.9963 87.5818 71.9144 87.5023 71.8135C87.4228 71.7127 87.3614 71.595 87.3218 71.4671C87.2821 71.3392 87.265 71.2037 87.2713 71.0683C87.2775 70.9328 87.3071 70.8001 87.3584 70.6777C87.4097 70.5554 87.4815 70.4457 87.57 70.355C87.6584 70.2643 87.7616 70.1943 87.8737 70.1491L91.289 68.772C91.5154 68.6807 91.7644 68.6958 91.9811 68.8138C92.1979 68.9319 92.3646 69.1433 92.4447 69.4015C92.5247 69.6597 92.5116 69.9437 92.4081 70.1909C92.3045 70.438 92.1192 70.6282 91.8927 70.7195Z" fill="#F0A835"/>
<path d="M92.8588 73.8354L89.4435 75.2125C89.3314 75.2577 89.2126 75.2773 89.0938 75.2701C88.975 75.2629 88.8587 75.2292 88.7514 75.1707C88.644 75.1123 88.5479 75.0303 88.4683 74.9294C88.3888 74.8286 88.3275 74.7109 88.2878 74.583C88.2482 74.4552 88.231 74.3196 88.2373 74.1842C88.2436 74.0487 88.2732 73.916 88.3244 73.7937C88.3757 73.6713 88.4476 73.5616 88.536 73.4709C88.6244 73.3802 88.7276 73.3102 88.8398 73.265L92.255 71.888C92.3671 71.8428 92.486 71.8232 92.6047 71.8303C92.7235 71.8375 92.8399 71.8713 92.9472 71.9297C93.0545 71.9882 93.1506 72.0702 93.2302 72.171C93.3097 72.2718 93.3711 72.3895 93.4107 72.5174C93.4503 72.6453 93.4675 72.7808 93.4612 72.9162C93.455 73.0517 93.4253 73.1844 93.3741 73.3068C93.3228 73.4292 93.2509 73.5388 93.1625 73.6295C93.0741 73.7202 92.9709 73.7902 92.8588 73.8354Z" fill="#F0A835"/>
<path d="M93.8247 76.9513L90.4095 78.3284C90.183 78.4197 89.934 78.4047 89.7173 78.2866C89.5006 78.1686 89.3339 77.9572 89.2538 77.6989C89.1737 77.4407 89.1869 77.1567 89.2904 76.9096C89.3939 76.6624 89.5793 76.4722 89.8057 76.3809L93.221 75.0039C93.3331 74.9587 93.4519 74.9391 93.5707 74.9462C93.6895 74.9534 93.8058 74.9872 93.9131 75.0456C94.0205 75.1041 94.1166 75.1861 94.1962 75.2869C94.2757 75.3877 94.337 75.5054 94.3767 75.6333C94.4163 75.7612 94.4335 75.8967 94.4272 76.0321C94.4209 76.1676 94.3913 76.3003 94.3401 76.4227C94.2888 76.5451 94.2169 76.6547 94.1285 76.7454C94.0401 76.8361 93.9369 76.9061 93.8247 76.9513Z" fill="#F0A835"/>
<path d="M95.3729 53.7484L23.8572 82.5844L23.978 82.9739L95.4937 54.1379L95.3729 53.7484Z" fill="#3F3D56"/>
<path d="M99.8534 88.6516L39.4034 113.026C37.9088 113.626 36.2663 113.526 34.8364 112.747C33.4064 111.968 32.3058 110.574 31.7758 108.871L21.3914 75.3754C20.8648 73.6709 20.9527 71.7978 21.6356 70.167C22.3185 68.5363 23.5408 67.281 25.0342 66.6767L85.4843 42.3026C86.9789 41.7021 88.6213 41.8023 90.0513 42.5811C91.4812 43.36 92.5819 44.7539 93.1118 46.457L103.496 79.9529C104.023 81.6574 103.935 83.5305 103.252 85.1612C102.569 86.792 101.347 88.0472 99.8534 88.6516ZM25.1549 67.0662C23.752 67.6339 22.6039 68.8131 21.9623 70.345C21.3208 71.8769 21.2383 73.6365 21.7329 75.2377L32.1174 108.734C32.6152 110.333 33.6491 111.643 34.9924 112.375C36.3357 113.106 37.8786 113.2 39.2826 112.636L99.7327 88.2621C101.136 87.6944 102.284 86.5152 102.925 84.9833C103.567 83.4514 103.649 81.6918 103.155 80.0906L92.7703 46.5947C92.2725 44.9948 91.2385 43.6854 89.8952 42.9538C88.5519 42.2221 87.009 42.128 85.605 42.6921L25.1549 67.0662Z" fill="#3F3D56"/>
<path d="M179.756 130H0.243572C0.178973 130 0.117019 129.971 0.0713405 129.919C0.0256618 129.867 0 129.796 0 129.722C0 129.649 0.0256618 129.578 0.0713405 129.526C0.117019 129.474 0.178973 129.444 0.243572 129.444H179.756C179.821 129.444 179.883 129.474 179.929 129.526C179.974 129.578 180 129.649 180 129.722C180 129.796 179.974 129.867 179.929 129.919C179.883 129.971 179.821 130 179.756 130Z" fill="#CBCBCB"/>
</g>
<defs>
<clipPath id="clip0_41_155">
<rect width="180" height="130" fill="white"/>
</clipPath>
</defs>
</svg>
