<svg width="180" height="130" viewBox="0 0 180 130" fill="none" xmlns="http://www.w3.org/2000/svg">
<g clip-path="url(#clip0_41_233)">
<path d="M96.2716 18.2597C102.243 14.4931 110.65 13.0492 117.228 15.9876C109.823 18.7332 103.793 23.6269 100.207 29.8029C98.8335 32.189 97.5972 34.9651 94.7641 36.0679C93.0013 36.7541 90.9208 36.6216 89.0954 36.0675C87.2699 35.5134 85.6462 34.5721 84.045 33.6407L83.5648 33.5913C86.4143 27.7377 90.3002 22.0263 96.2716 18.2597Z" fill="#F0F0F0"/>
<path d="M117.175 16.1127C111.033 16.277 105.108 18.0897 100.241 21.2931C99.1793 21.9669 98.2483 22.7793 97.4825 23.7006C96.7705 24.6187 96.3595 25.6828 96.292 26.7824C96.205 27.8066 96.2549 28.8628 95.8778 29.8511C95.676 30.3545 95.3518 30.8158 94.9265 31.2048C94.5013 31.5937 93.9846 31.9015 93.4102 32.108C91.9948 32.6543 90.4339 32.7337 88.9044 32.766C87.2061 32.8019 85.4415 32.8163 83.897 33.4991C83.7099 33.5818 83.5704 33.329 83.7573 33.2464C86.4444 32.0585 89.5845 32.8336 92.4088 32.1265C93.7267 31.7966 94.9361 31.1256 95.4652 30.0029C95.9279 29.0211 95.8776 27.9319 95.9552 26.8942C96.0026 25.8207 96.3571 24.7734 96.9878 23.8439C97.6961 22.8923 98.5889 22.0505 99.628 21.3547C101.938 19.7562 104.528 18.4779 107.303 17.5664C110.464 16.5112 113.812 15.9254 117.204 15.8344C117.414 15.8288 117.384 16.1072 117.175 16.1127Z" fill="white"/>
<path d="M101.737 20.1828C101.219 19.4127 101.038 18.5101 101.226 17.6365C101.415 16.7628 101.962 15.9749 102.768 15.4134C102.931 15.3003 103.145 15.512 102.981 15.6253C102.229 16.147 101.72 16.881 101.547 17.6948C101.373 18.5087 101.545 19.3488 102.033 20.0636C102.139 20.219 101.843 20.3374 101.737 20.1828Z" fill="white"/>
<path d="M96.256 26.2581C98.3044 26.747 100.493 26.5587 102.386 25.7307C102.574 25.6485 102.713 25.9013 102.526 25.9834C100.554 26.8418 98.2758 27.0339 96.1455 26.5211C95.9425 26.4721 96.0541 26.2094 96.256 26.2581Z" fill="white"/>
<path d="M110.448 16.8814C110.576 17.2152 110.799 17.5165 111.097 17.7584C111.395 18.0004 111.759 18.1753 112.156 18.2675C112.359 18.3143 112.247 18.577 112.045 18.5305C111.607 18.4269 111.206 18.2333 110.876 17.9666C110.546 17.6999 110.297 17.3683 110.152 17.0007C110.135 16.967 110.134 16.9291 110.148 16.8945C110.163 16.86 110.192 16.8315 110.23 16.8148C110.269 16.7991 110.314 16.7974 110.355 16.8099C110.396 16.8224 110.429 16.8481 110.448 16.8814Z" fill="white"/>
<path d="M122.444 36.9838C122.316 36.9577 122.187 36.9316 122.057 36.907C120.333 36.5635 118.578 36.3402 116.811 36.2393C116.675 36.2297 116.536 36.2217 116.4 36.2154C112.139 36.0111 107.872 36.484 103.814 37.6099C102.2 38.0593 100.628 38.6128 99.1116 39.2658C97.0181 40.1676 94.8322 41.2877 92.5784 41.539C92.3436 41.5674 92.1069 41.5835 91.8698 41.5869L83.5316 34.0954C83.5226 34.0702 83.5116 34.0466 83.5026 34.0214L83.1536 33.7353C83.2291 33.6969 83.3083 33.6585 83.3837 33.6202C83.4273 33.5978 83.4728 33.5771 83.5165 33.5547C83.5462 33.5403 83.576 33.526 83.6018 33.5115C83.6116 33.5067 83.6216 33.5019 83.6295 33.4987C83.6553 33.4843 83.6811 33.4732 83.7049 33.4604C84.1469 33.2448 84.5914 33.0315 85.0385 32.8205C85.0405 32.8189 85.0405 32.8189 85.0444 32.8189C88.4558 31.2185 92.0536 29.8472 95.7808 28.9858C95.8929 28.9599 96.007 28.9323 96.1229 28.9098C97.8055 28.5295 99.5217 28.2672 101.254 28.1256C102.203 28.0507 103.156 28.0169 104.109 28.0242C106.572 28.0472 109.014 28.4008 111.348 29.0721C116 30.4107 120.099 33.0049 122.28 36.7001C122.336 36.7946 122.39 36.8876 122.444 36.9838Z" fill="#F0F0F0"/>
<path d="M122.314 37.0573C117.294 34.031 111.285 32.4321 105.14 32.4879C103.817 32.4799 102.501 32.65 101.24 32.9919C100.024 33.3589 98.9455 33.9972 98.1164 34.8405C97.3247 35.6135 96.6198 36.4825 95.6219 37.0777C95.1058 37.3759 94.5217 37.5776 93.9079 37.6695C93.2941 37.7615 92.6645 37.7416 92.0603 37.6112C90.545 37.3197 89.2428 36.5806 87.9987 35.8201C86.6174 34.9757 85.1983 34.08 83.4837 33.8312C83.276 33.801 83.3429 33.5275 83.5503 33.5576C86.5335 33.9905 88.4942 36.2237 91.2477 37.1111C92.5326 37.5252 93.9714 37.6112 95.1855 36.9868C96.2472 36.4408 96.975 35.5452 97.7686 34.7566C98.5634 33.9238 99.5848 33.2699 100.744 32.8519C101.98 32.4563 103.287 32.2432 104.607 32.2218C107.579 32.1331 110.548 32.4439 113.406 33.1429C116.674 33.9251 119.76 35.1788 122.533 36.8499C122.704 36.9533 122.484 37.1601 122.314 37.0573Z" fill="white"/>
<path d="M107.117 32.3705C107.246 31.489 107.738 30.6752 108.505 30.0747C109.272 29.4742 110.263 29.1259 111.303 29.0921C111.514 29.0859 111.535 29.3648 111.324 29.371C110.356 29.401 109.432 29.7254 108.719 30.2859C108.007 30.8464 107.552 31.6059 107.438 32.4274C107.413 32.6059 107.092 32.548 107.117 32.3705Z" fill="white"/>
<path d="M98.4573 34.4034C99.7481 35.8468 101.629 36.8217 103.724 37.1338C103.931 37.1646 103.865 37.4381 103.657 37.4073C101.478 37.0791 99.523 36.0611 98.1837 34.5566C98.0561 34.4131 98.3304 34.2607 98.4573 34.4034Z" fill="white"/>
<path d="M116.4 34.2127C116.267 34.5449 116.233 34.9001 116.3 35.2465C116.368 35.5929 116.535 35.9196 116.786 36.1972C116.916 36.3392 116.642 36.4915 116.513 36.3504C116.236 36.0426 116.052 35.6816 115.977 35.2991C115.901 34.9165 115.937 34.524 116.08 34.1558C116.09 34.1201 116.116 34.0891 116.152 34.069C116.188 34.0488 116.231 34.0412 116.273 34.0475C116.316 34.0552 116.353 34.0769 116.377 34.1078C116.4 34.1387 116.409 34.1764 116.4 34.2127Z" fill="white"/>
<path d="M94.6961 23.8633H94.0499V8.7482C94.0499 7.59937 93.7849 6.46179 93.27 5.40041C92.7551 4.33903 92.0005 3.37464 91.0491 2.56229C90.0978 1.74994 88.9684 1.10556 87.7253 0.66592C86.4823 0.226281 85.1501 6.19339e-07 83.8047 0H46.3014C44.956 -2.47726e-06 43.6237 0.226273 42.3807 0.665909C41.1377 1.10554 40.0083 1.74993 39.0569 2.56227C38.1056 3.37462 37.3509 4.33901 36.836 5.40039C36.3212 6.46177 36.0562 7.59935 36.0562 8.74818V91.6707C36.0562 93.9909 37.1356 96.216 39.0569 97.8566C40.9783 99.4972 43.5842 100.419 46.3014 100.419H83.8046C86.5218 100.419 89.1277 99.4972 91.0491 97.8566C92.9704 96.216 94.0499 93.9909 94.0499 91.6707V34.6225H94.6961V23.8633Z" fill="#3F3D56"/>
<path d="M84.218 2.27598H79.3226C79.5477 2.74727 79.6337 3.2586 79.5728 3.76493C79.512 4.27126 79.3063 4.75705 78.9738 5.1795C78.6413 5.60195 78.1923 5.9481 77.6662 6.18745C77.1401 6.4268 76.5532 6.55201 75.9571 6.55205H54.472C53.8759 6.55201 53.2889 6.42681 52.7629 6.18745C52.2368 5.9481 51.7878 5.60196 51.4553 5.1795C51.1228 4.75705 50.9171 4.27126 50.8562 3.76493C50.7954 3.2586 50.8813 2.74726 51.1065 2.27597H46.5341C44.505 2.27597 42.5589 2.96427 41.1241 4.18946C39.6892 5.41464 38.8831 7.07634 38.8831 8.80902V91.6099C38.8831 92.4678 39.081 93.3173 39.4655 94.11C39.85 94.9026 40.4136 95.6228 41.124 96.2294C41.8345 96.8361 42.6779 97.3173 43.6062 97.6456C44.5345 97.9739 45.5294 98.1429 46.5341 98.1429H84.218C85.2228 98.1429 86.2177 97.9739 87.1459 97.6456C88.0742 97.3173 88.9177 96.8361 89.6281 96.2294C90.3386 95.6228 90.9022 94.9026 91.2867 94.11C91.6712 93.3173 91.869 92.4678 91.869 91.6099V8.80901C91.869 7.07634 91.063 5.41464 89.6281 4.18946C88.1933 2.96427 86.2472 2.27598 84.218 2.27598Z" fill="white"/>
<path d="M66.1002 71.5441C63.3252 71.5463 60.5769 71.0813 58.0127 70.1755C55.4484 69.2698 53.1185 67.9411 51.1563 66.2656C49.1941 64.5901 47.6381 62.6006 46.5773 60.4111C45.5166 58.2215 44.9719 55.8748 44.9745 53.5053C44.9706 50.178 46.046 46.9149 48.0815 44.0776C50.1169 41.2404 53.033 38.9401 56.5062 37.4316C59.0238 36.3379 61.7723 35.6855 64.5898 35.5128C67.4073 35.3402 70.2368 35.6507 72.9115 36.4263C77.6485 37.8046 81.6587 40.574 84.2279 44.2411C86.7971 47.9082 87.7584 52.235 86.9408 56.4508C86.1231 60.6666 83.5795 64.4977 79.7629 67.2617C75.9464 70.0258 71.1047 71.5434 66.1002 71.5441ZM66.1002 36.1739C62.8953 36.1658 59.7348 36.8131 56.8829 38.0617C54.39 39.1461 52.1866 40.6589 50.411 42.5051C48.6354 44.3513 47.326 46.4909 46.5649 48.7898C45.8038 51.0886 45.6075 53.497 45.9882 55.8637C46.369 58.2304 47.3187 60.5043 48.7776 62.5427C50.2365 64.5812 52.1732 66.34 54.466 67.709C56.7589 69.0779 59.3584 70.0273 62.1014 70.4976C64.8443 70.9678 67.6716 70.9488 70.4056 70.4418C73.1396 69.9347 75.7212 68.9505 77.9886 67.5509C79.0848 66.8755 80.0985 66.1075 81.0143 65.2585C83.6927 62.784 85.4679 59.6963 86.1226 56.3734C86.7773 53.0505 86.2829 49.6368 84.7002 46.5501C83.1174 43.4635 80.5149 40.8379 77.2113 38.995C73.9076 37.152 70.0464 36.1716 66.1002 36.1739Z" fill="#F0F0F0"/>
<path d="M20.3239 37.4964C20.9038 37.5585 21.4607 37.7284 21.9553 37.9941C22.45 38.2599 22.8704 38.615 23.1869 39.0345C23.5035 39.4539 23.7085 39.9276 23.7874 40.422C23.8664 40.9165 23.8175 41.4197 23.6441 41.8962L30.6631 46.8886L28.1504 51.2707L18.3542 44.1017C17.4359 43.7998 16.6793 43.2209 16.2275 42.4745C15.7758 41.7281 15.6604 40.8662 15.9032 40.052C16.146 39.2378 16.7301 38.528 17.5449 38.0569C18.3596 37.5859 19.3484 37.3865 20.3239 37.4964Z" fill="#FFB6B6"/>
<path d="M85.8783 58.3156C85.7375 57.0235 85.1555 54.7007 84.6618 53.8419C83.1437 50.4492 73.3353 47.6608 72.0182 47.3013L71.6841 44.1298L58.0559 42.8777L56.3271 46.9335L51.4393 48.4992C51.1074 48.6049 50.807 48.772 50.5597 48.9884C50.3124 49.2049 50.1242 49.4654 50.0087 49.7513L45.6235 50.8337L41.2962 51.9018L26.2624 42.8565L25.5526 43.2526L20.8084 45.896L20.0765 46.3039L39.5315 61.2915L46.7584 59.8436L52.1931 58.7519L52.657 60.36L51.4558 66.0099C54.936 68.9826 59.5427 70.7993 64.4496 71.1342C69.3565 71.4691 74.2427 70.3003 78.2316 67.8373L81.3189 65.4982C83.4707 63.5115 85.059 61.1291 85.9611 58.5349L85.8783 58.3156Z" fill="#E4E4E4"/>
<path d="M69.1519 40.2839C74.2965 38.8295 77.0862 34.0893 75.3828 29.6965C73.6795 25.3036 68.1282 22.9215 62.9836 24.3759C57.839 25.8304 55.0493 30.5706 56.7527 34.9634C58.456 39.3563 64.0073 41.7383 69.1519 40.2839Z" fill="#FFB6B6"/>
<path d="M58.3171 22.7781C59.2711 21.6149 60.7026 20.8007 62.3273 20.4973C63.9337 20.2152 65.6056 20.477 66.9902 21.2276C68.4958 20.7097 70.1191 20.3661 71.714 20.5408C73.3088 20.7155 74.872 21.4762 75.6099 22.7294C75.7652 23.054 75.9535 23.3663 76.1728 23.6628C76.823 24.4035 78.0313 24.4996 79.0983 24.5352C78.5589 24.8038 78.0193 25.0725 77.4796 25.3411C78.0174 25.5551 78.5552 25.7691 79.093 25.9831C78.3611 26.2216 77.6292 26.4602 76.8973 26.6988C78.6008 27.9774 79.0128 30.2529 78.3677 32.1606C77.7571 33.9668 76.357 35.4873 74.7936 36.789C74.4886 35.8177 74.8242 34.7647 75.0476 33.7591C75.2835 32.6965 75.3213 31.4541 74.4501 30.7039C73.8623 30.1979 73.0002 30.045 72.1872 29.9223C68.0866 29.303 63.9481 28.8834 59.7917 28.6655C59.2354 28.5999 58.6688 28.6493 58.1395 28.8096C57.128 29.1933 56.7216 30.2474 56.4285 31.1819C56.2881 29.5415 56.4003 27.8924 56.7622 26.2769C57.0395 25.0404 57.4763 23.8029 58.3171 22.7781Z" fill="#2F2E41"/>
<path d="M71.0709 80.043H59.4725C59.0697 80.043 58.6834 79.9064 58.3985 79.6632C58.1137 79.42 57.9537 79.0901 57.9537 78.7461C57.9537 78.4022 58.1137 78.0723 58.3985 77.8291C58.6834 77.5859 59.0697 77.4492 59.4725 77.4492H71.0709C71.4738 77.4492 71.8601 77.5859 72.1449 77.8291C72.4298 78.0723 72.5898 78.4022 72.5898 78.7461C72.5898 79.0901 72.4298 79.42 72.1449 79.6632C71.8601 79.9064 71.4738 80.043 71.0709 80.043Z" fill="#F0A835"/>
<path d="M33.0119 10.6406H1.10944C0.815462 10.6402 0.533674 10.5402 0.325962 10.3626C0.11825 10.1849 0.00158691 9.94416 0.00158691 9.69313C0.00158691 9.44211 0.11825 9.20134 0.325962 9.0237C0.533674 8.84606 0.815462 8.74606 1.10944 8.74567H33.0119C33.3062 8.74567 33.5884 8.84549 33.7965 9.02317C34.0046 9.20086 34.1215 9.44185 34.1215 9.69313C34.1215 9.94442 34.0046 10.1854 33.7965 10.3631C33.5884 10.5408 33.3062 10.6406 33.0119 10.6406Z" fill="#F0A835"/>
<path d="M51.4315 16.692H1.10953C0.815267 16.692 0.533052 16.5922 0.324974 16.4145C0.116896 16.2369 0 15.9959 0 15.7446C0 15.4933 0.116896 15.2524 0.324974 15.0747C0.533052 14.897 0.815267 14.7972 1.10953 14.7972H51.4315C51.7257 14.7972 52.0079 14.897 52.216 15.0747C52.4241 15.2524 52.541 15.4933 52.541 15.7446C52.541 15.9959 52.4241 16.2369 52.216 16.4145C52.0079 16.5922 51.7257 16.692 51.4315 16.692Z" fill="#F0A835"/>
<path d="M41.7612 22.393H1.10953C0.815267 22.393 0.533051 22.2932 0.324974 22.1156C0.116896 21.9379 0 21.6969 0 21.4456C0 21.1944 0.116896 20.9534 0.324974 20.7757C0.533051 20.598 0.815267 20.4982 1.10953 20.4982H41.7612C42.0555 20.4982 42.3377 20.598 42.5457 20.7757C42.7538 20.9534 42.8707 21.1944 42.8707 21.4456C42.8707 21.6969 42.7538 21.9379 42.5457 22.1156C42.3377 22.2932 42.0555 22.393 41.7612 22.393Z" fill="#CACACA"/>
<path d="M24.0327 28.0731H1.10953C0.815267 28.0731 0.533051 27.9733 0.324974 27.7956C0.116896 27.618 0 27.377 0 27.1257C0 26.8745 0.116896 26.6335 0.324974 26.4558C0.533051 26.2781 0.815267 26.1783 1.10953 26.1783H24.0327C24.327 26.1783 24.6092 26.2781 24.8173 26.4558C25.0253 26.6335 25.1422 26.8745 25.1422 27.1257C25.1422 27.377 25.0253 27.618 24.8173 27.7956C24.6092 27.9733 24.327 28.0731 24.0327 28.0731Z" fill="#CACACA"/>
<path d="M36.6959 33.7528H1.10943C0.815465 33.7524 0.533706 33.6524 0.326006 33.4747C0.118307 33.2971 0.00164795 33.0564 0.00164795 32.8054C0.00164795 32.5543 0.118307 32.3136 0.326006 32.136C0.533706 31.9583 0.815465 31.8583 1.10943 31.8579H36.6959C36.9898 31.8583 37.2716 31.9583 37.4793 32.136C37.687 32.3136 37.8037 32.5543 37.8037 32.8054C37.8037 33.0564 37.687 33.2971 37.4793 33.4747C37.2716 33.6524 36.9898 33.7524 36.6959 33.7528Z" fill="#CACACA"/>
<path d="M136.988 126.443L134.129 126.443L132.769 117.026L136.989 117.026L136.988 126.443Z" fill="#9F616A"/>
<path d="M138.113 129.822L127.197 129.822V129.704C127.197 128.742 127.645 127.819 128.442 127.139C129.238 126.458 130.319 126.076 131.446 126.076H131.446L133.44 124.784L137.161 126.076L138.114 126.076L138.113 129.822Z" fill="#2F2E41"/>
<path d="M135.322 82.1832L134.061 69.054L133.071 64.126L138.617 63.08L140.458 69.8266L138.854 82.5475C139.178 82.886 139.375 83.2993 139.422 83.7344C139.468 84.1695 139.361 84.6064 139.114 84.9891C138.867 85.3718 138.492 85.6827 138.037 85.882C137.582 86.0813 137.067 86.1597 136.559 86.1074C136.051 86.055 135.573 85.8741 135.186 85.588C134.8 85.3019 134.522 84.9236 134.389 84.5017C134.256 84.0799 134.274 83.6337 134.44 83.2206C134.607 82.8074 134.914 82.4462 135.322 82.1832Z" fill="#9F616A"/>
<path d="M121.8 126.443L118.941 126.443L117.58 117.026L121.801 117.026L121.8 126.443Z" fill="#9F616A"/>
<path d="M117.224 85.1595L115.956 87.0318C115.956 87.0318 114.564 87.3567 115.019 91.2335C115.474 95.1103 115.494 118.079 117.697 120.906L118.096 123.333L122.256 123.672L122.361 121.519L127.323 91.5993C127.323 91.5993 130.244 120.971 132.662 121.69L133.535 124.137L137.348 124.138L137.123 121.254L137.368 84.856L117.224 85.1595Z" fill="#2F2E41"/>
<path d="M115.83 86.8891L115.743 86.8699C118.359 78.5139 117.604 67.6937 115.757 56.0749L115.757 56.0268L122.435 50.8036H128.235L133.984 53.9716C137.7 55.5583 138.545 58.9185 138.553 58.9523L138.559 58.9763L136.281 65.7636L137.997 85.3925L137.999 85.4152L137.989 85.4364C137.434 86.6385 135.946 86.4673 134.223 86.269C132.504 86.071 126.166 87.8815 124.223 87.8815C120.426 87.8815 116.102 86.9486 115.83 86.8891Z" fill="#E4E4E4"/>
<path d="M132.78 56.6171L135.271 55.6917L138.553 59.128L141.214 70.1394L132.101 68.9603L132.78 56.6171Z" fill="#E4E4E4"/>
<path d="M94.4608 76.9222L105.85 68.0359L109.808 64.3511L114.171 67.4568L109.049 72.8285L96.2848 79.5303C96.1693 79.9559 95.9073 80.3423 95.5327 80.6397C95.158 80.9372 94.6878 81.1323 94.1823 81.1999C93.6768 81.2674 93.1593 81.2044 92.6961 81.0189C92.2329 80.8333 91.8452 80.5338 91.5829 80.1587C91.3206 79.7836 91.1956 79.3502 91.224 78.914C91.2524 78.4778 91.4329 78.0588 91.7423 77.7109C92.0517 77.3629 92.4758 77.1019 92.9603 76.9614C93.4447 76.8209 93.9672 76.8072 94.4608 76.9222Z" fill="#9F616A"/>
<path d="M105.602 68.1326L108.756 64.6349C108.782 64.5847 111.399 59.5911 113.668 57.4214C115.995 55.1957 117.826 56.3339 117.845 56.3462L117.89 56.3755L118.017 64.5947L109.283 73.5061L105.602 68.1326Z" fill="#E4E4E4"/>
<path d="M130.007 45.8838C130.478 43.4092 128.509 41.0775 125.611 40.6759C122.713 40.2744 119.983 41.9549 119.512 44.4296C119.042 46.9042 121.01 49.2358 123.908 49.6374C126.806 50.039 129.537 48.3584 130.007 45.8838Z" fill="#9F616A"/>
<path d="M119.9 44.4828C119.9 44.4828 119.857 42.887 119.621 42.1809C119.385 41.4747 118.912 40.8695 119.148 40.8695C119.385 40.8695 119.503 40.3651 119.503 40.3651C119.503 40.3651 119.739 40.2643 119.857 40.3651C119.975 40.466 120.093 39.659 120.093 39.659C120.093 39.659 120.211 39.3564 120.33 39.5581C120.448 39.7599 120.448 39.659 120.566 39.3564C120.684 39.0538 121.275 38.852 121.275 38.852C121.275 38.852 123.519 38.9529 123.874 38.5494C124.228 38.1459 128.245 38.4485 129.072 38.9529C129.899 39.4572 133.561 41.273 132.97 42.7861C132.38 44.2992 130.679 47.7832 130.253 48.1325C129.579 48.6848 129.113 48.884 125.925 49.4257C125.301 49.5317 122.116 47.7925 122.116 47.4899C122.116 47.1873 122.5 46.2276 121.883 46.0958C120.95 45.8967 120.845 46.9038 120.608 46.6012C120.372 46.2986 119.9 44.4828 119.9 44.4828Z" fill="#2F2E41"/>
<path d="M122.925 129.822L112.008 129.822V129.704C112.009 128.742 112.456 127.819 113.253 127.139C114.05 126.458 115.131 126.076 116.257 126.076H116.258L118.252 124.784L121.972 126.076L122.925 126.076L122.925 129.822Z" fill="#2F2E41"/>
<path d="M179.671 130H0.919018C0.831812 130 0.748183 129.97 0.68652 129.918C0.624856 129.865 0.59021 129.794 0.59021 129.719C0.59021 129.645 0.624856 129.573 0.68652 129.521C0.748183 129.468 0.831812 129.438 0.919018 129.438H179.671C179.758 129.438 179.842 129.468 179.904 129.521C179.965 129.573 180 129.645 180 129.719C180 129.794 179.965 129.865 179.904 129.918C179.842 129.97 179.758 130 179.671 130Z" fill="#CACACA"/>
</g>
<defs>
<clipPath id="clip0_41_233">
<rect width="180" height="130" fill="white"/>
</clipPath>
</defs>
</svg>
