<svg width="333" height="186" viewBox="0 0 333 186" fill="none" xmlns="http://www.w3.org/2000/svg">
<g clip-path="url(#clip0_46_3762)">
<path d="M18.1867 169.39C11.0906 175.578 9.6178 185.725 9.6178 185.725C9.6178 185.725 19.6499 185.842 26.7459 179.655C33.8419 173.467 35.3148 163.319 35.3148 163.319C35.3148 163.319 25.2827 163.203 18.1867 169.39Z" fill="#F2F2F2"/>
<path d="M21.4656 171.852C18.443 180.873 9.7529 186 9.7529 186C9.7529 186 5.96349 176.501 8.98613 167.48C12.0088 158.459 20.6989 153.332 20.6989 153.332C20.6989 153.332 24.4883 162.831 21.4656 171.852Z" fill="#F2F2F2"/>
<path d="M95.534 38.386C93.9284 36.2586 91.6592 34.2903 91.5155 31.6651C91.3838 29.2574 93.1395 26.8669 92.3991 24.5635C91.8297 22.7924 89.9515 21.7237 88.1161 21.1578C84.6022 20.0899 80.8418 20.2379 77.4186 21.5789L77.6044 21.4449C75.5151 20.6839 73.0729 21.4695 71.4291 22.9247C69.7852 24.3798 68.8082 26.3967 68.0502 28.418C67.2921 30.4392 66.7047 32.5344 65.6514 34.4293C64.598 36.3242 62.9853 38.0474 60.8574 38.7023C61.5698 40.1553 63.7966 40.6538 65.1026 39.6526C65.4363 39.3755 65.7362 39.0585 65.9959 38.7083C66.8669 37.6252 67.738 36.5421 68.6091 35.4591C69.5054 37.0891 68.1664 39.3388 69.2682 40.8479C69.8362 41.6261 70.8738 41.9216 71.8374 42.1336C79.3689 43.7768 87.1818 43.4805 94.5735 41.2713C95.1676 41.0922 95.8231 40.8457 96.0695 40.2959C96.3541 39.6611 95.9561 38.9454 95.534 38.386Z" fill="#2F2E41"/>
<path d="M116.889 46.6879C116.842 46.8994 116.812 47.1143 116.798 47.3306L100.336 57.0415L96.3346 54.6861L92.0691 60.3963L98.7562 65.2699C99.2964 65.6636 99.947 65.8675 100.61 65.851C101.273 65.8345 101.913 65.5984 102.434 65.1783L119.409 51.4847C120.175 51.7747 121.009 51.8193 121.801 51.6126C122.592 51.4059 123.303 50.9577 123.84 50.3277C124.376 49.6976 124.712 48.9155 124.803 48.0854C124.894 47.2553 124.736 46.4166 124.349 45.6807C123.963 44.9449 123.366 44.3468 122.639 43.9661C121.912 43.5853 121.089 43.44 120.279 43.5493C119.469 43.6587 118.711 44.0175 118.105 44.5782C117.5 45.1388 117.076 45.8747 116.889 46.6879Z" fill="#FFB7B7"/>
<path d="M99.7856 57.5014L94.4652 64.5524C94.3138 64.753 94.122 64.9179 93.9026 65.0359C93.6833 65.1538 93.4417 65.222 93.1943 65.2359C92.9468 65.2498 92.6994 65.2089 92.4688 65.1162C92.2382 65.0234 92.0298 64.8809 91.8579 64.6984L85.8349 58.3029C84.8341 57.5056 84.1836 56.3348 84.0262 55.0476C83.8687 53.7603 84.2172 52.4617 84.9952 51.437C85.7731 50.4122 86.917 49.7449 88.1756 49.5817C89.4342 49.4184 90.7047 49.7725 91.7082 50.5662L99.2624 54.8855C99.4787 55.0092 99.6663 55.1791 99.8125 55.3837C99.9587 55.5883 100.06 55.8227 100.11 56.0709C100.159 56.3192 100.156 56.5755 100.1 56.8223C100.044 57.0692 99.937 57.3008 99.7856 57.5014Z" fill="#F0A835"/>
<path d="M92.4634 180.356L97.1615 180.356L99.3964 161.826L92.4626 161.826L92.4634 180.356Z" fill="#FFB7B7"/>
<path d="M91.2649 178.787L100.517 178.787H100.517C102.081 178.787 103.581 179.422 104.687 180.553C105.792 181.684 106.414 183.217 106.414 184.816V185.012L91.2652 185.013L91.2649 178.787Z" fill="#2F2E41"/>
<path d="M60.274 180.356L64.9721 180.356L67.207 161.826L60.2732 161.826L60.274 180.356Z" fill="#FFB7B7"/>
<path d="M59.0754 178.787L68.3276 178.787H68.328C69.8917 178.787 71.3914 179.422 72.4971 180.553C73.6029 181.684 74.2241 183.217 74.2242 184.816V185.012L59.0757 185.013L59.0754 178.787Z" fill="#2F2E41"/>
<path d="M89.642 35.7663C90.1313 31.2083 86.9144 27.1078 82.457 26.6074C77.9996 26.1071 73.9895 29.3964 73.5002 33.9544C73.0109 38.5123 76.2277 42.6129 80.6851 43.1132C85.1425 43.6136 89.1527 40.3242 89.642 35.7663Z" fill="#FFB7B7"/>
<path d="M86.3219 47.3069L91.1052 49.73C91.1052 49.73 96.4496 59.2273 93.3839 68.2398C91.8955 72.6156 96.0869 86.564 96.0869 86.564C96.0869 86.564 102.581 149.745 102.601 169.245C94.5336 170.513 86.8694 172.08 86.4862 168.162C86.103 164.243 81.9082 117.912 81.9082 117.912C81.9082 117.912 76.1396 169.337 71.5411 170.121C66.9426 170.905 57.7456 169.729 57.7456 169.729C57.7456 169.729 65.0471 94.401 70.0288 89.6988L70.7952 85.7803L70.7747 50.6066L76.5142 47.8057L86.3219 47.3069Z" fill="#2F2E41"/>
<path d="M69.2105 100.704C69.7398 100.412 70.1999 100.004 70.5583 99.5092C70.9167 99.0148 71.1648 98.4461 71.2851 97.8431C71.4053 97.2401 71.3948 96.6175 71.2543 96.0191C71.1137 95.4207 70.8466 94.8611 70.4717 94.3797L76.0346 56.4635L68.7667 56.1067L64.4303 93.866C63.6812 94.5636 63.2083 95.5181 63.1014 96.5484C62.9944 97.5787 63.2608 98.6134 63.85 99.4563C64.4392 100.299 65.3103 100.892 66.2983 101.122C67.2863 101.352 68.3224 101.203 69.2105 100.704Z" fill="#FFB7B7"/>
<path d="M75.8767 65.964L67.1846 65.4029C66.9373 65.3869 66.6963 65.3166 66.4779 65.1968C66.2596 65.077 66.069 64.9105 65.9193 64.7086C65.7695 64.5067 65.6641 64.2741 65.6102 64.0268C65.5563 63.7795 65.5551 63.5232 65.6068 63.2754L67.4179 54.5918C67.5047 53.2982 68.0897 52.0926 69.0446 51.2395C69.9995 50.3863 71.2462 49.9552 72.5115 50.0407C73.7768 50.1262 74.9573 50.7213 75.794 51.6955C76.6308 52.6698 77.0556 53.9436 76.9752 55.2376L77.7037 64.0563C77.7245 64.3088 77.6918 64.5629 77.6079 64.8014C77.524 65.0398 77.3908 65.2569 77.2174 65.4379C77.044 65.619 76.8345 65.7597 76.6031 65.8505C76.3718 65.9413 76.124 65.98 75.8767 65.964Z" fill="#F0A835"/>
<path d="M316.103 30.0095H123.888C122.485 30.0095 121.139 30.5795 120.147 31.594C119.155 32.6086 118.598 33.9846 118.598 35.4194V144.933C118.598 146.368 119.155 147.744 120.147 148.759C121.139 149.773 122.485 150.343 123.888 150.343H316.103C317.506 150.343 318.852 149.773 319.844 148.759C320.836 147.744 321.393 146.368 321.393 144.933V35.4194C321.393 33.9846 320.836 32.6086 319.844 31.594C318.852 30.5795 317.506 30.0095 316.103 30.0095Z" fill="#3F3D56"/>
<path d="M314.3 39.5703H125.691V148.365H314.3V39.5703Z" fill="white"/>
<path d="M219.834 36.6031C220.903 36.6031 221.769 35.7175 221.769 34.6251C221.769 33.5326 220.903 32.647 219.834 32.647C218.766 32.647 217.9 33.5326 217.9 34.6251C217.9 35.7175 218.766 36.6031 219.834 36.6031Z" fill="white"/>
<path d="M260.361 148.365H125.691V39.5703L260.361 148.365Z" fill="#F2F2F2"/>
<path d="M326.689 146.387H308.282V145.031C308.282 144.96 308.254 144.891 308.205 144.841C308.156 144.791 308.089 144.762 308.019 144.762H301.708C301.673 144.762 301.639 144.769 301.607 144.783C301.575 144.796 301.546 144.816 301.522 144.841C301.498 144.866 301.478 144.896 301.465 144.928C301.452 144.961 301.445 144.996 301.445 145.031V146.387H297.501V145.031C297.501 144.996 297.494 144.961 297.481 144.928C297.467 144.896 297.448 144.866 297.424 144.841C297.399 144.816 297.37 144.796 297.338 144.783C297.306 144.769 297.272 144.762 297.238 144.762H290.927C290.892 144.762 290.858 144.769 290.826 144.783C290.794 144.796 290.765 144.816 290.741 144.841C290.716 144.866 290.697 144.896 290.684 144.928C290.671 144.961 290.664 144.996 290.664 145.031V146.387H286.719V145.031C286.719 144.996 286.713 144.961 286.699 144.928C286.686 144.896 286.667 144.866 286.642 144.841C286.618 144.816 286.589 144.796 286.557 144.783C286.525 144.769 286.491 144.762 286.456 144.762H280.145C280.111 144.762 280.077 144.769 280.045 144.783C280.013 144.796 279.984 144.816 279.959 144.841C279.935 144.866 279.916 144.896 279.902 144.928C279.889 144.961 279.882 144.996 279.882 145.031V146.387H275.938V145.031C275.938 144.996 275.931 144.961 275.918 144.928C275.905 144.896 275.885 144.866 275.861 144.841C275.837 144.816 275.808 144.796 275.776 144.783C275.744 144.769 275.71 144.762 275.675 144.762H269.364C269.33 144.762 269.295 144.769 269.264 144.783C269.232 144.796 269.203 144.816 269.178 144.841C269.154 144.866 269.134 144.896 269.121 144.928C269.108 144.961 269.101 144.996 269.101 145.031V146.387H265.157V145.031C265.157 144.996 265.15 144.961 265.137 144.928C265.124 144.896 265.104 144.866 265.08 144.841C265.055 144.816 265.026 144.796 264.994 144.783C264.963 144.769 264.928 144.762 264.894 144.762H258.583C258.548 144.762 258.514 144.769 258.482 144.783C258.45 144.796 258.421 144.816 258.397 144.841C258.372 144.866 258.353 144.896 258.34 144.928C258.327 144.961 258.32 144.996 258.32 145.031V146.387H254.376V145.031C254.376 144.996 254.369 144.961 254.355 144.928C254.342 144.896 254.323 144.866 254.298 144.841C254.274 144.816 254.245 144.796 254.213 144.783C254.181 144.769 254.147 144.762 254.113 144.762H247.802C247.767 144.762 247.733 144.769 247.701 144.783C247.669 144.796 247.64 144.816 247.616 144.841C247.591 144.866 247.572 144.896 247.559 144.928C247.545 144.961 247.539 144.996 247.539 145.031V146.387H243.594V145.031C243.594 144.996 243.587 144.961 243.574 144.928C243.561 144.896 243.542 144.866 243.517 144.841C243.493 144.816 243.464 144.796 243.432 144.783C243.4 144.769 243.366 144.762 243.331 144.762H193.895C193.861 144.762 193.826 144.769 193.794 144.783C193.763 144.796 193.734 144.816 193.709 144.841C193.685 144.866 193.665 144.896 193.652 144.928C193.639 144.961 193.632 144.996 193.632 145.031V146.387H189.688V145.031C189.688 144.996 189.681 144.961 189.668 144.928C189.655 144.896 189.635 144.866 189.611 144.841C189.586 144.816 189.557 144.796 189.525 144.783C189.494 144.769 189.459 144.762 189.425 144.762H183.114C183.079 144.762 183.045 144.769 183.013 144.783C182.981 144.796 182.952 144.816 182.928 144.841C182.903 144.866 182.884 144.896 182.871 144.928C182.858 144.961 182.851 144.996 182.851 145.031V146.387H178.907V145.031C178.907 144.996 178.9 144.961 178.886 144.928C178.873 144.896 178.854 144.866 178.829 144.841C178.805 144.816 178.776 144.796 178.744 144.783C178.712 144.769 178.678 144.762 178.644 144.762H172.333C172.298 144.762 172.264 144.769 172.232 144.783C172.2 144.796 172.171 144.816 172.147 144.841C172.122 144.866 172.103 144.896 172.09 144.928C172.076 144.961 172.07 144.996 172.07 145.031V146.387H168.125V145.031C168.125 144.996 168.118 144.961 168.105 144.928C168.092 144.896 168.073 144.866 168.048 144.841C168.024 144.816 167.995 144.796 167.963 144.783C167.931 144.769 167.897 144.762 167.862 144.762H161.551C161.517 144.762 161.483 144.769 161.451 144.783C161.419 144.796 161.39 144.816 161.365 144.841C161.341 144.866 161.322 144.896 161.308 144.928C161.295 144.961 161.288 144.996 161.288 145.031V146.387H157.344V145.031C157.344 144.996 157.337 144.961 157.324 144.928C157.311 144.896 157.291 144.866 157.267 144.841C157.242 144.816 157.214 144.796 157.182 144.783C157.15 144.769 157.116 144.762 157.081 144.762H150.77C150.735 144.762 150.701 144.769 150.669 144.783C150.637 144.796 150.608 144.816 150.584 144.841C150.56 144.866 150.54 144.896 150.527 144.928C150.514 144.961 150.507 144.996 150.507 145.031V146.387H146.563V145.031C146.563 144.996 146.556 144.961 146.543 144.928C146.529 144.896 146.51 144.866 146.486 144.841C146.461 144.816 146.432 144.796 146.4 144.783C146.368 144.769 146.334 144.762 146.3 144.762H139.989C139.919 144.762 139.852 144.791 139.803 144.841C139.753 144.891 139.726 144.96 139.726 145.031V146.387H135.781V145.031C135.781 144.996 135.775 144.961 135.761 144.928C135.748 144.896 135.729 144.866 135.704 144.841C135.68 144.816 135.651 144.796 135.619 144.783C135.587 144.769 135.553 144.762 135.518 144.762H129.207C129.138 144.762 129.071 144.791 129.021 144.841C128.972 144.891 128.944 144.96 128.944 145.031V146.387H116.848C116.02 146.387 115.199 146.554 114.433 146.878C113.668 147.203 112.972 147.678 112.386 148.277C111.8 148.877 111.335 149.588 111.018 150.371C110.701 151.154 110.537 151.993 110.537 152.841V155.759C110.537 157.47 111.202 159.112 112.386 160.322C113.569 161.532 115.175 162.212 116.848 162.212H326.689C328.363 162.212 329.968 161.532 331.152 160.322C332.335 159.112 333 157.47 333 155.759V152.841C333 151.993 332.837 151.154 332.52 150.371C332.202 149.588 331.738 148.877 331.152 148.277C330.566 147.678 329.87 147.203 329.104 146.878C328.338 146.554 327.518 146.387 326.689 146.387Z" fill="#3F3D56"/>
<path d="M223.623 134.1C223.56 134.253 223.49 134.402 223.411 134.548C223 135.324 222.418 135.993 221.712 136.502C220.876 137.103 219.895 137.459 218.875 137.529C217.855 137.599 216.836 137.382 215.929 136.9C215.022 136.418 214.261 135.691 213.731 134.798C213.2 133.905 212.919 132.88 212.919 131.835V130.914H213.684C216.654 132.877 220.089 133.978 223.623 134.1Z" fill="#3F3D56"/>
<path d="M234.531 131.183V131.835C234.531 133.103 234.119 134.335 233.358 135.337C232.597 136.338 231.532 137.052 230.33 137.365C229.128 137.678 227.859 137.573 226.722 137.066C225.585 136.559 224.646 135.68 224.053 134.566C223.971 134.417 223.897 134.264 223.831 134.107C223.994 134.111 224.155 134.113 224.319 134.113C227.922 134.118 231.456 133.104 234.531 131.183Z" fill="#3F3D56"/>
<path d="M242.05 62.3008C241.882 62.2757 241.713 62.2597 241.543 62.2483C243.473 66.7972 243.607 71.9335 241.916 76.5811C242.086 76.5605 242.253 76.5331 242.421 76.5011C244.058 76.1768 245.529 75.269 246.573 73.9394C247.617 72.6098 248.165 70.9445 248.12 69.2402C248.076 67.5358 247.441 65.9029 246.33 64.6322C245.218 63.3614 243.702 62.5353 242.05 62.3008Z" fill="#3F3D56"/>
<path d="M207.095 62.2483C206.925 62.2597 206.755 62.2757 206.587 62.3008C204.936 62.5353 203.419 63.3615 202.308 64.6322C201.196 65.903 200.561 67.5358 200.517 69.2402C200.472 70.9445 201.021 72.6097 202.064 73.9394C203.108 75.269 204.579 76.1768 206.216 76.5011C206.384 76.5331 206.551 76.5605 206.721 76.5811C205.031 71.9335 205.164 66.7972 207.095 62.2483Z" fill="#3F3D56"/>
<path d="M242.05 62.3008C240.209 57.8032 236.798 54.1661 232.481 52.096C228.164 50.026 223.248 49.6708 218.689 51.0994C214.13 52.5281 210.253 55.6387 207.812 59.8268C205.37 64.0149 204.538 68.9815 205.477 73.7618C206.417 78.5421 209.06 82.7947 212.894 85.6935C216.728 88.5923 221.479 89.9303 226.224 89.4475C230.969 88.9647 235.369 86.6957 238.569 83.0811C241.769 79.4666 243.541 74.7647 243.541 69.8889C243.54 67.2836 243.033 64.7044 242.05 62.3008ZM241.916 76.5811C240.281 81.0752 237.06 84.7808 232.887 86.9685C228.715 89.1561 223.892 89.6675 219.369 88.4018C214.846 87.1361 210.95 84.1852 208.448 80.1297C205.946 76.0742 205.019 71.208 205.85 66.4888C206.681 61.7696 209.209 57.5392 212.937 54.6303C216.664 51.7214 221.322 50.3447 225.993 50.7711C230.663 51.1975 235.009 53.3961 238.174 56.9343C241.339 60.4725 243.094 65.0939 243.094 69.8889C243.093 72.1735 242.694 74.4396 241.916 76.5811Z" fill="#3F3D56"/>
<path d="M234.153 65.4319H214.484C213.446 65.4319 212.452 65.8533 211.718 66.6034C210.984 67.3535 210.572 68.3708 210.572 69.4316C210.572 70.4924 210.984 71.5098 211.718 72.2599C212.452 73.01 213.446 73.4314 214.484 73.4314H234.153C235.191 73.4314 236.186 73.01 236.919 72.2599C237.653 71.5098 238.065 70.4924 238.065 69.4316C238.065 68.3708 237.653 67.3535 236.919 66.6034C236.186 65.8533 235.191 65.4319 234.153 65.4319Z" fill="#3F3D56"/>
<path d="M241.916 104.045C241.844 103.91 241.771 103.777 241.695 103.647C241.693 103.642 241.69 103.64 241.688 103.635C239.929 100.557 237.418 97.999 234.401 96.2126C231.383 94.4262 227.963 93.4728 224.477 93.4459C220.99 93.419 217.557 94.3196 214.514 96.0593C211.47 97.799 208.921 100.318 207.118 103.369C205.314 106.42 204.317 109.898 204.224 113.462C204.132 117.026 204.947 120.554 206.59 123.698C208.234 126.842 210.648 129.496 213.597 131.398C216.546 133.3 219.928 134.386 223.411 134.548C223.623 134.559 223.838 134.566 224.053 134.566C224.142 134.571 224.229 134.571 224.319 134.571C227.912 134.576 231.44 133.59 234.531 131.716C237.888 129.684 240.6 126.704 242.341 123.134C242.343 123.129 242.345 123.127 242.347 123.122C242.414 122.985 242.479 122.846 242.544 122.704C243.888 119.764 244.532 116.54 244.423 113.297C244.314 110.054 243.455 106.883 241.916 104.045ZM242.108 122.578C242.043 122.72 241.976 122.859 241.907 122.996C240.244 126.376 237.689 129.212 234.531 131.183C231.456 133.104 227.922 134.118 224.319 134.113C224.155 134.113 223.995 134.111 223.831 134.107C223.762 134.107 223.693 134.104 223.623 134.1C220.211 133.978 216.888 132.949 213.982 131.116C211.076 129.282 208.687 126.706 207.049 123.642C205.412 120.578 204.584 117.13 204.645 113.639C204.706 110.148 205.655 106.733 207.399 103.73C209.142 100.728 211.62 98.2417 214.589 96.5158C217.557 94.79 220.914 93.8841 224.329 93.8874C227.744 93.8908 231.099 94.8031 234.064 96.5348C237.03 98.2664 239.503 100.758 241.241 103.763C241.243 103.768 241.245 103.77 241.248 103.775C241.326 103.905 241.402 104.038 241.473 104.17C243.007 106.964 243.865 110.093 243.976 113.295C244.086 116.498 243.446 119.681 242.108 122.578Z" fill="#3F3D56"/>
<path d="M239.779 104.652C239.387 104.367 238.919 104.213 238.438 104.211H229.647C229.035 104.211 228.448 104.46 228.015 104.903C227.582 105.345 227.338 105.946 227.338 106.572C227.338 107.198 227.582 107.799 228.015 108.242C228.448 108.684 229.035 108.933 229.647 108.933H238.438C238.595 108.934 238.751 108.918 238.905 108.885C239.058 108.851 239.208 108.803 239.352 108.741C239.728 108.576 240.054 108.311 240.297 107.974C240.54 107.637 240.69 107.24 240.734 106.824C240.777 106.408 240.712 105.988 240.544 105.606C240.376 105.224 240.112 104.895 239.779 104.652Z" fill="#3F3D56"/>
<path d="M230.233 107.771C230.88 107.771 231.405 107.234 231.405 106.572C231.405 105.91 230.88 105.374 230.233 105.374C229.585 105.374 229.06 105.91 229.06 106.572C229.06 107.234 229.585 107.771 230.233 107.771Z" fill="#F1F1F1"/>
<path d="M234.042 107.771C234.69 107.771 235.214 107.234 235.214 106.572C235.214 105.91 234.69 105.374 234.042 105.374C233.395 105.374 232.87 105.91 232.87 106.572C232.87 107.234 233.395 107.771 234.042 107.771Z" fill="#F1F1F1"/>
<path d="M237.852 107.771C238.499 107.771 239.024 107.234 239.024 106.572C239.024 105.91 238.499 105.374 237.852 105.374C237.205 105.374 236.68 105.91 236.68 106.572C236.68 107.234 237.205 107.771 237.852 107.771Z" fill="#F0A835"/>
<path d="M282.001 67.0665C278.953 68.936 273.522 71.2784 267.972 68.8711L264.384 67.315L271.574 59.0738C265.836 52.6054 262.662 44.1829 262.671 35.4503C262.68 26.7178 265.871 18.302 271.621 11.8456C277.371 5.38914 285.268 1.35552 293.769 0.532029C302.271 -0.291465 310.768 2.15427 317.602 7.39186C324.435 12.6294 329.114 20.283 330.726 28.8585C332.338 37.434 330.767 46.3161 326.32 53.771C321.873 61.226 314.868 66.7187 306.674 69.177C298.479 71.6353 289.683 70.8829 282.001 67.0665Z" fill="white"/>
<path d="M282.02 67.5107C279.091 69.2693 273.511 71.6996 267.822 69.2318L263.742 67.4621L271.059 59.0748C266.506 53.8383 263.571 47.3412 262.622 40.402C261.673 33.4627 262.754 26.3915 265.728 20.079C268.701 13.7664 273.435 8.49479 279.333 4.92797C285.231 1.36115 292.029 -0.341354 298.872 0.0348722C305.714 0.411099 312.294 2.84923 317.784 7.04221C323.274 11.2352 327.428 16.9955 329.722 23.5977C332.017 30.2 332.35 37.3488 330.679 44.1441C329.008 50.9393 325.408 57.077 320.332 61.7841C315.235 66.5401 308.862 69.6272 302.034 70.6477C295.206 71.6683 288.236 70.5758 282.02 67.5107ZM322.157 12.162C319.162 8.78341 315.546 6.04128 311.514 4.09218C307.482 2.14308 303.115 1.0252 298.661 0.802383C294.206 0.579567 289.753 1.25618 285.555 2.79358C281.356 4.33099 277.495 6.69905 274.192 9.76254C270.888 12.826 268.208 16.5249 266.303 20.648C264.398 24.771 263.305 29.2374 263.089 33.7921C262.872 38.3468 263.535 42.9006 265.039 47.1933C266.544 51.486 268.861 55.4336 271.857 58.8106L272.089 59.0718L265.026 67.1679L268.121 68.5105C273.616 70.8937 279.052 68.4181 281.804 66.7305L281.982 66.6212L282.169 66.714C289.263 70.2386 297.335 71.128 305 69.2295C312.665 67.331 319.445 62.7631 324.176 56.31C328.906 49.8568 331.292 41.9211 330.923 33.8652C330.555 25.8093 327.456 18.1357 322.157 12.162Z" fill="#F0A835"/>
<path opacity="0.1" d="M325.994 35.2674C325.994 27.1926 323.037 19.4107 317.706 13.4541C312.374 7.49746 305.055 3.79786 297.189 3.08384C298.11 3.00139 299.041 2.95679 299.982 2.95679C308.359 2.96195 316.391 6.36837 322.313 12.4272C328.234 18.4861 331.561 26.7014 331.561 35.2674C331.561 43.8333 328.234 52.0487 322.313 58.1075C316.391 64.1664 308.359 67.5728 299.982 67.5779C299.042 67.5779 298.113 67.5328 297.194 67.4505C305.059 66.7354 312.377 63.0354 317.707 57.079C323.037 51.1225 325.994 43.3413 325.994 35.2674Z" fill="black"/>
<path d="M301.466 28.8242H278.888V30.9682H301.466V28.8242Z" fill="#F0A835"/>
<path d="M318.24 36.2412H278.888V38.3852H318.24V36.2412Z" fill="#F0A835"/>
<path d="M318.202 43.658H278.888V45.802H318.202V43.658Z" fill="#F0A835"/>
<path d="M146.385 185.422H0.383208C0.281575 185.422 0.184104 185.38 0.112239 185.307C0.0403733 185.233 0 185.134 0 185.03C0 184.926 0.0403733 184.826 0.112239 184.753C0.184104 184.679 0.281575 184.638 0.383208 184.638H146.385C146.487 184.638 146.584 184.679 146.656 184.753C146.728 184.826 146.769 184.926 146.769 185.03C146.769 185.134 146.728 185.233 146.656 185.307C146.584 185.38 146.487 185.422 146.385 185.422Z" fill="#CBCBCB"/>
<path d="M90.0809 29.4635C89.7645 27.9959 88.7368 26.7799 87.553 25.8894C85.6014 24.4214 83.2081 23.6997 80.7898 23.8501C78.3715 24.0005 76.0813 25.0133 74.3181 26.7123C73.3328 27.6022 72.6225 28.7663 72.274 30.0624C72.1078 30.7101 72.0989 31.3897 72.2482 32.0418C72.3975 32.6938 72.7003 33.2987 73.1305 33.8038L73.2927 33.9077C73.1456 33.2698 73.6302 32.6323 74.2092 32.3509C74.8113 32.1249 75.4398 31.9808 76.0786 31.9223C77.0451 31.7355 77.9612 31.3387 78.7649 30.7588C79.5685 30.1789 80.2411 29.4294 80.7372 28.5608C81.1047 29.6298 81.6918 30.6059 82.4591 31.4235C83.2263 32.2411 84.1559 32.8812 85.1852 33.3009C86.2583 33.73 89.2057 34.3201 90.2274 33.7752C91.5306 33.0804 90.3973 30.9312 90.0809 29.4635Z" fill="#2F2E41"/>
</g>
<defs>
<clipPath id="clip0_46_3762">
<rect width="333" height="186" fill="white"/>
</clipPath>
</defs>
</svg>
