<svg width="72" height="72" viewBox="0 0 72 72" fill="none" xmlns="http://www.w3.org/2000/svg">
<path d="M13.9825 11.3371C14.0132 11.3378 14.0439 11.3385 14.0756 11.3392C14.1395 11.3407 14.2034 11.3425 14.2672 11.3447C14.3546 11.3476 14.4419 11.3495 14.5293 11.3509C14.6724 11.3533 14.8155 11.3565 14.9586 11.3599C15.1313 11.3641 15.304 11.3678 15.4767 11.3717C15.5327 11.3729 15.5327 11.3729 15.5899 11.3742C17.0214 11.4062 18.4529 11.4301 19.8846 11.4473C19.9382 11.448 19.9382 11.448 19.9928 11.4486C20.7157 11.4573 21.4387 11.4657 22.1616 11.4736C22.438 11.4766 22.7144 11.4797 22.9908 11.4828C23.1523 11.4847 23.3138 11.4865 23.4753 11.4881C25.5648 11.5092 25.5648 11.5092 25.9434 11.8174C26.0885 11.9771 26.1895 12.1341 26.2789 12.331C26.2915 12.3578 26.3041 12.3847 26.317 12.4124C26.3583 12.5009 26.3991 12.5896 26.4399 12.6782C26.4691 12.741 26.4983 12.8037 26.5276 12.8664C26.5889 12.9979 26.6501 13.1294 26.7112 13.2609C26.8458 13.5505 26.9825 13.8391 27.1193 14.1276C27.1639 14.2217 27.2084 14.3157 27.253 14.4098C27.4539 14.834 27.6575 15.2567 27.8624 15.679C28.0096 15.9832 28.1525 16.2891 28.2937 16.5962C28.5669 17.1898 28.8555 17.7758 29.143 18.3626C29.1689 18.4154 29.1689 18.4154 29.1954 18.4694C29.2124 18.5041 29.2294 18.5387 29.2469 18.5745C29.3888 18.8643 29.5288 19.1549 29.6674 19.4463C29.7973 19.7192 29.9285 19.9915 30.0602 20.2636C30.162 20.4742 30.2636 20.6849 30.3652 20.8956C30.3845 20.9357 30.4038 20.9758 30.4238 21.0171C30.4745 21.1225 30.525 21.2279 30.5755 21.3334C30.5902 21.3638 30.6049 21.3943 30.62 21.4256C30.7173 21.6301 30.7173 21.6301 30.7173 21.7174C30.9442 21.5244 31.1573 21.3213 31.3667 21.1096C31.3976 21.0785 31.4286 21.0474 31.4604 21.0154C31.5585 20.9169 31.6564 20.8182 31.7543 20.7196C31.8834 20.5894 32.0126 20.4594 32.1419 20.3295C32.171 20.3001 32.2001 20.2707 32.23 20.2404C32.3887 20.081 32.5506 19.9286 32.7217 19.7826C32.8362 19.6824 32.9418 19.5737 33.048 19.4649C33.1821 19.3287 33.3148 19.1961 33.4638 19.0761C33.5731 18.9789 33.6126 18.9209 33.6521 18.7826C33.7288 18.7059 33.8728 18.7275 33.9778 18.7219C34.0075 18.7203 34.0372 18.7186 34.0678 18.717C34.4224 18.6989 34.7768 18.6966 35.1317 18.697C35.167 18.697 35.2022 18.697 35.2385 18.697C36.1187 18.6978 36.9969 18.7395 37.8733 18.8217C37.9033 18.8245 37.9333 18.8273 37.9642 18.8301C38.1272 18.8474 38.2726 18.8814 38.426 18.9391C38.4618 20.3406 38.2824 21.7243 37.9956 23.0943C37.9824 23.1602 37.9824 23.1602 37.969 23.2274C37.9178 23.459 37.8762 23.6008 37.6826 23.7522C37.6502 23.7826 37.6178 23.8131 37.5844 23.8445C37.4064 24.0071 37.2271 24.1658 37.0393 24.3171C36.8617 24.4604 36.694 24.6112 36.5271 24.7665C36.404 24.8804 36.2778 24.9879 36.1467 25.0924C35.9288 25.2676 35.7264 25.4576 35.5238 25.6503C35.3712 25.7955 35.2158 25.9362 35.0567 26.0743C34.9485 26.1688 34.8432 26.2663 34.738 26.3641C34.6939 26.405 34.6497 26.4459 34.6056 26.4867C34.5837 26.507 34.5617 26.5274 34.5391 26.5483C34.2191 26.8443 33.8966 27.1375 33.5739 27.4304C33.6991 27.7691 33.8591 28.0886 34.0216 28.4104C34.0502 28.4673 34.0787 28.5242 34.1073 28.5812C34.1823 28.7307 34.2575 28.8802 34.3328 29.0296C34.4522 29.2668 34.5714 29.5041 34.6906 29.7414C34.7314 29.8226 34.7723 29.9038 34.8132 29.985C34.9441 30.2451 35.0725 30.5061 35.1972 30.7692C35.527 31.4646 35.873 32.1518 36.2173 32.84C36.3115 33.0283 36.4056 33.2166 36.4997 33.4049C36.6576 33.7206 36.8155 34.0364 36.9734 34.3521C37.155 34.715 37.3365 35.078 37.5179 35.4411C37.6749 35.7552 37.8319 36.0693 37.989 36.3834C38.0823 36.5699 38.1756 36.7565 38.2688 36.943C38.3564 37.1184 38.4442 37.2938 38.5319 37.4691C38.5638 37.5328 38.5956 37.5965 38.6274 37.6602C38.8114 38.0285 38.999 38.3947 39.1918 38.7585C39.325 39.0099 39.4536 39.2634 39.5801 39.5182C39.6176 39.5938 39.6553 39.6693 39.6929 39.7449C39.7863 39.9321 39.8795 40.1194 39.9727 40.3068C40.0648 40.4919 40.157 40.6769 40.2493 40.8619C40.262 40.8875 40.2748 40.9131 40.2879 40.9395C40.4534 41.271 40.622 41.6006 40.796 41.9278C40.9545 42.2264 41.105 42.5288 41.2553 42.8317C41.4759 43.2763 41.6969 43.7204 41.9308 44.1582C42.0794 44.4373 42.2195 44.7206 42.3601 45.0038C42.4965 45.2775 42.637 45.5485 42.7805 45.8185C42.9213 46.0844 43.056 46.3531 43.1889 46.6229C43.3017 46.8508 43.419 47.076 43.5377 47.3007C43.7405 47.6844 43.9381 48.0705 44.135 48.4571C44.4044 48.9859 44.6739 49.5145 44.9496 50.04C45.1155 50.3565 45.2791 50.6741 45.4426 50.9918C45.4997 51.1027 45.5567 51.2136 45.6138 51.3244C45.6279 51.3519 45.642 51.3793 45.6566 51.4075C45.9904 52.056 46.3255 52.7037 46.6633 53.3501C46.8155 53.6414 46.9668 53.9332 47.1179 54.225C47.2869 54.5513 47.4568 54.8771 47.6284 55.2021C47.771 55.4724 47.9116 55.7438 48.0521 56.0152C48.2247 56.3485 48.3979 56.6814 48.5732 57.0133C48.6591 57.176 48.7445 57.339 48.8292 57.5023C49.0182 57.8663 49.2089 58.2289 49.407 58.588C49.6315 58.9954 49.8432 59.4091 50.055 59.8232C50.2488 60.2022 50.4462 60.5785 50.6525 60.951C50.8292 61.272 50.996 61.5978 51.163 61.9239C51.367 62.3224 51.5742 62.7183 51.7908 63.1102C51.9652 63.4273 52.1307 63.7488 52.2961 64.0707C52.5007 64.4687 52.7119 64.8628 52.9281 65.2547C53.2244 65.7951 53.2244 65.7951 53.1415 66.1157C53.0197 66.3151 52.8526 66.4477 52.6304 66.5217C52.5546 66.5254 52.4786 66.5267 52.4027 66.5268C52.3305 66.527 52.3305 66.527 52.2568 66.5272C52.2026 66.5271 52.1484 66.527 52.0942 66.5269C52.0361 66.527 51.978 66.527 51.9199 66.5271C51.7576 66.5272 51.5954 66.527 51.4331 66.5268C51.3288 66.5266 51.2246 66.5265 51.1203 66.5265C49.7045 66.5255 48.2886 66.516 46.8728 66.5058C46.7328 66.5048 46.5928 66.5038 46.4527 66.5029C45.8341 66.4985 45.2155 66.4935 44.5968 66.4873C44.2799 66.4841 43.9629 66.4816 43.646 66.4798C43.4029 66.4783 43.1599 66.4763 42.9168 66.4738C42.7719 66.4724 42.627 66.4712 42.4821 66.4707C42.3222 66.4702 42.1622 66.4684 42.0023 66.4665C41.932 66.4666 41.932 66.4666 41.8603 66.4666C41.5098 66.461 41.2155 66.3945 40.9181 66.2038C40.663 65.9308 40.5079 65.5707 40.3429 65.2388C40.3206 65.1944 40.2984 65.15 40.2755 65.1042C40.215 64.9835 40.1547 64.8626 40.0945 64.7418C40.0308 64.614 39.9669 64.4863 39.903 64.3586C39.7956 64.1437 39.6883 63.9287 39.581 63.7137C39.4583 63.4676 39.3354 63.2216 39.2124 62.9757C39.0801 62.7111 38.9479 62.4464 38.8157 62.1817C38.7783 62.1068 38.7409 62.032 38.7035 61.9571C38.471 61.492 38.2396 61.0265 38.0164 60.5568C37.7749 60.0484 37.5233 59.5452 37.2714 59.042C37.2046 58.9085 37.1379 58.7751 37.0712 58.6416C36.9595 58.418 36.8476 58.1944 36.7357 57.9708C36.6075 57.7145 36.4794 57.4582 36.3513 57.2018C36.24 56.9791 36.1287 56.7564 36.0173 56.5337C35.9513 56.4018 35.8854 56.27 35.8195 56.1381C35.4847 55.4669 35.4847 55.4669 35.1386 54.8014C34.8927 54.3386 34.6605 53.8688 34.4267 53.3997C34.3611 53.268 34.2953 53.1364 34.2296 53.0047C34.049 52.6431 33.8686 52.2814 33.6882 51.9198C33.5225 51.5876 33.3568 51.2554 33.1909 50.9234C33.1259 50.7932 33.0609 50.663 32.996 50.5327C32.7542 50.0473 32.5116 49.5626 32.2574 49.0835C32.1251 48.834 31.9975 48.5825 31.872 48.3296C31.8344 48.254 31.7968 48.1785 31.7591 48.1029C31.6658 47.9157 31.5726 47.7284 31.4794 47.541C31.3873 47.3559 31.2951 47.1709 31.2028 46.9859C31.19 46.9602 31.1772 46.9346 31.1641 46.9082C31.0003 46.5803 30.8336 46.2543 30.6614 45.9307C30.4371 45.508 30.227 45.078 30.0142 44.6495C29.8048 44.2281 29.5933 43.8083 29.3728 43.3925C29.2119 43.0885 29.0584 42.7809 28.9055 42.4727C28.6876 42.0336 28.4695 41.5949 28.2382 41.1626C28.0738 40.8538 27.9193 40.5399 27.7635 40.2267C27.5995 39.8972 27.4327 39.5695 27.2596 39.2446C27.1086 38.9601 26.9657 38.6717 26.8224 38.3832C26.6861 38.1097 26.5458 37.8388 26.4022 37.569C26.2752 37.3293 26.1542 37.0869 26.0339 36.8437C25.8845 36.542 25.7293 36.2475 25.5521 35.9609C25.2399 36.3371 24.9305 36.715 24.6305 37.1011C24.5696 37.1794 24.5085 37.2575 24.4474 37.3356C23.9377 37.9882 23.4344 38.6448 22.9528 39.3185C22.8908 39.405 22.8284 39.4911 22.7659 39.5772C22.6376 39.754 22.5098 39.9311 22.3826 40.1087C22.3526 40.1504 22.3526 40.1504 22.3221 40.1931C21.991 40.6565 21.6738 41.1291 21.3578 41.603C21.3381 41.6325 21.3184 41.662 21.2981 41.6925C20.9316 42.2423 20.5673 42.7939 20.2206 43.3565C20.1997 43.3903 20.1789 43.4241 20.1574 43.459C19.5435 44.4566 18.948 45.4648 18.3946 46.4973C18.3193 46.6378 18.2431 46.7777 18.1653 46.9168C17.5533 48.0144 17.0066 49.149 16.4975 50.2976C16.44 50.4272 16.3819 50.5565 16.3236 50.6857C15.802 51.8476 15.3366 53.0354 14.9086 54.2348C14.8973 54.2666 14.8859 54.2984 14.8742 54.3312C13.9872 56.8212 13.2804 59.3837 12.8373 61.9912C12.8311 62.0276 12.8249 62.064 12.8185 62.1016C12.7884 62.2782 12.759 62.4548 12.7308 62.6317C12.7204 62.6948 12.7099 62.7579 12.6995 62.821C12.6951 62.85 12.6907 62.879 12.6861 62.9088C12.6726 62.989 12.6726 62.989 12.6391 63.1174C12.5217 63.1956 12.5217 63.1956 12.4165 63.181C12.3867 63.1729 12.3568 63.1648 12.326 63.1565C12.2923 63.0421 12.2843 62.9489 12.2931 62.8302C12.2967 62.7796 12.2967 62.7796 12.3003 62.728C12.3032 62.6912 12.3061 62.6545 12.3091 62.6166C12.3134 62.5582 12.3134 62.5582 12.3178 62.4986C12.3275 62.3689 12.3377 62.2394 12.348 62.1098C12.3516 62.0649 12.3551 62.02 12.3587 61.9737C12.6976 57.6752 13.4238 53.4204 18.7434 38.4652C18.7742 38.4022 18.7742 38.4022 18.8057 38.338C19.046 37.8482 19.2965 37.3654 19.5603 36.8878C19.6463 36.7319 19.7309 36.5753 19.8146 36.4182C20.1226 35.8402 20.4435 35.2716 20.7782 34.7087C20.8019 34.6688 20.8255 34.6289 20.8499 34.5878C21.4476 33.581 22.0718 32.5923 22.7201 31.6174C22.7492 31.5735 22.7492 31.5735 22.779 31.5287C22.7972 31.5014 22.8154 31.4742 22.8341 31.4462C22.8508 31.421 22.8675 31.3958 22.8847 31.3699C22.9304 31.3043 22.9304 31.3043 23.0047 31.2187C23.0572 31.1487 23.0572 31.1487 23.0371 31.0582C23.0067 30.9449 22.9646 30.8537 22.9097 30.7501C22.8888 30.7101 22.8678 30.6702 22.8462 30.629C22.8232 30.5855 22.8001 30.542 22.7763 30.4973C22.7391 30.4266 22.7021 30.3558 22.665 30.2851C22.6386 30.2347 22.6122 30.1844 22.5857 30.1341C22.4407 29.858 22.2982 29.5805 22.1558 29.3029C22.0808 29.1566 22.0056 29.0104 21.9304 28.8642C21.9083 28.8212 21.9083 28.8212 21.8857 28.7772C21.7208 28.4566 21.5551 28.1363 21.3893 27.8161C21.2181 27.4855 21.0475 27.1545 20.877 26.8235C20.5933 26.2723 20.3085 25.7216 20.0229 25.1714C19.9102 24.9543 19.7976 24.7372 19.685 24.5201C19.6625 24.4768 19.6401 24.4335 19.617 24.3889C19.4979 24.1593 19.379 23.9297 19.2602 23.6999C19.2417 23.664 19.2417 23.664 19.2227 23.6274C19.2104 23.6034 19.198 23.5795 19.1852 23.5548C18.9668 23.1322 18.7478 22.71 18.5276 22.2884C18.2619 21.7797 17.9982 21.2699 17.7342 20.7604C17.4784 20.2666 17.2222 19.7729 16.9647 19.28C16.8119 18.9873 16.6599 18.6942 16.5081 18.4011C16.3541 18.1038 16.1997 17.8069 16.0434 17.5109C15.8632 17.1695 15.6855 16.8268 15.508 16.484C15.3022 16.0867 15.0953 15.6899 14.8882 15.2933C14.8289 15.1798 14.7697 15.0662 14.7105 14.9527C14.5138 14.5753 14.3167 14.1981 14.1181 13.8216C14.028 13.6506 13.9383 13.4794 13.8491 13.308C13.8284 13.2684 13.8078 13.2288 13.7865 13.1879C13.7469 13.1117 13.7072 13.0354 13.6676 12.9591C13.5527 12.7383 13.4347 12.5198 13.3124 12.303C13.2222 12.1229 13.199 11.9394 13.226 11.7391C13.3848 11.409 13.6424 11.3222 13.9825 11.3371ZM29.9856 21.1096C29.8572 21.2408 29.7312 21.3724 29.6119 21.5119C29.4737 21.6729 29.3245 21.8213 29.1727 21.9692C29.0395 22.1002 28.9162 22.2374 28.794 22.3786C28.6438 22.5494 28.4855 22.7126 28.3288 22.8774C28.1763 23.0384 28.0276 23.2018 27.8823 23.3694C27.8064 23.4567 27.7285 23.5421 27.6505 23.6274C27.5288 23.7621 27.4122 23.8994 27.2983 24.0407C27.1714 24.1978 27.0396 24.3479 26.9021 24.4956C26.7356 24.6748 26.5784 24.8593 26.4249 25.0499C26.3266 25.1709 26.2257 25.2894 26.1244 25.4079C25.959 25.6021 25.8 25.8004 25.6435 26.0018C25.4999 26.1859 25.3517 26.3657 25.2024 26.5451C25.0059 26.7819 24.8173 27.0229 24.6343 27.2702C24.4853 27.4713 24.3321 27.6688 24.1777 27.8657C23.9675 28.1344 23.7662 28.4077 23.57 28.6866C23.445 28.8628 23.3174 29.0371 23.1902 29.2117C23.1497 29.2675 23.1095 29.3235 23.0696 29.3797C23.0269 29.4395 22.9836 29.4989 22.9398 29.5579C22.9179 29.5884 22.896 29.6189 22.8735 29.6503C22.8535 29.6777 22.8334 29.705 22.8128 29.7332C22.7611 29.845 22.7758 29.8967 22.813 30.013C22.8433 30.0804 22.8762 30.1467 22.911 30.2119C22.9303 30.2483 22.9496 30.2848 22.9694 30.3223C22.9896 30.3599 23.0098 30.3974 23.0306 30.4361C23.051 30.4744 23.0714 30.5128 23.0923 30.5522C23.1425 30.6465 23.1928 30.7407 23.2434 30.8348C23.3474 30.7349 23.4355 30.6353 23.5172 30.5165C23.5388 30.4854 23.5603 30.4542 23.5826 30.4221C23.6054 30.3888 23.6283 30.3555 23.6518 30.3212C23.7012 30.2501 23.7506 30.179 23.8 30.108C23.8372 30.0544 23.8372 30.0544 23.8752 29.9997C24.215 29.5126 24.5706 29.0382 24.9318 28.5669C25.045 28.4192 25.1567 28.2705 25.2676 28.1211C25.4865 27.8264 25.7145 27.5403 25.9472 27.2565C26.0572 27.1223 26.1638 26.9859 26.2696 26.8485C26.4055 26.6747 26.5468 26.5052 26.6869 26.3348C26.7151 26.3001 26.7434 26.2654 26.7725 26.2296C27.1147 25.8091 27.4671 25.3973 27.8205 24.9861C27.8991 24.8946 27.9773 24.8028 28.0552 24.7107C28.2778 24.4483 28.5057 24.1923 28.741 23.9412C28.8482 23.8267 28.9542 23.7119 29.0567 23.5932C29.2311 23.3915 29.4133 23.1969 29.5947 23.0016C29.6398 22.953 29.6849 22.9044 29.7299 22.8558C30.0018 22.5622 30.2745 22.2708 30.5608 21.9913C30.4979 21.7778 30.4023 21.5871 30.3016 21.3897C30.2851 21.3571 30.2687 21.3246 30.2517 21.2911C30.2114 21.2114 30.171 21.1317 30.1304 21.0522C30.0473 21.0436 30.0473 21.0436 29.9856 21.1096ZM32.6535 28.2714C32.5622 28.3631 32.471 28.455 32.3802 28.5472C32.3376 28.5903 32.3376 28.5903 32.2942 28.6343C32.2693 28.6596 32.2444 28.685 32.2188 28.7111C32.1401 28.7865 32.0599 28.8579 31.9774 28.9292C31.8179 29.0679 31.6673 29.2139 31.5181 29.3636C31.4914 29.3902 31.4647 29.4169 31.4372 29.4444C31.3812 29.5003 31.3253 29.5563 31.2694 29.6124C31.1847 29.6973 31.0997 29.7821 31.0147 29.8668C30.9599 29.9216 30.9052 29.9764 30.8505 30.0312C30.8255 30.0561 30.8005 30.0811 30.7747 30.1067C30.6265 30.2557 30.4863 30.4095 30.3489 30.5684C30.2717 30.6564 30.1905 30.7393 30.1071 30.8213C30.0757 30.8524 30.0443 30.8836 30.0119 30.9156C29.9474 30.9791 29.8829 31.0426 29.8184 31.1061C29.6476 31.2752 29.4838 31.4469 29.3272 31.6292C29.2377 31.7322 29.1401 31.8259 29.0421 31.9206C28.9678 31.997 28.8979 32.075 28.8281 32.1554C28.6623 32.3463 28.4888 32.5295 28.3149 32.713C28.1676 32.8692 28.0241 33.0278 27.8834 33.1899C27.8052 33.2798 27.7255 33.3682 27.6456 33.4565C27.3542 33.7798 27.071 34.1099 26.788 34.4406C26.7079 34.5342 26.6277 34.6276 26.5474 34.7211C26.4699 34.8115 26.3924 34.902 26.315 34.9925C26.2548 35.0628 26.1944 35.1328 26.134 35.2029C26.0949 35.2485 26.0559 35.2941 26.0168 35.3397C25.9897 35.3709 25.9897 35.3709 25.9621 35.4028C25.8338 35.5519 25.8338 35.5519 25.7478 35.7261C25.7708 35.813 25.7708 35.813 25.8216 35.8985C25.839 35.9308 25.8564 35.9632 25.8743 35.9965C25.9024 36.0466 25.9024 36.0466 25.9312 36.0978C25.9492 36.1313 25.9673 36.1647 25.9858 36.1992C26.0679 36.3497 26.1511 36.4905 26.2565 36.6261C26.467 36.3966 26.6694 36.1626 26.8654 35.9207C27.0299 35.72 27.1999 35.5241 27.3693 35.3276C27.4305 35.2564 27.4915 35.185 27.5524 35.1136C27.7564 34.8744 27.9621 34.6374 28.1734 34.4045C28.2461 34.324 28.3178 34.2427 28.3891 34.1609C28.5499 33.9763 28.7142 33.7948 28.8782 33.613C28.9206 33.5658 28.9206 33.5658 28.9638 33.5177C29.1759 33.2813 29.3898 33.0468 29.6048 32.8131C29.6417 32.7729 29.6787 32.7327 29.7156 32.6924C29.8534 32.5424 29.9917 32.3928 30.1304 32.2435C30.1656 32.2055 30.1656 32.2055 30.2015 32.1669C30.5252 31.8186 30.8537 31.4765 31.1929 31.1433C31.3168 31.0209 31.4368 30.8977 31.5501 30.7654C31.7185 30.57 31.9009 30.3888 32.0836 30.2069C32.143 30.1476 32.2023 30.0882 32.2615 30.0287C32.4454 29.8447 32.6316 29.6661 32.8294 29.4968C32.9986 29.3458 33.1555 29.1816 33.3146 29.0201C33.3841 28.9496 33.4537 28.8792 33.5234 28.8089C33.5538 28.778 33.5842 28.7472 33.6155 28.7154C33.6912 28.6435 33.6912 28.6435 33.7695 28.6043C33.7467 28.4629 33.7087 28.3529 33.641 28.2269C33.6234 28.194 33.6059 28.1611 33.5878 28.1272C33.5695 28.0934 33.5512 28.0596 33.5323 28.0247C33.5046 27.9729 33.5046 27.9729 33.4763 27.9199C33.4308 27.8349 33.385 27.75 33.3391 27.6652C33.1567 27.6652 32.7824 28.1426 32.6535 28.2714Z" fill="#EFA734"/>
<path d="M13.9825 11.3371C14.0132 11.3378 14.0439 11.3385 14.0756 11.3392C14.1395 11.3407 14.2034 11.3425 14.2672 11.3447C14.3546 11.3476 14.4419 11.3495 14.5293 11.3509C14.6724 11.3533 14.8155 11.3565 14.9586 11.3599C15.1313 11.3641 15.304 11.3678 15.4767 11.3717C15.5327 11.3729 15.5327 11.3729 15.5899 11.3742C17.0214 11.4062 18.4529 11.4301 19.8846 11.4473C19.9382 11.448 19.9382 11.448 19.9928 11.4486C20.7157 11.4573 21.4387 11.4657 22.1616 11.4736C22.438 11.4766 22.7144 11.4797 22.9908 11.4828C23.1523 11.4847 23.3138 11.4865 23.4753 11.4881C25.5648 11.5092 25.5648 11.5092 25.9434 11.8174C26.0885 11.9771 26.1895 12.1341 26.2789 12.331C26.2915 12.3578 26.3041 12.3847 26.317 12.4124C26.3583 12.5009 26.3991 12.5896 26.4399 12.6782C26.4691 12.741 26.4983 12.8037 26.5276 12.8664C26.5889 12.9979 26.6501 13.1294 26.7112 13.2609C26.8458 13.5505 26.9825 13.8391 27.1193 14.1276C27.1639 14.2217 27.2084 14.3157 27.253 14.4098C27.4539 14.834 27.6575 15.2567 27.8624 15.679C28.0096 15.9832 28.1525 16.2891 28.2937 16.5962C28.5669 17.1898 28.8555 17.7758 29.143 18.3626C29.1689 18.4154 29.1689 18.4154 29.1954 18.4694C29.2124 18.5041 29.2294 18.5387 29.2469 18.5745C29.3888 18.8643 29.5288 19.1549 29.6674 19.4463C29.7973 19.7192 29.9285 19.9915 30.0602 20.2636C30.162 20.4742 30.2636 20.6849 30.3652 20.8956C30.3845 20.9357 30.4038 20.9758 30.4238 21.0171C30.4745 21.1225 30.525 21.2279 30.5755 21.3334C30.5902 21.3638 30.6049 21.3943 30.62 21.4256C30.7173 21.6301 30.7173 21.6301 30.7173 21.7174C30.9442 21.5244 31.1573 21.3213 31.3667 21.1096C31.3976 21.0785 31.4286 21.0474 31.4604 21.0154C31.5585 20.9169 31.6564 20.8182 31.7543 20.7196C31.8834 20.5894 32.0126 20.4594 32.1419 20.3295C32.171 20.3001 32.2001 20.2707 32.23 20.2404C32.3887 20.081 32.5506 19.9286 32.7217 19.7826C32.8362 19.6824 32.9418 19.5737 33.048 19.4649C33.1821 19.3287 33.3148 19.1961 33.4638 19.0761C33.5731 18.9789 33.6126 18.9209 33.6521 18.7826C33.7288 18.7059 33.8728 18.7275 33.9778 18.7219C34.0075 18.7203 34.0372 18.7186 34.0678 18.717C34.4224 18.6989 34.7768 18.6966 35.1317 18.697C35.167 18.697 35.2022 18.697 35.2385 18.697C36.1187 18.6978 36.9969 18.7395 37.8733 18.8217C37.9033 18.8245 37.9333 18.8273 37.9642 18.8301C38.1272 18.8474 38.2726 18.8814 38.426 18.9391C38.4618 20.3406 38.2824 21.7243 37.9956 23.0943C37.9824 23.1602 37.9824 23.1602 37.969 23.2274C37.9178 23.459 37.8762 23.6008 37.6826 23.7522C37.6502 23.7826 37.6178 23.8131 37.5844 23.8445C37.4064 24.0071 37.2271 24.1658 37.0393 24.3171C36.8617 24.4604 36.694 24.6112 36.5271 24.7665C36.404 24.8804 36.2778 24.9879 36.1467 25.0924C35.9288 25.2676 35.7264 25.4576 35.5238 25.6503C35.3712 25.7955 35.2158 25.9362 35.0567 26.0743C34.9485 26.1688 34.8432 26.2663 34.738 26.3641C34.6938 26.405 34.6496 26.446 34.6055 26.4869C34.5835 26.5072 34.5615 26.5276 34.5389 26.5485C34.4384 26.6414 34.3376 26.7339 34.2366 26.8263C34.1796 26.8786 34.1796 26.8786 34.1214 26.932C34.0401 27.0064 33.9588 27.0806 33.8774 27.1548C33.846 27.1835 33.846 27.1835 33.814 27.2128C33.756 27.2657 33.698 27.3186 33.64 27.3714C33.5713 27.4355 33.5036 27.5007 33.4372 27.5672C33.3524 27.6519 33.2656 27.7332 33.1768 27.8136C32.9015 28.063 32.6387 28.3236 32.3782 28.5884C32.35 28.6169 32.3218 28.6454 32.2928 28.6748C32.2682 28.6999 32.2435 28.725 32.2182 28.7508C32.1395 28.8262 32.0593 28.8976 31.977 28.9688C31.8206 29.1047 31.6729 29.2474 31.5267 29.3941C31.5009 29.4199 31.475 29.4457 31.4484 29.4723C31.3943 29.5264 31.3402 29.5806 31.2861 29.6348C31.2042 29.7169 31.1221 29.7988 31.0399 29.8807C30.987 29.9337 30.934 29.9868 30.881 30.0398C30.8448 30.0759 30.8448 30.0759 30.8079 30.1127C30.6618 30.2596 30.5238 30.4114 30.3883 30.5681C30.3111 30.6562 30.2298 30.7392 30.1463 30.8213C30.1148 30.8524 30.0834 30.8836 30.051 30.9156C29.9865 30.9791 29.922 31.0426 29.8575 31.1061C29.6868 31.2752 29.5229 31.4469 29.3663 31.6292C29.2768 31.7322 29.1793 31.8259 29.0812 31.9206C29.0069 31.997 28.937 32.075 28.8672 32.1554C28.7014 32.3463 28.5279 32.5295 28.3541 32.713C28.2068 32.8692 28.0632 33.0278 27.9225 33.1899C27.8443 33.2798 27.7647 33.3682 27.6847 33.4565C27.3933 33.7798 27.1101 34.1099 26.8272 34.4406C26.7667 34.5112 26.7062 34.5818 26.6456 34.6523C26.4486 34.8818 26.2518 35.1116 26.0559 35.3421C26.0379 35.3633 26.0198 35.3844 26.0012 35.4062C25.9239 35.4974 25.8533 35.5873 25.7869 35.6869C25.7611 35.6869 25.7352 35.6869 25.7086 35.6869C25.698 35.7097 25.6874 35.7325 25.6764 35.756C25.6307 35.8428 25.581 35.9134 25.5203 35.9902C25.496 36.0211 25.4716 36.0519 25.4465 36.0838C25.3586 36.193 25.27 36.3017 25.1813 36.4102C24.958 36.6835 24.7402 36.9599 24.5271 37.2411C24.3898 37.4217 24.2495 37.5993 24.1067 37.7755C23.8581 38.0834 23.6248 38.4021 23.3916 38.7218C23.2995 38.8477 23.2068 38.9731 23.1141 39.0985C21.3767 41.4498 19.7759 43.9198 18.3946 46.4973C18.3193 46.6378 18.2431 46.7777 18.1653 46.9168C17.5533 48.0144 17.0066 49.149 16.4975 50.2976C16.44 50.4272 16.3819 50.5565 16.3236 50.6857C15.802 51.8476 15.3366 53.0354 14.9086 54.2348C14.8973 54.2666 14.8859 54.2984 14.8742 54.3312C13.9872 56.8212 13.2804 59.3837 12.8373 61.9912C12.8311 62.0276 12.8249 62.0641 12.8185 62.1016C12.7884 62.2782 12.759 62.4548 12.7308 62.6317C12.7204 62.6948 12.7099 62.7579 12.6995 62.821C12.6951 62.85 12.6907 62.879 12.6861 62.9088C12.6726 62.989 12.6726 62.989 12.6391 63.1174C12.5217 63.1956 12.5217 63.1956 12.4165 63.181C12.3867 63.1729 12.3568 63.1648 12.326 63.1565C12.2923 63.0421 12.2843 62.9489 12.2931 62.8302C12.2967 62.7796 12.2967 62.7796 12.3003 62.728C12.3032 62.6912 12.3061 62.6545 12.3091 62.6166C12.3134 62.5582 12.3134 62.5582 12.3178 62.4986C12.3275 62.369 12.3377 62.2394 12.348 62.1098C12.3516 62.0649 12.3551 62.02 12.3587 61.9737C12.6976 57.6752 13.4238 53.4204 18.7434 38.4652C18.7742 38.4022 18.7742 38.4022 18.8057 38.338C19.046 37.8482 19.2965 37.3654 19.5603 36.8878C19.6463 36.7319 19.7309 36.5753 19.8146 36.4182C20.1226 35.8402 20.4435 35.2716 20.7782 34.7087C20.8019 34.6688 20.8255 34.6289 20.8499 34.5878C21.4476 33.581 22.0718 32.5923 22.7201 31.6174C22.7492 31.5735 22.7492 31.5735 22.779 31.5287C22.7972 31.5014 22.8154 31.4742 22.8341 31.4462C22.8508 31.421 22.8675 31.3958 22.8847 31.3699C22.9304 31.3043 22.9304 31.3043 23.0047 31.2187C23.0572 31.1487 23.0572 31.1487 23.0371 31.0582C23.0067 30.9449 22.9646 30.8537 22.9097 30.7501C22.8888 30.7101 22.8678 30.6702 22.8462 30.629C22.8232 30.5855 22.8001 30.5421 22.7763 30.4973C22.7391 30.4266 22.7021 30.3558 22.665 30.2851C22.6386 30.2347 22.6122 30.1844 22.5857 30.1341C22.4407 29.858 22.2982 29.5805 22.1558 29.3029C22.0808 29.1566 22.0056 29.0104 21.9304 28.8642C21.9083 28.8212 21.9083 28.8212 21.8857 28.7772C21.7208 28.4566 21.5551 28.1363 21.3893 27.8161C21.2181 27.4855 21.0475 27.1545 20.877 26.8235C20.5933 26.2723 20.3085 25.7216 20.0229 25.1714C19.9102 24.9543 19.7976 24.7372 19.685 24.5201C19.6625 24.4768 19.6401 24.4335 19.617 24.3889C19.4979 24.1593 19.379 23.9297 19.2602 23.6999C19.2417 23.664 19.2417 23.664 19.2227 23.6274C19.2104 23.6034 19.198 23.5795 19.1852 23.5548C18.9668 23.1322 18.7478 22.71 18.5276 22.2884C18.2619 21.7797 17.9982 21.2699 17.7342 20.7604C17.4784 20.2666 17.2222 19.7729 16.9647 19.28C16.8119 18.9873 16.6599 18.6942 16.5081 18.4011C16.3541 18.1038 16.1997 17.8069 16.0434 17.5109C15.8632 17.1695 15.6855 16.8268 15.508 16.484C15.3022 16.0867 15.0953 15.6899 14.8882 15.2933C14.8289 15.1798 14.7697 15.0662 14.7105 14.9527C14.5138 14.5753 14.3167 14.1981 14.1181 13.8216C14.028 13.6506 13.9383 13.4794 13.8491 13.308C13.8284 13.2684 13.8078 13.2288 13.7865 13.1879C13.7469 13.1117 13.7072 13.0354 13.6676 12.9591C13.5527 12.7383 13.4347 12.5198 13.3124 12.303C13.2222 12.1229 13.199 11.9394 13.226 11.7391C13.3848 11.409 13.6424 11.3222 13.9825 11.3371ZM29.9856 21.1096C29.8572 21.2408 29.7312 21.3724 29.6119 21.5119C29.4737 21.6729 29.3245 21.8213 29.1727 21.9692C29.0395 22.1002 28.9162 22.2374 28.794 22.3786C28.6438 22.5494 28.4855 22.7126 28.3288 22.8774C28.1763 23.0384 28.0276 23.2018 27.8823 23.3694C27.8064 23.4567 27.7285 23.5421 27.6505 23.6274C27.5288 23.7621 27.4122 23.8994 27.2983 24.0408C27.1714 24.1978 27.0396 24.3479 26.9021 24.4956C26.7356 24.6748 26.5784 24.8593 26.4249 25.0499C26.3266 25.1709 26.2257 25.2894 26.1244 25.4079C25.959 25.6021 25.8 25.8004 25.6435 26.0018C25.4999 26.1859 25.3517 26.3657 25.2024 26.5451C25.0059 26.7819 24.8173 27.0229 24.6343 27.2702C24.4853 27.4713 24.3321 27.6688 24.1777 27.8658C23.9675 28.1344 23.7662 28.4077 23.57 28.6866C23.445 28.8628 23.3174 29.0371 23.1902 29.2117C23.1497 29.2675 23.1095 29.3235 23.0696 29.3797C23.0269 29.4396 22.9836 29.4989 22.9398 29.5579C22.9179 29.5884 22.896 29.6189 22.8735 29.6503C22.8535 29.6777 22.8334 29.705 22.8128 29.7332C22.7611 29.845 22.7758 29.8967 22.813 30.013C22.8433 30.0804 22.8762 30.1467 22.911 30.2119C22.9303 30.2483 22.9496 30.2848 22.9694 30.3223C22.9896 30.3599 23.0098 30.3974 23.0306 30.4361C23.051 30.4744 23.0714 30.5128 23.0923 30.5522C23.1425 30.6465 23.1928 30.7407 23.2434 30.8348C23.3474 30.7349 23.4355 30.6353 23.5172 30.5165C23.5388 30.4854 23.5603 30.4542 23.5826 30.4221C23.6054 30.3888 23.6283 30.3555 23.6518 30.3212C23.7012 30.2501 23.7506 30.179 23.8 30.108C23.8372 30.0544 23.8372 30.0544 23.8752 29.9997C24.215 29.5126 24.5706 29.0382 24.9318 28.5669C25.045 28.4192 25.1567 28.2705 25.2676 28.1211C25.4865 27.8264 25.7145 27.5403 25.9472 27.2565C26.0572 27.1223 26.1638 26.9859 26.2696 26.8485C26.4055 26.6747 26.5468 26.5052 26.6869 26.3348C26.7151 26.3001 26.7434 26.2654 26.7725 26.2296C27.1147 25.8091 27.4671 25.3973 27.8205 24.9861C27.8991 24.8946 27.9773 24.8028 28.0552 24.7107C28.2778 24.4483 28.5057 24.1923 28.741 23.9412C28.8482 23.8267 28.9542 23.7119 29.0567 23.5932C29.2311 23.3915 29.4133 23.1969 29.5947 23.0016C29.6398 22.953 29.6849 22.9044 29.7299 22.8558C30.0018 22.5622 30.2745 22.2708 30.5608 21.9913C30.4979 21.7778 30.4023 21.5871 30.3016 21.3897C30.2851 21.3571 30.2687 21.3246 30.2517 21.2911C30.2114 21.2114 30.171 21.1317 30.1304 21.0522C30.0473 21.0436 30.0473 21.0436 29.9856 21.1096Z" fill="#F06D35"/>
<path d="M13.9826 11.3371C14.0133 11.3378 14.044 11.3385 14.0756 11.3392C14.1395 11.3407 14.2034 11.3425 14.2673 11.3447C14.3546 11.3476 14.4419 11.3495 14.5293 11.3509C14.6724 11.3533 14.8155 11.3565 14.9586 11.3599C15.1313 11.3641 15.304 11.3678 15.4767 11.3717C15.5328 11.3729 15.5328 11.3729 15.59 11.3742C17.0215 11.4062 18.4529 11.4301 19.8847 11.4473C19.9382 11.448 19.9382 11.448 19.9928 11.4486C20.7158 11.4573 21.4387 11.4657 22.1617 11.4736C22.4381 11.4766 22.7145 11.4797 22.9909 11.4828C23.1524 11.4847 23.3138 11.4865 23.4753 11.4881C25.5649 11.5092 25.5649 11.5092 25.9435 11.8174C26.0886 11.9771 26.1895 12.1341 26.279 12.331C26.2915 12.3578 26.3041 12.3847 26.3171 12.4124C26.3583 12.5009 26.3991 12.5896 26.4399 12.6782C26.4691 12.741 26.4984 12.8037 26.5276 12.8664C26.589 12.9979 26.6502 13.1294 26.7112 13.2609C26.8459 13.5505 26.9826 13.8391 27.1194 14.1276C27.1639 14.2217 27.2085 14.3157 27.253 14.4098C27.4539 14.834 27.6576 15.2567 27.8624 15.679C28.0096 15.9832 28.1526 16.2891 28.2937 16.5962C28.5669 17.1898 28.8555 17.7758 29.1431 18.3626C29.169 18.4154 29.169 18.4154 29.1954 18.4694C29.2124 18.5041 29.2294 18.5387 29.2469 18.5745C29.3889 18.8643 29.5288 19.155 29.6675 19.4465C29.7848 19.693 29.9032 19.939 30.0221 20.1848C30.0693 20.2826 30.1165 20.3803 30.1635 20.4782C30.2708 20.7012 30.3789 20.9237 30.4898 21.1449C30.5179 21.2018 30.5179 21.2018 30.5466 21.2597C30.5812 21.3298 30.6164 21.3996 30.6521 21.4692C30.6672 21.4999 30.6823 21.5306 30.6978 21.5622C30.7111 21.5886 30.7244 21.615 30.7382 21.6422C30.7565 21.7174 30.7565 21.7174 30.7284 21.8004C30.6782 21.8739 30.6782 21.8739 30.5609 21.9522C30.4962 21.8317 30.4319 21.711 30.3676 21.5902C30.3493 21.5561 30.331 21.5219 30.3121 21.4867C30.2946 21.4537 30.277 21.4206 30.259 21.3866C30.2428 21.3563 30.2266 21.3259 30.2099 21.2947C30.1719 21.2137 30.1486 21.1395 30.1304 21.0522C29.9213 21.2243 29.7389 21.4093 29.5601 21.6125C29.4268 21.7598 29.2854 21.8982 29.1433 22.0368C29.0355 22.1471 28.9349 22.2613 28.834 22.3778C28.6835 22.5487 28.525 22.7123 28.368 22.8774C28.2155 23.0384 28.0668 23.2018 27.9215 23.3694C27.8456 23.4567 27.7677 23.5421 27.6897 23.6274C27.568 23.7621 27.4514 23.8994 27.3375 24.0407C27.2105 24.1978 27.0787 24.3479 26.9413 24.4956C26.7748 24.6748 26.6176 24.8593 26.4641 25.0499C26.3658 25.1709 26.2649 25.2894 26.1636 25.4079C25.9981 25.6021 25.8391 25.8004 25.6826 26.0018C25.5391 26.1859 25.3908 26.3657 25.2416 26.5451C25.0451 26.7819 24.8565 27.0229 24.6734 27.2702C24.5245 27.4713 24.3713 27.6688 24.2168 27.8657C24.0067 28.1344 23.8053 28.4077 23.6091 28.6866C23.4842 28.8628 23.3566 29.0371 23.2294 29.2117C23.1889 29.2675 23.1487 29.3235 23.1087 29.3797C23.0661 29.4395 23.0228 29.4989 22.979 29.5579C22.9571 29.5884 22.9352 29.6189 22.9127 29.6503C22.8927 29.6777 22.8726 29.705 22.852 29.7332C22.8002 29.845 22.8144 29.8969 22.8522 30.013C22.898 30.1081 22.898 30.1081 22.9556 30.2023C22.9756 30.2375 22.9956 30.2727 23.0162 30.309C23.0585 30.3824 23.1016 30.4555 23.1453 30.5281C23.2933 30.7929 23.2933 30.7929 23.2603 30.9218C23.217 30.9977 23.217 30.9977 23.1261 31.1087C23.0369 30.9958 22.9679 30.8818 22.9021 30.7539C22.8814 30.7138 22.8607 30.6737 22.8394 30.6324C22.817 30.5886 22.7946 30.5448 22.7715 30.4997C22.7474 30.453 22.7234 30.4064 22.6993 30.3597C22.6336 30.2321 22.568 30.1045 22.5025 29.9768C22.4314 29.8382 22.36 29.6996 22.2887 29.561C22.1993 29.3872 22.1099 29.2134 22.0206 29.0395C21.8108 28.6314 21.6003 28.2236 21.3893 27.8161C21.2181 27.4855 21.0475 27.1545 20.8771 26.8235C20.5933 26.2723 20.3086 25.7216 20.0229 25.1714C19.9102 24.9543 19.7976 24.7372 19.685 24.5201C19.6626 24.4768 19.6401 24.4335 19.617 24.3889C19.498 24.1593 19.379 23.9297 19.2603 23.6999C19.2417 23.664 19.2417 23.664 19.2228 23.6274C19.2104 23.6034 19.198 23.5795 19.1853 23.5548C18.9669 23.1322 18.7479 22.71 18.5276 22.2884C18.2619 21.7797 17.9982 21.2699 17.7343 20.7604C17.4784 20.2666 17.2222 19.7729 16.9647 19.28C16.8119 18.9873 16.66 18.6942 16.5081 18.4011C16.3542 18.1038 16.1998 17.8069 16.0435 17.5109C15.8632 17.1695 15.6856 16.8268 15.508 16.484C15.3022 16.0867 15.0954 15.6899 14.8882 15.2933C14.8289 15.1798 14.7698 15.0662 14.7106 14.9527C14.5139 14.5753 14.3167 14.1981 14.1181 13.8216C14.028 13.6506 13.9384 13.4794 13.8491 13.308C13.8285 13.2684 13.8078 13.2288 13.7866 13.1879C13.7469 13.1117 13.7073 13.0354 13.6677 12.9591C13.5528 12.7383 13.4347 12.5198 13.3125 12.303C13.2222 12.1229 13.199 11.9394 13.2261 11.7391C13.3848 11.409 13.6424 11.3222 13.9826 11.3371Z" fill="#EFA734"/>
<path d="M41.8119 5.86988C41.8522 5.88213 41.8924 5.89439 41.9339 5.90702C42.0683 5.94803 42.2025 5.9895 42.3367 6.03099C42.4327 6.06042 42.5287 6.08983 42.6248 6.11922C42.9471 6.21801 43.2692 6.31765 43.5913 6.4174C43.6205 6.42643 43.6496 6.43546 43.6797 6.44476C44.113 6.57894 44.5463 6.71338 44.9795 6.84801C45.0733 6.87715 45.167 6.90629 45.2608 6.93542C46.3884 7.2858 46.3884 7.2858 46.9044 7.44946C47.0605 7.49897 47.2167 7.54818 47.3729 7.59737C47.4741 7.6294 47.5752 7.66191 47.6762 7.69445C47.7353 7.71309 47.7945 7.7317 47.8536 7.75028C47.8922 7.76298 47.8922 7.76298 47.9316 7.77594C48.173 7.85061 48.3081 7.80339 48.5281 7.6891C48.5533 7.67575 48.5784 7.66239 48.6043 7.64863C48.6309 7.63476 48.6574 7.6209 48.6848 7.60661C48.7415 7.57704 48.7981 7.54736 48.8546 7.5176C49.0015 7.4404 49.1489 7.3642 49.2962 7.2879C49.3248 7.27307 49.3534 7.25824 49.3829 7.24297C50.1814 6.82919 51.0134 6.48271 51.887 6.26088C51.9341 6.24842 51.9812 6.23596 52.0297 6.22312C52.3705 6.1456 52.7025 6.13158 53.0511 6.12881C53.0951 6.12827 53.1391 6.12772 53.1844 6.12716C53.7316 6.13025 54.3194 6.27433 54.7277 6.66273C54.9415 6.92649 54.9667 7.23002 54.9564 7.55982C54.8659 8.33973 54.2237 8.98672 53.6908 9.51505C53.6332 9.57226 53.576 9.62987 53.5188 9.68754C53.2748 9.93192 53.0179 10.1541 52.7478 10.3696C52.7038 10.4066 52.66 10.4439 52.6165 10.4816C52.3952 10.673 52.1697 10.8565 51.9359 11.0323C51.9101 11.0519 51.8844 11.0715 51.8579 11.0916C51.7179 11.1966 51.5763 11.2936 51.4267 11.3844C51.3962 11.4037 51.3656 11.423 51.3341 11.4428C51.2757 11.4794 51.2163 11.5146 51.156 11.5479C51.0655 11.6056 51.0116 11.6524 50.9478 11.7391C50.9242 11.8541 50.9242 11.8541 50.9212 11.9839C50.9176 12.0575 50.9176 12.0575 50.9138 12.1326C50.9121 12.1835 50.9104 12.2345 50.9087 12.287C50.9071 12.3347 50.9055 12.3823 50.9038 12.4315C50.8996 12.5853 50.8967 12.7392 50.8941 12.8931C50.893 12.9517 50.8919 13.0103 50.8908 13.0688C50.8885 13.194 50.8862 13.3192 50.884 13.4444C50.8805 13.6441 50.8768 13.8438 50.8731 14.0434C50.8672 14.361 50.8615 14.6785 50.8558 14.996C50.8457 15.5602 50.8354 16.1244 50.825 16.6886C50.8219 16.8538 50.8189 17.0189 50.816 17.1841C50.8149 17.2469 50.8137 17.3097 50.8126 17.3725C50.8118 17.4187 50.8118 17.4187 50.811 17.4659C50.8066 17.7075 50.8017 17.9492 50.7966 18.1908C50.7926 18.3876 50.7898 18.5844 50.7876 18.7812C50.786 18.9193 50.7837 19.0575 50.7813 19.1957C50.7803 19.2618 50.7795 19.3279 50.7791 19.3939C50.7784 19.4853 50.7768 19.5766 50.775 19.6679C50.7751 19.695 50.7751 19.722 50.7752 19.7498C50.7716 19.8811 50.7606 19.9461 50.677 20.0496C50.6024 20.1078 50.5292 20.1611 50.4485 20.2103C50.42 20.228 50.3915 20.2456 50.3621 20.2638C50.3159 20.292 50.3159 20.292 50.2689 20.3208C49.8304 20.5933 49.4036 20.882 48.9766 21.172C48.8636 21.2486 48.7506 21.3252 48.6376 21.4018C48.5681 21.4488 48.4986 21.4959 48.4292 21.5431C47.9953 21.8372 47.9953 21.8372 47.8639 21.8226C47.8215 21.8092 47.8215 21.8092 47.7783 21.7957C47.69 21.4505 47.6555 21.0994 47.6157 20.7462C47.6076 20.6756 47.5995 20.605 47.5914 20.5344C47.5694 20.3435 47.5478 20.1527 47.5261 19.9618C47.5034 19.762 47.4805 19.5623 47.4577 19.3625C47.4144 18.9846 47.3714 18.6067 47.3284 18.2288C47.2794 17.7984 47.2302 17.368 47.181 16.9376C47.0799 16.0527 46.979 15.1676 46.8783 14.2826C46.7234 14.2826 46.6956 14.3314 46.5848 14.4367C46.4126 14.5964 46.2354 14.7464 46.0529 14.894C45.9311 14.9935 45.8116 15.0952 45.6921 15.1973C45.5185 15.3453 45.3418 15.488 45.1614 15.6277C44.939 15.8001 44.7265 15.9816 44.5151 16.1672C44.3321 16.3271 44.1437 16.478 43.9515 16.6266C43.7618 16.7741 43.5786 16.9282 43.3981 17.0868C43.2927 17.1791 43.1883 17.2649 43.074 17.3466C42.8736 17.4908 42.7541 17.589 42.7061 17.8373C42.6971 17.8824 42.688 17.9274 42.6787 17.9739C42.6656 18.0449 42.6656 18.0449 42.6522 18.1174C42.643 18.1638 42.6339 18.2102 42.6245 18.258C42.5952 18.4079 42.5672 18.5579 42.5394 18.708C42.5291 18.763 42.5188 18.8179 42.5086 18.8729C42.4819 19.0159 42.4553 19.1588 42.4287 19.3018C42.3963 19.4761 42.3638 19.6504 42.3313 19.8246C42.306 19.96 42.2808 20.0954 42.2556 20.2308C42.2466 20.2793 42.2376 20.3278 42.2283 20.3777C42.2204 20.4202 42.2125 20.4628 42.2043 20.5066C42.1972 20.5446 42.19 20.5826 42.1826 20.6217C42.1768 20.6574 42.1709 20.6932 42.1649 20.7299C42.1318 20.8652 42.0636 20.8983 41.9478 20.9739C41.4282 21.2779 40.9478 21.2986 40.3704 21.1638C40.2652 21.1304 40.2652 21.1304 40.187 21.0522C40.161 20.9635 40.161 20.9635 40.1381 20.8511C40.1293 20.809 40.1205 20.7668 40.1115 20.7234C40.1023 20.6773 40.093 20.6313 40.0835 20.5838C40.0736 20.536 40.0638 20.4881 40.0536 20.4388C40.0273 20.3106 40.0013 20.1823 39.9753 20.054C39.9497 19.9276 39.9237 19.8013 39.8977 19.675C39.7674 19.0393 39.6426 18.4027 39.5217 17.7652C39.5003 17.7584 39.4788 17.7516 39.4567 17.7446C39.2418 17.6748 39.0345 17.5944 38.8272 17.5046C38.7955 17.4911 38.7639 17.4775 38.7313 17.4635C38.6641 17.4347 38.5969 17.4059 38.5298 17.377C38.0326 17.163 37.5348 16.9508 37.0321 16.7503C36.9935 16.7349 36.9549 16.7195 36.9151 16.7036C36.7736 16.6475 36.6354 16.594 36.489 16.5519C36.3913 16.5131 36.3913 16.5131 36.3355 16.4411C36.3241 16.414 36.3126 16.3869 36.3008 16.359C36.2829 16.3185 36.2829 16.3185 36.2646 16.2772C36.1416 15.9586 36.151 15.6083 36.2739 15.2902C36.382 15.0602 36.5242 14.8537 36.7043 14.6739C36.8337 14.6308 36.8535 14.6416 36.9783 14.6739C37.0555 14.6764 37.1328 14.6766 37.21 14.6754C37.2568 14.6747 37.3036 14.6741 37.3518 14.6734C37.4024 14.6725 37.4529 14.6715 37.505 14.6706C37.5578 14.6697 37.6107 14.6689 37.6636 14.668C37.7745 14.6663 37.8855 14.6643 37.9965 14.6623C38.1372 14.6597 38.2778 14.6575 38.4185 14.6553C38.5279 14.6536 38.6373 14.6518 38.7466 14.6499C38.8232 14.6486 38.8998 14.6474 38.9764 14.6462C39.2191 14.6416 39.4613 14.6337 39.7036 14.6198C39.7472 14.6173 39.7909 14.6148 39.8358 14.6123C40.0176 14.5863 40.1333 14.5072 40.2726 14.3927C40.3136 14.3614 40.3136 14.3614 40.3555 14.3295C40.4136 14.2852 40.4714 14.2405 40.5288 14.1953C40.6484 14.1019 40.7707 14.0126 40.8931 13.9231C40.9873 13.8542 41.0811 13.7848 41.1748 13.7154C41.3533 13.5835 41.533 13.4535 41.713 13.3239C41.9555 13.1494 42.1967 12.9732 42.437 12.7957C42.7644 12.5538 43.0939 12.3149 43.4243 12.077C43.5162 12.0107 43.6081 11.9443 43.7 11.8778C44.0013 11.6597 44.3027 11.4419 44.6087 11.2304C44.0957 10.8932 43.574 10.571 43.0505 10.2503C42.8677 10.1381 42.6853 10.0252 42.503 9.91224C42.4697 9.89163 42.4364 9.87102 42.4022 9.84979C42.27 9.76789 42.1378 9.68597 42.0056 9.60405C40.8793 8.906 39.7516 8.20989 38.6129 7.5322C38.5834 7.51458 38.5539 7.49696 38.5235 7.47881C38.4978 7.46358 38.4722 7.44835 38.4459 7.43265C38.387 7.39566 38.387 7.39566 38.3478 7.35653C38.3258 7.24892 38.3258 7.24892 38.3478 7.12175C38.6112 6.93489 38.9046 6.79638 39.1916 6.64974C39.2674 6.61083 39.3432 6.57187 39.419 6.53291C39.4701 6.50665 39.5212 6.4804 39.5723 6.45417C39.7345 6.37083 39.8963 6.28668 40.0578 6.20188C40.0979 6.18079 40.1381 6.15971 40.1795 6.13799C40.2538 6.09891 40.328 6.05975 40.4023 6.02051C40.4997 5.96937 40.5976 5.91939 40.6956 5.86957C40.7256 5.8534 40.7555 5.83723 40.7864 5.82056C40.8155 5.80582 40.8447 5.79107 40.8748 5.77587C40.8998 5.76277 40.9248 5.74966 40.9505 5.73616C41.2364 5.66828 41.5404 5.78535 41.8119 5.86988Z" fill="#F06D35"/>
</svg>
